<?xml version="1.0" encoding="utf-8"?>
<!-- Generator: Adobe Illustrator 26.0.1, SVG Export Plug-In . SVG Version: 6.00 Build 0)  -->
<svg version="1.1" xmlns="http://www.w3.org/2000/svg" xmlns:xlink="http://www.w3.org/1999/xlink" x="0px" y="0px"
	 viewBox="0 0 1152 1127" style="enable-background:new 0 0 1152 1127;" xml:space="preserve">
<style type="text/css">
	.st0{display:none;}
	.st1{display:inline;}
	.st2{fill:#FFFFFF;}
	.st3{display:inline;fill:#FFFFFF;}
	.st4{fill:none;stroke:#000000;stroke-width:50;}
	.st5{stroke:#000000;stroke-width:50;}
	.st6{stroke:#FFFFFF;stroke-width:50;}
	.st7{display:inline;stroke:#1C1B1A;stroke-width:60;stroke-miterlimit:10;}
	.st8{fill:#FFFFFF;stroke:#1C1B1A;stroke-width:60;stroke-miterlimit:10;}
	.st9{fill:none;stroke:#1C1B1A;stroke-width:60;stroke-miterlimit:10;}
	.st10{stroke:#FFFFFF;stroke-width:0.998;stroke-miterlimit:10;}
	.st11{stroke:#FFFFFF;stroke-width:60;stroke-miterlimit:10;}
	.st12{stroke:#FFFFFF;stroke-miterlimit:10;}
	.st13{fill:none;}
	.st14{fill:#1C1B1A;}
</style>
<g id="Ebene_1" class="st0">
</g>
<g id="Ebene_2">
	<g>
		<g>
			<path class="st12" d="M297.2,169.9c1,5.3,1.5,10.7,1.5,16.2c0,6.8-0.8,13.4-2.2,19.8h62.9v-36H297.2z"/>
			<path class="st12" d="M116.4,186.1c0-5.6,0.6-11,1.5-16.2H50.7v36h67.9C117.2,199.5,116.4,192.9,116.4,186.1z"/>
		</g>
		<g>
			<path class="st12" d="M282.7,237.6c-6.9,10-15.7,18.5-25.8,25.1l45.5,45.5l25.5-25.5L282.7,237.6z"/>
			<path class="st12" d="M156.1,111l-46.9-46.9L83.7,89.5l47.3,47.3C137.6,126.6,146.1,117.8,156.1,111z"/>
		</g>
		<g>
			<path class="st12" d="M207.5,95c6.2,0,12.2,0.6,18,1.8V31.3h-36v65.5C195.4,95.6,201.4,95,207.5,95z"/>
			<path class="st12" d="M207.5,277.3c-6.2,0-12.2-0.6-18-1.8V340h36v-64.5C219.7,276.7,213.7,277.3,207.5,277.3z"/>
		</g>
		<path class="st12" d="M207.5,120.7c-36.1,0-65.5,29.4-65.5,65.5c0,36.1,29.4,65.5,65.5,65.5c36.1,0,65.5-29.4,65.5-65.5
			C273,150,243.6,120.7,207.5,120.7z"/>
		<g>
			<path class="st12" d="M284.1,136.8l46.3-46.3L304.9,65L259,111C269,117.8,277.5,126.6,284.1,136.8z"/>
			<path class="st12" d="M132.4,237.6L87,283l25.5,25.5l45.7-45.7C148,256.1,139.2,247.6,132.4,237.6z"/>
		</g>
	</g>
	<path d="M813.9,118.9c0.4-48.5,39.8-87.7,88.4-87.7c48.8,0,88.4,39.6,88.4,88.4c0,0.2,0,0.5,0,0.7c6.4-1.5,13.1-2.2,19.9-2.2
		c48.8,0,88.4,39.6,88.4,88.4s-39.6,88.4-88.4,88.4c-0.1,0-0.3,0.1-0.3,0.1l-178.9-0.2c-1.8,0.1-3.7,0.2-5.6,0.2
		c-48.8,0-88.4-39.6-88.4-88.4C737.5,161.8,770.8,124.8,813.9,118.9z"/>
	<g>
		<path d="M483.3,464.1c-69.5-34.9-111.5-83.2-115.6-105.7c74.3,94.1,263.4,126.5,280.9,122.5C593.6,493.6,536.3,490.6,483.3,464.1
			 M507.7,342.5c-2.3,2.8-3.9,6.2-4.4,10.1c-1.3,11,6.8,21,18.3,22.4c11.4,1.4,21.8-6.3,23.1-17.3c0.9-7.4-2.5-14.4-8.4-18.6
			c2.3-0.2,4.6-0.3,7-0.4c28.2-1,49.7,8.4,49.7,8.4s-3,39.3-47.7,40.6c-41.2,1.2-54.5-41.7-54.5-41.7S497.4,344.3,507.7,342.5
			 M616.2,342.3c-2.5,2.8-4.1,6.3-4.6,10.3c-1.3,11,6.8,21,18.3,22.4c11.4,1.4,21.8-6.3,23.1-17.3c0.9-7.5-2.6-14.5-8.5-18.7
			c2-0.1,3.9-0.2,5.9-0.3c28.2-1,49.7,8.4,49.7,8.4s-3,39.3-47.7,40.6c-41.2,1.2-54.5-41.7-54.5-41.7S605.1,344.1,616.2,342.3
			 M707.7,793.6c30.6,4.5,37.6-150.7,59.2-145.4c20.7,5.1,79.7,24.1,96.8-3.4c5.1-8.2,16.9-23,4.1-30.1c-14.2-5.8-11,14.5-13.7,20.2
			c-7.6,16.1-14.9,3.4-9-5.7c10.1-15.6,19.1-26.2,5-30.2c-14.1-2-9.7,12.3-14.5,25.5c-9.2,25.5-22.4,16.1-8.7-4
			c5.8-8.4,16.2-24.7,2.1-29.4c-16.5-4.7-13.3,17.3-16.6,24.1c-8,16.4-23.8-5.4-39.2-2.9c-58.4,9.6-61.8,116.6-61.9,116.5
			c-20.8-22,21.8-166.1-64.2-178.2c-0.1-0.2-0.2-0.3-0.2-0.5c32.3,7.4,117.7,26.5,136.8,25c33.3-2.7,21.6-36.9,2.7-36.9
			c25.2,0,25.2-42.2-9-36.9c-20.1,3.2-75.3,17.7-116.2,26.6c47.9-11.9,95.4-33.1,118.6-57.9c31.8-34.1,62.4-81.2,51-128.2
			c-41.2,25-130.9-3.7-131.1-8.8C698.4,307.8,682,276,642,276c-45,0-48.4,26.9-53.4,49.5c-3.9-22.1,1.7-47.1-51.3-49.5
			c-64.7,0-36.3,52.9-47.6,59.5c-51.9,30.6-139.1,6.3-139.2,6.9c-7.3,40.1,10.4,77,46.5,115.1c24.2,25.6,65.7,48.9,106.6,64
			c-38.5-9.8-90.4-22.8-113.6-22.8c-40.4,0-31.2,39.7-11.4,40.3c-24.8,2.4-23.8,40,7.5,40c26.6,0,109.9-21.3,146.5-30.4
			c-0.1,0.6-0.2,1.3-0.3,1.9c-88.2,10.6-45,156.3-65.9,178.5c-0.1,0.1-3.5-106.9-61.9-116.5c-15.4-2.5-31.2,19.3-39.2,2.9
			c-3.3-6.8-5.9-28.7-20.4-22.3c-13,8.1,0.1,19.2,5.9,27.6c13.7,20,0.5,29.4-8.7,4c-4.8-13.2-3.7-30.3-14.5-25.5
			c-16.8,8.2-5.1,14.5,5,30.2c5.9,9.1-1.4,21.8-9,5.7c-2.7-5.7-2-26.5-17.3-19.1c-14.9,8.4,2.5,20.8,7.7,29
			c17.1,27.5,76.1,8.5,96.8,3.4c21.5-5.3,28.6,149.8,59.2,145.4c16-0.6,32.7-34.5,45.1-68.1c8.2,19.4,16.6,37.7,19.6,48
			c7.4,24.9-49.5,41.1-75.1,46c-74.1,14.1-97.6,67.1-114.1,81.2c-4.6,4-14.1,4.7-14.1,14.1c0,4.8,2.8,6.9,16.5,11.8
			c16.5,5.9,55.3,54.1,98.8,70.6c23.9,9,43.2,11.6,51.6,19.9c2.8,2.8,4.5,4.9,4.9,6c-37.6,15.3-138.5,35.8-145.6,36.4
			c-18.2,1.6-22.1-10.3-30.6-10.6c-9.2-0.3-13.3,7.9-13.2,14c0.4,5.3,4.4,8.4,10.6,10.1c20,5.6,62.6-3.9,78.4-4.1
			c20.3-0.2,0.1-1.1,20.4,0c31.6,1.7,102.2,5.2,130.2-12.9c12.8-8.3-22.9-16.8-29.4-30.6c0,0,5.1-9.7,5.7-24.9
			c1-25.3-11.8-42.4-80.6-78.6c47.6,8.3,102.8,9.4,138.2-43.7c35.5,53,90.6,52,138.2,43.7c-68.8,36.2-81.6,53.3-80.6,78.6
			c0.6,15.2,5.7,24.9,5.7,24.9c-6.5,13.8-42.2,22.3-29.4,30.6c27.9,18.1,98.5,14.7,130.2,12.9c20.3-1.1,0.1-0.2,20.4,0
			c15.8,0.2,58.4,9.7,78.4,4.1c6.1-1.7,10.1-4.9,10.6-10.1c0.1-6.1-4-14.3-13.2-14c-8.5,0.3-12.4,12.2-30.6,10.6
			c-7.1-0.6-108-21.1-145.6-36.4c0.5-1.1,2.1-3.2,4.9-6c8.3-8.4,27.6-10.9,51.6-19.9c43.5-16.5,82.4-64.7,98.8-70.6
			c13.6-4.9,16.5-6.9,16.5-11.8c0-9.4-9.5-10.1-14.1-14.1c-16.5-14.1-40-67.1-114.1-81.2c-25.5-4.9-73.6-18.8-75.3-44.7
			c-0.8-12.9,11.6-33,22.9-49.3C675,759.1,691.6,793,707.7,793.6"/>
	</g>
</g>
</svg>
