<?xml version="1.0" encoding="utf-8"?>
<!-- Generator: Adobe Illustrator 26.0.1, SVG Export Plug-In . SVG Version: 6.00 Build 0)  -->
<svg version="1.1" xmlns="http://www.w3.org/2000/svg" xmlns:xlink="http://www.w3.org/1999/xlink" x="0px" y="0px"
	 viewBox="0 0 1152 1127" style="enable-background:new 0 0 1152 1127;" xml:space="preserve">
<style type="text/css">
	.st0{display:none;}
	.st1{display:inline;}
	.st2{fill:#FFFFFF;}
	.st3{display:inline;fill:#FFFFFF;}
	.st4{fill:none;stroke:#000000;stroke-width:50;}
	.st5{stroke:#000000;stroke-width:50;}
	.st6{stroke:#FFFFFF;stroke-width:50;}
	.st7{display:inline;stroke:#1C1B1A;stroke-width:60;stroke-miterlimit:10;}
	.st8{fill:#FFFFFF;stroke:#1C1B1A;stroke-width:60;stroke-miterlimit:10;}
	.st9{fill:none;stroke:#1C1B1A;stroke-width:60;stroke-miterlimit:10;}
	.st10{stroke:#FFFFFF;stroke-width:0.998;stroke-miterlimit:10;}
	.st11{stroke:#FFFFFF;stroke-width:60;stroke-miterlimit:10;}
	.st12{stroke:#FFFFFF;stroke-miterlimit:10;}
	.st13{fill:none;}
	.st14{fill:#1C1B1A;}
</style>
<g id="Ebene_1" class="st0">
</g>
<g id="Ebene_2">
	<path id="Pfad_465_00000014608770486409066590000002551915675213521307_" d="M894.6,204.6L894.6,204.6l-0.1,0l0,0
		c-9.2,6-14.8,16.2-14.8,27.2c0,17.9,14.5,32.4,32.4,32.4c12.4,0,23.6-7,29.1-18.1l0,0l0-0.1c1-1.9,1.7-4,2.2-6.1l24.4-66.3
		l-63.5,26.9C900.8,201.3,897.5,202.7,894.6,204.6"/>
	<path id="Pfad_465_00000081643979618237251370000008340475535004486070_" d="M982.6,874.6L982.6,874.6l-0.1,0l0,0
		c-9.2,6-14.8,16.2-14.8,27.2c0,17.9,14.5,32.4,32.4,32.4c12.4,0,23.6-7,29.1-18.1l0,0l0-0.1c1-1.9,1.7-4,2.2-6.1l24.4-66.3
		l-63.5,26.9C988.8,871.3,985.5,872.7,982.6,874.6"/>
	<path id="Pfad_469_00000138568150151836410930000004320175121151421829_" d="M265,158.9L265,158.9l-0.1,0l0,0
		c-9.2,6-14.8,16.2-14.8,27.2c0,17.9,14.5,32.4,32.4,32.4c12.4,0,23.6-7,29.1-18.1l0,0l0-0.1c1-1.9,1.7-4,2.2-6.1l24.4-66.3
		l-63.5,26.9C271.2,155.7,267.9,157.1,265,158.9"/>
	<path id="Pfad_469_00000129202168955266860570000002365040479460970932_" d="M164,430.9L164,430.9l-0.1,0l0,0
		c-9.2,6-14.8,16.2-14.8,27.2c0,17.9,14.5,32.4,32.4,32.4c12.4,0,23.6-7,29.1-18.1l0,0l0-0.1c1-1.9,1.7-4,2.2-6.1l24.4-66.3
		l-63.5,26.9C170.2,427.7,166.9,429.1,164,430.9"/>
	<path id="Pfad_469_00000140011554400968645870000013115458044900891805_" d="M66,660.9L66,660.9l-0.1,0l0,0
		c-9.2,6-14.8,16.2-14.8,27.2c0,17.9,14.5,32.4,32.4,32.4c12.4,0,23.6-7,29.1-18.1l0,0l0-0.1c1-1.9,1.7-4,2.2-6.1l24.4-66.3
		l-63.5,26.9C72.2,657.7,68.9,659.1,66,660.9"/>
	<path id="Pfad_469_00000150790530837899286950000000823735880034867134_" d="M208,751.9L208,751.9l-0.1,0l0,0
		c-9.2,6-14.8,16.2-14.8,27.2c0,17.9,14.5,32.4,32.4,32.4c12.4,0,23.6-7,29.1-18.1l0,0l0-0.1c1-1.9,1.7-4,2.2-6.1l24.4-66.3
		l-63.5,26.9C214.2,748.7,210.9,750.1,208,751.9"/>
	<path id="Pfad_469_00000040533150323812950340000009140056837229806762_" d="M110,948.9L110,948.9l-0.1,0l0,0
		c-9.2,6-14.8,16.2-14.8,27.2c0,17.9,14.5,32.4,32.4,32.4c12.4,0,23.6-7,29.1-18.1l0,0l0-0.1c1-1.9,1.7-4,2.2-6.1l24.4-66.3
		l-63.5,26.9C116.2,945.7,112.9,947.1,110,948.9"/>
	<path id="Pfad_470_00000176021741041020789860000011798951286164098988_" d="M66,78L66,78l-0.1,0l0,0c-9.2,6-14.8,16.2-14.8,27.2
		c0,17.9,14.5,32.4,32.4,32.4c12.4,0,23.6-7,29.1-18.1l0,0l0-0.1c1-1.9,1.7-4,2.2-6.1l24.4-66.3L75.7,73.9C72.3,74.7,69,76.1,66,78"
		/>
	<path id="Pfad_474_00000111879295227541136210000017680984806699104413_" d="M995.5,340.3L995.5,340.3l-0.1,0l0,0
		c-9.2,6-14.8,16.2-14.8,27.2c0,17.9,14.5,32.4,32.4,32.4c12.4,0,23.6-7,29.1-18.1l0,0l0-0.1c1-1.9,1.7-4,2.2-6.1l24.4-66.3
		l-63.5,26.9C1001.8,337,998.5,338.4,995.5,340.3"/>
	<path id="Pfad_474_00000041985603814035356060000014222607901919749020_" d="M881.5,706.3L881.5,706.3l-0.1,0l0,0
		c-9.2,6-14.8,16.2-14.8,27.2c0,17.9,14.5,32.4,32.4,32.4c12.4,0,23.6-7,29.1-18.1l0,0l0-0.1c1-1.9,1.7-4,2.2-6.1l24.4-66.3
		l-63.5,26.9C887.8,703,884.5,704.4,881.5,706.3"/>
	<path id="Pfad_474_00000076571449024492043740000013762086593946294660_" d="M982.5,521.3L982.5,521.3l-0.1,0l0,0
		c-9.2,6-14.8,16.2-14.8,27.2c0,17.9,14.5,32.4,32.4,32.4c12.4,0,23.6-7,29.1-18.1l0,0l0-0.1c1-1.9,1.7-4,2.2-6.1l24.4-66.3
		l-63.5,26.9C988.8,518,985.5,519.4,982.5,521.3"/>
	<path id="Pfad_477_00000052072047593530511660000014162064271325006218_" d="M1045.5,90.3L1045.5,90.3l-0.1,0l0,0
		c-9.2,6-14.8,16.2-14.8,27.2c0,17.9,14.5,32.4,32.4,32.4c12.4,0,23.6-7,29.1-18.1l0,0l0-0.1c1-1.9,1.7-4,2.2-6.1l24.4-66.3
		l-63.5,26.9C1051.7,87.1,1048.5,88.5,1045.5,90.3"/>
	<path id="Pfad_478_00000066513738731775219540000012712610821124339360_" d="M728.7,78.9L728.7,78.9l-0.1,0l0,0
		c-9.2,6-14.8,16.2-14.8,27.2c0,17.9,14.5,32.4,32.4,32.4c12.4,0,23.6-7,29.1-18.1l0,0l0-0.1c1-1.9,1.7-4,2.2-6.1l24.4-66.3
		l-63.5,26.9C734.9,75.7,731.7,77,728.7,78.9"/>
	<path id="Pfad_480_00000109738638358813423790000003103334614540905619_" d="M76,282.3L76,282.3l-0.1,0l0,0
		c-9.2,6-14.8,16.2-14.8,27.2c0,17.9,14.5,32.4,32.4,32.4c12.4,0,23.6-7,29.1-18.1l0,0l0-0.1c1-1.9,1.7-4,2.2-6.1l24.4-66.3
		l-63.5,26.9C82.2,279.1,78.9,280.4,76,282.3"/>
	<path id="Pfad_482_00000088107005093485952030000001965246943283811235_" d="M433.4,90.6L433.4,90.6l-0.1,0l0,0
		c-9.2,6-14.8,16.2-14.8,27.2c0,17.9,14.5,32.4,32.4,32.4c12.4,0,23.6-7,29.1-18.1l0,0l0-0.1c1-1.9,1.7-4,2.2-6.1l24.4-66.3
		l-63.5,26.9C439.7,87.3,436.4,88.7,433.4,90.6"/>
	<g>
		<path d="M461.3,403.1c-76.5-38.4-122.8-91.7-127.3-116.4c81.9,103.6,290.1,139.4,309.3,134.9C582.8,435.6,519.6,432.4,461.3,403.1
			 M488.2,269.3c-2.6,3.1-4.3,6.9-4.9,11.1c-1.5,12.1,7.5,23.1,20.1,24.7c12.6,1.5,24-7,25.5-19c1-8.2-2.8-15.9-9.3-20.5
			c2.5-0.2,5.1-0.3,7.7-0.4c31-1.1,54.8,9.2,54.8,9.2s-3.3,43.3-52.5,44.7c-45.3,1.3-60-45.9-60-45.9S476.8,271.2,488.2,269.3
			 M607.6,269c-2.7,3.1-4.5,7-5.1,11.3c-1.5,12.1,7.5,23.1,20.1,24.7c12.6,1.5,24-7,25.5-19c1-8.2-2.8-15.9-9.4-20.5
			c2.1-0.1,4.3-0.2,6.5-0.3c31-1.1,54.8,9.2,54.8,9.2s-3.3,43.3-52.5,44.7c-45.3,1.3-60-45.9-60-45.9S595.4,271,607.6,269
			 M708.4,766c33.7,4.9,41.5-165.9,65.1-160.1c22.7,5.6,87.7,26.5,106.6-3.8c5.6-9.1,18.6-25.4,4.5-33.2
			c-15.6-6.4-12.1,15.9-15.1,22.2c-8.4,17.7-16.4,3.7-9.9-6.3c11.1-17.2,21.1-28.9,5.5-33.2c-15.5-2.1-10.7,13.6-16,28.1
			c-10.2,28-24.7,17.7-9.6-4.4c6.3-9.3,17.8-27.2,2.3-32.3c-18.1-5.2-14.6,19.1-18.2,26.5c-8.8,18.1-26.2-6-43.2-3.2
			c-64.3,10.6-68.1,128.4-68.2,128.3c-22.9-24.2,24-182.9-70.7-196.3c-0.1-0.2-0.2-0.4-0.2-0.6c35.5,8.2,129.7,29.2,150.7,27.5
			c36.6-3,23.8-40.6,3-40.6c27.7,0,27.7-46.5-9.9-40.6c-22.1,3.5-83,19.5-128,29.3c52.8-13.1,105.1-36.4,130.6-63.8
			c35-37.6,68.7-89.4,56.2-141.2c-45.4,27.6-144.1-4.1-144.4-9.7c-1.3-27.8-19.3-62.9-63.4-62.9c-49.5,0-53.3,29.6-58.8,54.5
			c-4.3-24.3,1.8-51.9-56.5-54.5c-71.3,0-40,58.2-52.4,65.5c-57.1,33.7-153.2,7-153.3,7.6c-8,44.2,11.5,84.8,51.2,126.7
			c26.6,28.2,72.3,53.9,117.4,70.4c-42.4-10.8-99.5-25.2-125.1-25.2c-44.5,0-34.4,43.7-12.6,44.4c-27.3,2.7-26.2,44.1,8.2,44.1
			c29.3,0,121.1-23.4,161.3-33.5c-0.1,0.7-0.2,1.4-0.3,2.1c-97.1,11.7-49.5,172.1-72.5,196.5c-0.1,0.1-3.9-117.7-68.2-128.3
			c-16.9-2.8-34.3,21.3-43.2,3.2c-3.6-7.5-6.5-31.6-22.5-24.6c-14.4,8.9,0.1,21.2,6.5,30.4c15.1,22,0.6,32.4-9.6,4.4
			c-5.3-14.5-4.1-33.4-16-28.1c-18.5,9.1-5.6,16,5.5,33.2c6.5,10-1.5,24-9.9,6.3c-3-6.3-2.2-29.2-19-21c-16.4,9.2,2.8,22.9,8.4,31.9
			c18.9,30.3,83.8,9.4,106.6,3.8c23.7-5.8,31.4,165,65.1,160.1c17.6-0.7,36-37.9,49.6-75c9,21.3,18.3,41.6,21.6,52.9
			c8.1,27.4-54.6,45.3-82.7,50.6c-81.6,15.5-107.5,73.8-125.7,89.4c-5.1,4.4-15.5,5.2-15.5,15.5c0,5.3,3.1,7.6,18.1,13
			c18.1,6.5,60.9,59.6,108.8,77.7c26.3,10,47.6,12.7,56.8,21.9c3.1,3.1,4.9,5.4,5.4,6.6c-41.5,16.8-152.5,39.4-160.4,40.1
			c-20,1.7-24.4-11.4-33.7-11.7c-10.1-0.3-14.7,8.7-14.5,15.5c0.5,5.8,4.9,9.3,11.6,11.2c22,6.2,69-4.3,86.3-4.5
			c22.4-0.2,0.1-1.2,22.5,0c34.8,1.9,112.6,5.7,143.3-14.3c14.1-9.2-25.3-18.5-32.4-33.7c0,0,5.6-10.7,6.3-27.4
			c1.1-27.9-13-46.7-88.7-86.6c52.4,9.1,113.2,10.3,152.2-48.1c39,58.4,99.8,57.2,152.2,48.1c-75.8,39.9-89.8,58.7-88.7,86.6
			c0.7,16.7,6.3,27.4,6.3,27.4c-7.1,15.1-46.5,24.5-32.4,33.7c30.7,20,108.5,16.1,143.3,14.3c22.3-1.2,0.1-0.2,22.5,0
			c17.4,0.2,64.3,10.7,86.3,4.5c6.7-1.9,11.1-5.4,11.6-11.2c0.2-6.7-4.4-15.8-14.5-15.5c-9.3,0.3-13.7,13.4-33.7,11.7
			c-7.8-0.7-118.9-23.2-160.4-40.1c0.5-1.2,2.4-3.5,5.4-6.6c9.2-9.2,30.4-12,56.8-21.9c47.9-18.1,90.7-71.3,108.8-77.7
			c15-5.4,18.1-7.6,18.1-13c0-10.4-10.4-11.2-15.5-15.5c-18.1-15.5-44-73.8-125.7-89.4c-28.1-5.4-81.1-20.7-82.9-49.2
			c-0.9-14.2,12.8-36.3,25.2-54.3C672.3,728,690.7,765.3,708.4,766"/>
	</g>
</g>
</svg>
