<?xml version="1.0" encoding="utf-8"?>
<!-- Generator: Adobe Illustrator 26.0.1, SVG Export Plug-In . SVG Version: 6.00 Build 0)  -->
<svg version="1.1" xmlns="http://www.w3.org/2000/svg" xmlns:xlink="http://www.w3.org/1999/xlink" x="0px" y="0px"
	 viewBox="0 0 1152 1127" style="enable-background:new 0 0 1152 1127;" xml:space="preserve">
<style type="text/css">
	.st0{display:none;}
	.st1{display:inline;}
	.st2{fill:#FFFFFF;}
	.st3{display:inline;fill:#FFFFFF;}
	.st4{fill:none;stroke:#000000;stroke-width:50;}
	.st5{stroke:#000000;stroke-width:50;}
	.st6{stroke:#FFFFFF;stroke-width:50;}
	.st7{display:inline;stroke:#1C1B1A;stroke-width:60;stroke-miterlimit:10;}
	.st8{fill:#FFFFFF;stroke:#1C1B1A;stroke-width:60;stroke-miterlimit:10;}
	.st9{fill:none;stroke:#1C1B1A;stroke-width:60;stroke-miterlimit:10;}
	.st10{stroke:#FFFFFF;stroke-width:0.998;stroke-miterlimit:10;}
	.st11{stroke:#FFFFFF;stroke-width:60;stroke-miterlimit:10;}
	.st12{stroke:#FFFFFF;stroke-miterlimit:10;}
	.st13{fill:none;}
	.st14{fill:#1C1B1A;}
</style>
<g id="Ebene_1" class="st0">
</g>
<g id="Ebene_2">
	<g>
		<path d="M902.1,795.5c2-9.3,2.4-30.7-18.3-67.6c0,0,0,0,0,0l78.2,32.8c15.2,0,56.2-66.6,80.4-98.3c2.9-3.8,5.5-7,7.7-9.7
			c7.2-8.5,32.4-40.9,21.6-49.5c-5.1-4-19.6,2.7-33,22.7c-1.6,2.4,5.1-24.1,0-24.1c-4.3,0-12,35.2-12.7,36.1
			c-2.2,2.7-4.4,5.4-6.6,8.1c-29.9,37.1-61.1,78.8-65.4,77c-6.7-2.7-24.7-25.7-39.9-46.9c0.9-5.5-0.6-11.5-7.2-18.5
			c-3.2-3.4-6.8-5.9-10.8-7.8c-2.1-3.3-3.8-6-4.8-7.9c12.7-5.3,27.9,18.7,50.8-12c-33,5.3-20.6-25.1-8.9-42.8
			c-0.8,21.6,17.8,30.8,17.8,30.8l8.9-9.4c0,0,48.7,1.8,47,0c-8.9-9.4-17.1-39.8-9.8-50.9c5.7-8.6,7.5-22,6.6-35.5
			c0.7-2,1.4-4.2,1.8-6.3c7.4-35.1-26.9-73-76.5-84.6c-37.6-8.8-73.3,0.1-91.5,20.2c-23.2-9.9-45.2-16.7-78.6-16.7
			c-32.4,0-64.3,8.9-84.6,16c-17-7.5-31.8-13-55.8-13c-29.7,0-58.7,11.6-66.7,15c-4.5,1.9-4.5,7.9-0.3,10.3
			c8.5,4.8,37.3,21.3,59,23.2c22.9,2,41.7-1.3,55.5-6.1c19.2,10.4,53.3,27.4,80.5,29.9c33.1,2.9,60.7-1.3,81.7-8
			c7.7,20.5,21.9,37,48.5,47.9c-7,4.9-37.5,45.6-40.1,49.3c0,0-69.6-70.7-91.5-74.9c0,0-76.5,38.9-109.7,64
			c-33.8,25.5-17.2,37.6,20.8,12.2c3.9-5.1-5.5,12.3-0.2,13.5c8,1.8,10-19.3,11.6-20.1c10.1-5.5,77.5-33.4,77.5-33.4l56.4,85.6
			c-1.5,1.3-3.3,3.3-5.3,5.8c-17.4,0.2-35.5-1.7-53.9-8.6l-15.9-25l-6.2,6.5L702,608.4c0,0-23.1-4.9-44.6,27.5
			c-18.9,28.4-12.3,51.8-12.3,51.8l27.2,8.4l0.5,10.3l12.2,1.7c5.6,5.3,22.8,20.8,49.2,34.8c1.5,0.8,3,1.6,4.6,2.4
			c-23.5,41.9-43.9,80.7-43.7,80.3c0,0-46.6-61.3-64-100.3c0,0-11.6,8.2-12,7.1c0,0-5.6-17.9-7.9-25.3c-7.3-24,10.1-48.9,10.1-48.9
			c-4.1-7.3-39.2-11.4-92,14.2c-21.5,10.4-46.2,29.5-59.1,46.4c-0.3,0.5-0.5,2.3-0.6,4.3c0,0,0,0.1,0,0.1c-0.2,3.2,2.4,7,5.2,5.8
			c53.2-23.7,88.8-15.7,97.8-5.8c5.1,5.6,20.4,29,20.4,29s-15.9,10.3-17,12.9c-0.2,0.4,95.8,201.6,95.8,201.6
			c5,21.4,23.8,13.4,40.9-3.5c17.8-17.6,96.6-97.9,96.5-97.9l176.6,33.4c-30.5,30.8-52.1,54.8-64.8,68.2c0,0,15.5,12.9,15.2,13.4
			c-0.8,1.7-25.4,18.7-54.6,12c-8.1,9.1,28.1,67,63.5,84.2c16.5,8,59.2,16.6,70.5,13.8c1.5-0.3,6.1-7.3,7-8.4
			c5.1-6.7-22.9-0.1-52.1-30.8c-4.7-4.9-14-17.4-15.2-37.4c-0.1-1.9,3.3-14.1,4.7-15.6c0.4-0.5,6.8,7.6,6.8,7.6
			c27.9-29.4,80-93.6,101.6-121.7C1084.2,862.9,956.7,819.6,902.1,795.5z M972.8,518.5c5.7,4.7,8.1,12.7,8,20.3
			c-0.1,7.6-2.3,14.9-4.6,22.2c-2.5-1.7-6.7-5.4-11.5-9.8c5-1.3,8.7-6.1,8.7-11.8c0-6.7-5.2-12.1-11.5-12.1
			c-5.8,0-10.6,4.6-11.4,10.5c-7-6.8-12.6-12.3-12.6-12.3S963.4,510.6,972.8,518.5z M744,735.9c-18-9-32.1-19-41.4-26.4l37.9-55.6
			c16.3,5.8,32.5,8.1,47.9,8.6C776.3,680.1,759.7,708.1,744,735.9z M878.5,782.2c-0.1-0.1,1.8,1.4,4.4,3.7
			C880.7,784.5,879.2,783.2,878.5,782.2z"/>
		<path d="M508.8,1011.2c-6.4-0.2-17.8,8.8-17.8,8.8c0.3,0.1,48.5-84,68.1-130.9c7-16.7-16.5-32-30.3-41c0,0,25.4-18.3,22.8-22.1
			c-29.3-43.7-152.2-70.8-127.1-73.5c0.6-0.1,30.4-19.4,30.4-19.4c-3.8-2.2-30.2,2.7-49.1-8.2c-17.6-10.2-45.2-28.4-59.3-37.8
			c22-11.3,43.2-24.2,63.3-38.6c2.7-1.9,5.4-3.9,7.2-6.4c5-6.8,2.2-14.4-0.7-20.7c-11.6-24.8-21.6-50.5-29.9-76.8
			c-0.5-1.7-1.2-3.6-2.8-4.5c-1.6-0.9-4.7-0.4-5.7,1.4c-2.5-9.1-5-18.1-7.5-27.2c-2.2-7.9-4.4-15.9-8.9-22.7
			c-1.5-2.3-3.8-4.6-7.2-3.9c-3,0.6-5.3,3.3-6.5,5.9c-3.5,7.1-2.3,14.4-0.1,20.8c2.3,6.4,6.5,19.5,6.4,19.2c-2.4-3-5.6-5.4-9.2-7.3
			c-1-0.5-2.2-1-3.4-0.4c-2.3,1-1.8,3.8-0.8,5.5c4.7,7.8,9.9,15.3,15.5,22.5c-2.2,0.9-4.4,1.7-6.6,2.6
			c13.6,23.2,35.6,67.5,22.8,73.5c-7.3,3.5-31.2,15.6-35.9,17.9c-11.2,5.5-22.4,10.9-33.8,15.5c-8.1-1.5-12.6,0.5-14,2.3
			c-1.8,2.3,13.9-20.6,11.3-39.8c-2.2-16.7,1.4-9.3-26.9-5.8c-8,1-13.3-4.5-8.1-3.9c8.4,0.9,35.7-18.9,29.5-17.4
			c-14.4,3.3-24.2-17.8-24.2-17.8s24.3-22.6,29.7-27.9c-0.4-0.6-12.8-6.6-35.9-40.4c-3.5-5.2-5.5-16.2-14.1-25.3
			c-1.4-1.5,55.2-72.3,40.8-81.4c-10.7-6.8-43,18.1-79.5,54.3c-8.8-2.9-66.6-18.1-115.6,9.1c-13.4,58.7,21,108.5,27.5,117.6
			c-27.9,43-41.1,85.7-32.2,95c8.6,9,54.2-44.5,64.5-58.8c8.6,18.1,30.1,40.7,50,55.6c12.8,9.5,30,31.2,30,31.2
			c0.4,0.1-49.2,53.1-49.2,53.1s-18.5,31.6,6.7,40c15.7,5.2,62.4,1.1,97.2-3c2.1,19.3-3.6,45.9-19.1,48c-27.9,3.9-36,9.7-46.4,46.7
			l30.8,31.6c-5.7,6.9-22,26.5-22.6,26.1l-68.9-110c0,0,6.3,0.5,6.5-3.6c0.6-9.6-42.6-65.4-50.6-38.3
			c-0.2,0.7-34.5,177.3-34.5,177.3c19.2-24.5,46.5-61.7,62.9-89.8c2.4-4.4,0.1-21.2,1.2-19.2c8.3,14.5,60.1,124.7,69.7,137.6
			c19.8,26.9,42.9,16.7,62.5-10.4c7.3-10.1,11.2-15.6,17.6-24.4c0,0,25.1,28.1,31.5,26.1c39.2-12.3,38.7-107.9,57.4-151.9
			c35.7,29.3,18.2,65.7,52.4,84.8c7.2,4,44-38.3,44-38.3c4.7,3.7,10.5,10.8,13.8,12.8c-21.5,59.7-38.2,124.5-38.2,124.5
			s-12.8-7.2-14.1-0.9c-8.5,42-9.3,73.3,10.8,62.7l151.4-70.5C608.6,1021,534.2,1012.1,508.8,1011.2z M210.5,562.3
			C210.5,562.3,210.5,562.2,210.5,562.3c-1.4-0.1-2.4-0.1-2.7,0c-0.1,0,2.4-12.4,6.7-22.2c0.9,3.4,2.8,6.4,5.8,8.4
			c6.3,4.3,14.5,2.2,18.4-4.6c3.9-6.8,2-15.8-4.2-20.1c0,0-0.1-0.1-0.1-0.1c6.5-1,12.7,1.3,20.8,5.7c-2.5,8.1-5.2,14.3-11.1,20
			c-2.1,2.3-4.6,4.4-7.9,6.5C224.9,563.2,211.6,562,210.5,562.3z M223.1,770.6l37.6-33.3c0,0,8.7,16,16.2,30.1
			C252,770.3,227.1,772.4,223.1,770.6z"/>
	</g>
	<g>
		<rect x="49" y="58.1" class="st14" width="728.4" height="31.1"/>
	</g>
	<g>
		<rect x="239.1" y="111.2" class="st14" width="834.9" height="31.1"/>
	</g>
	<g>
		<rect x="239.1" y="323.9" class="st14" width="834.9" height="31.1"/>
	</g>
	<g>
		<rect x="49.5" y="164.4" class="st14" width="884.7" height="31.1"/>
	</g>
	<g>
		<rect x="354.8" y="217.6" class="st14" width="700.3" height="31.1"/>
	</g>
	<g>
		<rect x="84.3" y="270.7" class="st14" width="690.2" height="31.1"/>
	</g>
</g>
</svg>
