<?xml version="1.0" encoding="utf-8"?>
<!-- Generator: Adobe Illustrator 26.0.1, SVG Export Plug-In . SVG Version: 6.00 Build 0)  -->
<svg version="1.1" xmlns="http://www.w3.org/2000/svg" xmlns:xlink="http://www.w3.org/1999/xlink" x="0px" y="0px"
	 viewBox="0 0 1152 1127" style="enable-background:new 0 0 1152 1127;" xml:space="preserve">
<style type="text/css">
	.st0{display:none;}
	.st1{display:inline;}
	.st2{fill:#FFFFFF;}
	.st3{display:inline;fill:#FFFFFF;}
	.st4{fill:none;stroke:#000000;stroke-width:50;}
	.st5{stroke:#000000;stroke-width:50;}
	.st6{stroke:#FFFFFF;stroke-width:50;}
	.st7{display:inline;stroke:#1C1B1A;stroke-width:60;stroke-miterlimit:10;}
	.st8{fill:#FFFFFF;stroke:#1C1B1A;stroke-width:60;stroke-miterlimit:10;}
	.st9{fill:none;stroke:#1C1B1A;stroke-width:60;stroke-miterlimit:10;}
	.st10{stroke:#FFFFFF;stroke-width:0.998;stroke-miterlimit:10;}
	.st11{stroke:#FFFFFF;stroke-width:60;stroke-miterlimit:10;}
	.st12{stroke:#FFFFFF;stroke-miterlimit:10;}
	.st13{fill:none;}
	.st14{fill:#1C1B1A;}
</style>
<g id="Ebene_1" class="st0">
</g>
<g id="Ebene_2">
	<g>
		<rect x="49" y="58.1" class="st14" width="728.4" height="31.1"/>
	</g>
	<g>
		<rect x="239.1" y="111.2" class="st14" width="834.9" height="31.1"/>
	</g>
	<g>
		<rect x="41.1" y="323.9" class="st14" width="210.9" height="31.1"/>
	</g>
	<g>
		<rect x="906.1" y="323.9" class="st14" width="210.9" height="31.1"/>
	</g>
	<g>
		<rect x="947" y="376.9" class="st14" width="170" height="31.1"/>
	</g>
	<g>
		<rect x="49.5" y="164.4" class="st14" width="884.7" height="31.1"/>
	</g>
	<g>
		<rect x="839" y="217.6" class="st14" width="216.2" height="31.1"/>
	</g>
	<g>
		<rect x="117" y="217.6" class="st14" width="216.2" height="31.1"/>
	</g>
	<g>
		<rect x="185.3" y="270.7" class="st14" width="107.7" height="31.1"/>
	</g>
	<g>
		<rect x="1002.3" y="270.7" class="st14" width="85.7" height="31.1"/>
	</g>
	<g>
		<rect x="877" y="535.9" class="st14" width="240" height="31.1"/>
	</g>
	<g>
		<rect x="906.1" y="588.9" class="st14" width="133.9" height="31.1"/>
	</g>
	<g>
		<rect x="898" y="429.6" class="st14" width="170.3" height="31.1"/>
	</g>
	<g>
		<rect x="926.6" y="482.7" class="st14" width="95.4" height="31.1"/>
	</g>
	<g>
		<rect x="27" y="588.9" class="st14" width="170" height="31.1"/>
	</g>
	<g>
		<rect x="27" y="429.9" class="st14" width="240" height="31.1"/>
	</g>
	<g>
		<rect x="104" y="376.9" class="st14" width="133.9" height="31.1"/>
	</g>
	<g>
		<rect x="75.7" y="536.2" class="st14" width="170.3" height="31.1"/>
	</g>
	<g>
		<rect x="122" y="483.1" class="st14" width="95.4" height="31.1"/>
	</g>
	<g>
		<path d="M830.8,576.6c16.2-26.5,9-66.4-2.3-70.4c-4.6-1.6-33.8,41.3-34.7,44.2c-44.9-20.4-90.6,5.1-90.6,5.1
			c-7.5-9-35.6-61.2-43.7-38.5c-10.4,29.2-6.9,70.3,5,88.4c7.9-9.3,21.2-20.4,36.3-31.9c23.9-18.2,90.2-34.1,124.6,14
			C829.4,583.7,830.4,577.3,830.8,576.6"/>
		<path d="M785.4,327.9c0.5-0.3,0.4-0.6,0.4-0.2c0,0.3,0.1,0.5,0.2,0.8c0.7,0.8,1.4,1.6,2.1,2.4c0.5-0.7,1.5-1.5,3.6-2
			c12.7-2.9,27.9-18.2,33.5-29.8c-13.8-13.4-31.9-22.4-52.2-27.7c-2.7,10.1-7.8,24.8-14.4,35.6C769.1,312.4,777.5,319.2,785.4,327.9
			"/>
		<path d="M706,497.9c13.6,5.9,27.7,9.8,42.2,11.1c0,0,0.1,0,0.1,0c3.9,0,7.6-0.2,11.2-0.5c-8-12-16-32.5-9.1-51.1
			c-11.3,0.2-22.1-1.8-32.5-5.5C711,464.6,707.2,483.4,706,497.9"/>
		<path d="M799.5,346.2c5,12.4,8.1,23.4,9.7,33.2c0.5,0.1,1,0.2,1.6,0.4c13.8,4.3,37.8-3,47-11.1c-2.8-16-8-31.8-15.4-46.3
			c-1.2-2.3-2.4-4.4-3.8-6.6c-13.9,16-31.5,22.5-42.7,25.3C797.1,342.8,798.3,344.5,799.5,346.2"/>
		<path d="M810.6,393.3c0.4,15-3.2,26.5-8.5,35.4c3.5,17.7,27.3,24.7,45.2,25.4c9.3-18.3,13.4-39.6,12.9-61.3
			C840.6,400.1,822.2,396.8,810.6,393.3"/>
		<path d="M687.1,488.5c3.5-12.6,10.8-30.3,18.9-40.3c0.2-0.3,0.2-0.8,0.6-0.8c0.1,0,0.2,0,0.3,0c-10.5-5.1-20.6-11.8-30.4-19.8
			c-11.4,7.2-22.9,20.3-31,31.7C659,470.3,672.8,480.3,687.1,488.5"/>
		<path d="M834.3,473.6c-12.5-2.6-34.6-13.1-42.2-32.5c-12.7,11.9-27.3,15-27.3,15c-0.3,0.1-0.6,0.1-0.9,0.2
			c-6,15.4,8.9,38.4,17.8,48.9C804.4,499.6,821.7,488.4,834.3,473.6"/>
		<path d="M708.2,292c14.1,2.5,25.8,5.4,35.7,8.8c5.1-10.2,9.7-21.9,9.3-33.3c-13.9-2-28.5-2.4-43.2-1.6
			c-15.5,0.9-34.5-1.3-37.8,8.7C666.9,290.8,687.4,289.1,708.2,292"/>
		<path d="M421.5,326.6c13.9-6.9,31.1-9.5,44.9-7.1c10.8-19.2,20.8-42.3,12.9-64.4c-32.7-9.6-64.4-5.8-90.3,7.2
			C406.3,276.1,416.9,304.8,421.5,326.6"/>
		<path d="M392,367.2c1.7-7.2,4.4-14.4,8.5-21.7c1.2-2.1,2.6-4.1,4.2-6c-8.2-21.8-19.6-48.2-43.6-57.4
			c-21.2,20.2-34.1,48.3-33.6,79.6C344.7,354.7,378.5,358.8,392,367.2"/>
		<path d="M558.8,302.5c-16.5-15.6-33.6-28.5-51.9-36.1c-0.2-0.1-0.4-0.2-0.6-0.3c-0.5,19.6-9.5,42.7-20.2,59.4
			c14.3,6,28.6,15.5,43.1,27C544,339.3,557.9,323,558.8,302.5"/>
		<path d="M630,446.1c8.5-9,18.6-25.1,31.2-30.6c-12.8-11.6-20.1-21.5-32.4-35.4c-7.4,11.9-22.7,25.2-34.4,32.7
			C606,424,617.9,435.4,630,446.1"/>
		<path d="M580.3,399.1c11.1-3.9,31.1-22.4,36.8-32.5c-11.7-13.6-23.3-27.3-35.1-40.3c-8.4,14.9-22.8,29.3-36.7,39.8
			C556.8,376.3,568.5,387.5,580.3,399.1"/>
		<path d="M874.8,705.5c3.7-3.7,3.6-11.9-19.1-26.3c-8.1-5.1-28.3-26.9-31-31c-2.7-4.1-4.7-7.7-6.1-11.1c-1.4,0.9-2.9,1.8-4.6,2.4
			c-7.9,3.1-20.6,2.5-28.4,0c-9.4-3-13-6-12.2-16.2c1-12.3,7.8-33.5,13.5-39.2c1.7-1.7,3.4-3.2,5.1-4.5c-0.7-0.3-1.5-0.5-2.3-0.7
			c-24.3-6.6-47.5-0.8-68.8,11.7c8,1.9,16,7.3,21.2,11.8c8,7,18.5,16.9,21.8,27.3c0.6,2.4,2.9,5.5-1.1,11
			c-4.2,5.7-10.9,10.1-17.4,12.8c-14.4,5.9-28,9.7-43.1,3.8c-12.4-4.9-16.6-20.2-14.3-32.4c0.7-3.7,2-8.1,3.9-12.6
			c-6.9,6.2-13.6,12.9-19.9,19.8c-3.2,15.2,0,36.2,0.4,37.8c-56.7,21.5-106.7-145.5-122.1-174.1c-15.3-28.6-34.5-55.3-58.9-76.4
			c-13.3-11.4-30.1-18.6-47.5-20.3c-17.4-1.7-50.7,10.8-50.7,10.8c-1.7-7.8-2.8-15.2-3-22.2c-15-9.3-46.8-13.9-59,0.9
			c3.5,13.5,9.5,27.3,18.4,41.1c-151.6,144.1,120.2,356.6-36.6,543c-2.5,2.9-5,4.8-5.4,8.7c-0.3,3.4,1.2,6.1,3,9.5
			c10.7,20.9,23.8,63.6,44,71.5c4.1,1.6,20.3,0,28.6,0h8.4c3.6,0,8.8-1.3,6-8.4c-2.4-6-28.6-2.4-38.2-8.4
			c-7.3-4.6-11.9-21.5-11.9-21.5s8.1,9.4,15.5,15.5c7.2,6,39.4,3.6,41.8,13.1c1.2,4.7,2.5,9.6,8.4,9.6c6,0,6.7-7.5,6-11.9
			c-1.5-9.5-22.4-12.8-44.2-21.5c-6-2.4-9.6-15.5-9.6-15.5s7.4,8.7,17.9,11.9c15.5,4.8,32.2,9.6,39.4,16.7c3.1,3.1,3.9,8.1,3.6,13.1
			c-0.2,2.7-1.2,8.4,7.2,7.2c4.9-0.7,6-8.6,6-11.9c0-11.9-14.8-24.5-26.3-28.6c-13.1-4.8-28-9.3-28-9.3s3.3-0.2,7.7-0.2
			c8.4,0,29.8,3.7,29.8-4.8c0-9.5-55.9-2.2-60.6-9.4c-1.1-1.8-6.9-10.7-8.1-14.3c27.8-18.3,88.1-78.9,101.8-111.9
			c17.9-43.1,5.4-76.4,1.9-119.1c17.8,35.1,35.9,65.9,32.8,90.1c-10.3,82.6-24.1,132.8-31.3,155.2c-6.1,19.1-11.8,38-4.6,45.4
			c6.9,7.2,26.6,17.7,41.9,17.7c12.7,0,35.2,3,35.8-1.2c1.2-8.4-23.9-9.5-23.9-9.5s10.7-3.6,27.9,2.8c7.9,3,6.7,9.1,13.8,9.1
			c6,0,1.2-14.3-9.6-17.9c-14.5-4.8-31.5-5.6-31.5-5.6s20.2-4.1,37.5,2.1c10.1,3.6,10.7,21.5,17.9,21.5c6,0-2.4-26.3-16.7-31
			c-14.6-4.9-32.2-4.8-32.2-4.8s30.8-3,38.2,0c20.3,8.4,15.5,35.8,23.9,35.8c5.3,0,3.2-36-17.9-44.2c-20.2-7.8-75.9,1.6-75.1-5.8
			c1.1-2.6,2.3-5.3,3.5-7.9c24.8-54.1,72.3-91.2,84.5-161.1c2.7-15.4-16.2-83-20.2-93.3c31.6,16.3,54,24.4,89.3,25.8
			c-8.5,37.5-68.1,127.2-69,144.7c-0.8,14.7,4.4,36.5,10.3,49.9c15.4,34.9,52,71.7,54.4,74c0,0,13.3,17.5,21.2,17.5
			c19.2,0,4.7-24.8,26.4-24.8c1.2,0,1.2,11.9,0,16.7c-0.4,1.7-6,1.2-7.2,3.6c-1.7,3.4,1.7,4.8,3.6,4.8c7.2,0,10.2-1.1,11.9-8.4
			c8.4-34.6-8.4-29.8-8.4-29.8c0-1.3,5.4-7.2,10.7-7.2c2.4,0,6,1.2,6,7.6c0,0.7,0.7,17.4,0,28.2c-0.2,3.6-4.3,4.6-4.8,8.4
			c-0.3,2.2,11.9,3.6,11.9-8.4c0-6.7,0.9-24.3,0.9-29c0-23.5-12.2-15.6-12.1-16.1c0.3-3.1,9.8-10.8,14.8-6.1
			c3,2.8,2.5,15.9,2.6,20.5c0.1,4.4-0.2,24.9-0.2,29.7c0,4.8-4.8,6-4.8,9.6c0,3.6,13.1,1.2,13.1-9.6c0-28.7,10.7-136-63.9-19.9
			c-1.1-1.9-13.7-65.9-40.7-98c19.9-18.7,74.7-107.3,74.7-107.3c17.3,37.3,38,57.3,56.5,94c11.1,22.1,24.3,54.9,25.5,58.5
			c1.2,3.7,4,45.4-4.3,70.3c-1.2,3.6-10.8,11.2-7.4,12.1c6.2,1,13.6,0.5,16.9-3.8c8.4-10.7,9.8-54.8,9.8-54.8s6.9,46.4,11.7,53.6
			c5,7.5,21.6,6.9,21.6,5.7c0-13.2-7.4-8.1-12.1-16.5c-8.5-15.4-9.7-51.2-9.7-51.2s9.8,32.1,20.2,53.1c5.8,11.7,22.4,16.7,26.2,13.5
			c0.2-11.9-11.9-8.3-16.7-18.5c-9.4-19.8-18.9-53.1-18.9-53.1s19.8,39.6,33.2,58c7.2,9.8,19.3,16.1,26.3,13.5
			c1.4-11.8-5.4-6.5-13.1-16c-24.8-30.4-50.9-85.9-51.4-88.8c-3.5-19.1-71.8-206.5-69.5-206.5c23.2,0,68.6,13,87.7-25.2
			c-37,0-62.3-16.7-71.6-37C765.8,698.3,852.1,728.1,874.8,705.5"/>
		<path d="M729.6,622.1c3.1-2.5,7.1-3.2,10.7-2.3c-2-3.6-4.4-6.5-7-7.7c-13.9-6.1-24.9,7.4-28.6,11.5c-0.1,0.9,5.5,12.3,9.4,15.8
			c4.7,4.2,12.4,5.6,19.7,4.3c-2.4-0.7-4.5-2.1-6.2-4.2C723.3,634.1,724.2,626.3,729.6,622.1"/>
		<path d="M819.6,603.7c0.1-0.5,0.1-1,0-1.3c-4.6-3.6-14.5-10.5-20.6-7.4c-10.8,5.4-13.3,20.7-12.2,29.8c0.3,0.7,18.9,8.8,27.2,2.4
			c-0.6-0.1-1.2-0.2-1.8-0.4c-6.3-2.1-9.7-9-7.6-15.3C806.8,605.2,813.4,601.8,819.6,603.7"/>
	</g>
</g>
</svg>
