<?xml version="1.0" encoding="utf-8"?>
<!-- Generator: Adobe Illustrator 26.0.1, SVG Export Plug-In . SVG Version: 6.00 Build 0)  -->
<svg version="1.1" xmlns="http://www.w3.org/2000/svg" xmlns:xlink="http://www.w3.org/1999/xlink" x="0px" y="0px"
	 viewBox="0 0 1152 1127" style="enable-background:new 0 0 1152 1127;" xml:space="preserve">
<style type="text/css">
	.st0{display:none;}
	.st1{display:inline;}
	.st2{fill:#FFFFFF;}
	.st3{display:inline;fill:#FFFFFF;}
	.st4{fill:none;stroke:#000000;stroke-width:50;}
	.st5{stroke:#000000;stroke-width:50;}
	.st6{stroke:#FFFFFF;stroke-width:50;}
	.st7{display:inline;stroke:#1C1B1A;stroke-width:60;stroke-miterlimit:10;}
	.st8{fill:#FFFFFF;stroke:#1C1B1A;stroke-width:60;stroke-miterlimit:10;}
	.st9{fill:none;stroke:#1C1B1A;stroke-width:60;stroke-miterlimit:10;}
	.st10{stroke:#FFFFFF;stroke-width:0.998;stroke-miterlimit:10;}
	.st11{stroke:#FFFFFF;stroke-width:60;stroke-miterlimit:10;}
	.st12{stroke:#FFFFFF;stroke-miterlimit:10;}
	.st13{fill:none;}
	.st14{fill:#1C1B1A;}
</style>
<g id="Ebene_1" class="st0">
</g>
<g id="Ebene_2">
	<g>
		<g>
			<path class="st12" d="M329.9,203.3c1,5.5,1.6,11.2,1.6,17c0,7.1-0.8,14-2.3,20.7H395v-37.7H329.9z"/>
			<path class="st12" d="M140.7,220.3c0-5.8,0.6-11.5,1.6-17H72V241h71.1C141.6,234.3,140.7,227.4,140.7,220.3z"/>
		</g>
		<g>
			<path class="st12" d="M314.8,274.2c-7.2,10.4-16.4,19.4-27,26.2l47.6,47.6l26.6-26.6L314.8,274.2z"/>
			<path class="st12" d="M182.3,141.6l-49.1-49.1l-26.6,26.6l49.5,49.5C162.9,158,171.8,148.8,182.3,141.6z"/>
		</g>
		<g>
			<path class="st12" d="M236.1,124.9c6.5,0,12.7,0.7,18.8,1.9V58.3h-37.7v68.5C223.4,125.6,229.7,124.9,236.1,124.9z"/>
			<path class="st12" d="M236.1,315.7c-6.5,0-12.7-0.7-18.8-1.9v67.5H255v-67.5C248.9,315,242.6,315.7,236.1,315.7z"/>
		</g>
		<path class="st12" d="M236.1,151.8c-37.8,0-68.5,30.7-68.5,68.5c0,37.8,30.7,68.5,68.5,68.5c37.8,0,68.5-30.7,68.5-68.5
			C304.6,182.5,273.9,151.8,236.1,151.8z"/>
		<g>
			<path class="st12" d="M316.2,168.7l48.4-48.4L338,93.6l-48,48C300.4,148.8,309.3,158,316.2,168.7z"/>
			<path class="st12" d="M157.5,274.2L110,321.6l26.6,26.6l47.8-47.8C173.9,293.5,164.6,284.6,157.5,274.2z"/>
		</g>
	</g>
	<g>
		<path d="M964.4,180.8c-12.2-0.7-22.6,8.7-23.3,20.9c-0.3,5.8,1.6,11.1,5,15.3l-47,22l6.1-50.6c12.1,0.5,22.3-8.8,23-20.9
			c0.7-12.2-8.7-22.6-20.9-23.3c-12.2-0.7-22.6,8.7-23.3,20.9c-0.5,8.2,3.6,15.6,10.1,19.8l-51.6,34.9l-13.3-57.9
			c9.4-2.1,16.7-10.2,17.2-20.3c0.7-12.2-8.7-22.6-20.9-23.3c-12.2-0.7-22.6,8.7-23.3,20.9c-0.6,11.6,7.7,21.5,19,23.1L792,237.9
			L919,294.4l32.5-72.8c3.1,1.9,6.6,3.1,10.5,3.3c12.2,0.7,22.6-8.7,23.3-20.9C986,191.9,976.6,181.5,964.4,180.8"/>
		<path d="M1028.7,878c-27.2,18.9-61.2,49-88.4,95.8c2.6-19.7-26.5-136.1-58-127.8c-6.2,16.7-11.4,24.4-11.4,24.4s-8.6-0.5-12.2-1.1
			c-55-9-108.8-24.3-156.4-48.3c-44.8-22.6-75.4-50.7-104.8-85.4c0,0.1,0,0.1,0,0.2c0,0.7-2.7,32.7-2.7,32.7
			c-10.9-77.5-63.9-126.5-87.1-123.8c-88.4,19-5.4,269.4-5.5,269.4l-54.4-53l65.3,114.3c0,0,10.3-6.1,12.2-21.8
			c1.4-10.9-4.2-18.6-4.1-19c20.5-59.4,6.6-109.3,5.4-143.2c5.5,16.7,27,110.2,87.1,120.1c-4.1-23.1-7.4-50-8.2-51.7
			c56.3,48.1,138.7,82.1,229.9,74.1c-2.3,4.2-5.1,8.6-8.1,13c2.2,3.7,63.9,106.7,104.7,93.8c85.7-27.2,111.5-144.1,111.5-144.1
			l47.6,74.7l-34.2-127.9C1041.8,842.8,1028.7,878,1028.7,878"/>
		<path d="M621,939.3c8.7,31.3,25.6,81.3,53.7,110.3c37.8-19.3,60.8-25.9,81.1-36.9C708.9,1002.3,631.8,956.7,621,939.3"/>
		<path d="M810,482.7c-19.5,0-35.4-15.8-35.4-35.4S790.4,412,810,412c19.5,0,35.4,15.8,35.4,35.4S829.5,482.7,810,482.7
			 M751.5,368.4c-10.5-8.5-25.9-43.5-25.9-43.5s42.6-7.2,53.1,1.4c10.5,8.5,27.2,39.4,27.2,43.5c0,0-7.9,1.3-17.9,2.1
			c2.5-3,4-6.8,4-11c0-9.4-7.6-17-17-17s-17,7.6-17,17c0,4.2,1.5,8,4.1,11C757.5,371.4,753.7,370.3,751.5,368.4 M763.5,276.5
			c-0.1,0-0.3,0.1-0.4,0.1C763.2,276.5,763.3,276.4,763.5,276.5 M1095.4,261c-10.9-72.1-31.3-112.9-47.6-117
			c-19.8-5-10.9,65.3-16.3,97.9c-2.3,13.7-23.1,17.7-32.6,19c-22.9,3.3-43.3,12.2-43.3,61.2c0,45.7,12.2,122.4,29.9,183.7
			c50.3,174.1-32.6,31.3-110.2,69.4c-2.7-10.9-6.8-23.1-8.2-32.6c37.3-14.2,62.6-50.3,72.1-115.6c6.5-44.6-12.5-110.2-98.2-145.6
			c-23.6-9.7-45.7-11.2-65.8-7.6c-9.2-51.3-29.1-87.6-78.4-121.7c-17.7-12.2-61.2-32.6-66.2-21.4c-0.4,9.1,41.7,13.2,79.8,47.2
			c28.2,25.2,42.2,50.3,51.6,95.9c0.1,0.7,0.3,1.3,0.4,1.7c-18.6-26.9-87.3-74.2-171.5-96.4c-8.6-2.3-27.4-10.7-28.9-0.5
			c-1.7,11.5,53.2,15.7,109.4,46.2c46.7,25.4,69.5,44.7,80.2,55.8c-39.1,15.4-69.2,48-87.4,68.7c4.6,13.2,11.8,26.7,20.5,39.1
			c20.1,28.8,53.4,40,75,41.2C747,469.2,666.4,455,652.1,416c-5.7,23.3,6.7,83.2,36.7,112.9c22.4,22.1,78.9,23.1,89.8,25.8l-9.5,9.5
			c-11.9,1.9-34,0-58.5,0c-44.9-4.1-108.8-58.5-137.4-112.9c-10.3-19.6,44.6-92.9,50.3-117c8.2-34-13.9-39.4-35.6-36.7
			c-5.4,0.7-26.6-3.8-32.7-16.3c-20.1-41.9-57.6-142.5-77.3-141.5c-37.3,2-8.2,139.5-8.2,176.9c0,38.1-10.9,140.1-10.9,152.4
			c0,81.6,71,134.8,108.8,151c37.8,16.2,89.6-10.4,130.6-6.8C648,628.5,621.3,644,608.3,669c4.5,4.9,13.1,15.1,15.9,17.7
			c18.8,17.7,34.3,33.1,58.8,45.3c23.4,11.7,49.1,20.1,74.9,27.7c49.8,14.7,87.2,17.8,139.2,11.6c0.8-21.8-1.6-47.7-10-76.7
			c0.1,1.4,0.1,2.9,0.1,4.3c-59.9-4.8-131.6-39.7-169.9-85.9c12.3-8,42.3-25.7,51.8-36.5c0,0,39.5,16.9,58.1,18.3
			c10,0.8,34.2,1,34.2-3.3c4.6,32.1,19.6,60.9,24.4,90.6c39.1,61.2,193.3,279.9,209.9-43C1097.6,601,1104.8,323.2,1095.4,261"/>
	</g>
</g>
</svg>
