<?xml version="1.0" encoding="utf-8"?>
<!-- Generator: Adobe Illustrator 26.0.3, SVG Export Plug-In . SVG Version: 6.00 Build 0)  -->
<svg version="1.1" xmlns="http://www.w3.org/2000/svg" xmlns:xlink="http://www.w3.org/1999/xlink" x="0px" y="0px"
	 viewBox="0 0 750 750" style="enable-background:new 0 0 750 750;" xml:space="preserve">
<style type="text/css">
	.st0{display:none;}
	.st1{display:inline;}
	.st2{fill:#FFFFFF;}
	.st3{display:inline;fill:#FFFFFF;}
	.st4{fill:none;stroke:#000000;stroke-width:50;}
	.st5{stroke:#000000;stroke-width:50;}
	.st6{stroke:#FFFFFF;stroke-width:50;}
	.st7{stroke:#FFFFFF;stroke-miterlimit:10;}
	.st8{fill:none;}
</style>
<g id="Ebene_1" class="st0">
	<g class="st1">
		<circle cx="183.8" cy="492.2" r="183.3"/>
	</g>
	<g class="st1">
		<circle cx="408.3" cy="312" r="183.3"/>
	</g>
	<g class="st1">
		<circle cx="566.8" cy="492.2" r="183.3"/>
	</g>
	<rect x="184.3" y="435.5" class="st1" width="370.9" height="240.1"/>
</g>
<g id="Ebene_2">
	<path d="M591.6,310.5c-0.8-100.6-82.5-181.8-183.3-181.8C307.1,128.7,225,210.8,225,312c0,0.5,0,1,0,1.5c-13.3-3-27.1-4.7-41.2-4.7
		C82.5,308.8,0.5,390.9,0.5,492.2s82.1,183.3,183.3,183.3c0.2,0,0.6,0.1,0.6,0.1l370.9-0.5c3.8,0.2,7.7,0.4,11.5,0.4
		c101.2,0,183.3-82.1,183.3-183.3C750.1,399.4,681.1,322.7,591.6,310.5z"/>
</g>
</svg>
