<?xml version="1.0" encoding="utf-8"?>
<!-- Generator: Adobe Illustrator 26.0.1, SVG Export Plug-In . SVG Version: 6.00 Build 0)  -->
<svg version="1.1" xmlns="http://www.w3.org/2000/svg" xmlns:xlink="http://www.w3.org/1999/xlink" x="0px" y="0px"
	 viewBox="0 0 1152 1127" style="enable-background:new 0 0 1152 1127;" xml:space="preserve">
<style type="text/css">
	.st0{display:none;}
	.st1{display:inline;}
	.st2{fill:#FFFFFF;}
	.st3{display:inline;fill:#FFFFFF;}
	.st4{fill:none;stroke:#000000;stroke-width:50;}
	.st5{stroke:#000000;stroke-width:50;}
	.st6{stroke:#FFFFFF;stroke-width:50;}
	.st7{display:inline;stroke:#1C1B1A;stroke-width:60;stroke-miterlimit:10;}
	.st8{fill:#FFFFFF;stroke:#1C1B1A;stroke-width:60;stroke-miterlimit:10;}
	.st9{fill:none;stroke:#1C1B1A;stroke-width:60;stroke-miterlimit:10;}
	.st10{stroke:#FFFFFF;stroke-width:0.998;stroke-miterlimit:10;}
	.st11{stroke:#FFFFFF;stroke-width:60;stroke-miterlimit:10;}
	.st12{stroke:#FFFFFF;stroke-miterlimit:10;}
	.st13{fill:none;}
	.st14{fill:#1C1B1A;}
</style>
<g id="Ebene_1" class="st0">
</g>
<g id="Ebene_2">
	<g>
		<path d="M633.6,539.9c17.7-29,9.9-72.7-2.5-77.1c-5.1-1.8-37,45.2-38,48.4c-49.2-22.4-99.2,5.6-99.2,5.6c-8.2-9.9-39-67-47.9-42.2
			c-11.4,32-7.6,77,5.5,96.9c8.6-10.2,23.2-22.4,39.8-35c26.2-20,98.8-37.4,136.5,15.3C632.1,547.7,633.2,540.6,633.6,539.9"/>
		<path d="M583.9,267.6c0.6-0.4,0.4-0.7,0.5-0.2c0.1,0.3,0.1,0.6,0.2,0.9c0.8,0.9,1.5,1.7,2.3,2.6c0.5-0.8,1.6-1.7,3.9-2.2
			c13.9-3.2,30.5-20,36.7-32.6c-15.1-14.6-34.9-24.6-57.2-30.4c-2.9,11-8.6,27.2-15.8,39C566,250.6,575.2,258,583.9,267.6"/>
		<path d="M496.9,453.7c14.9,6.4,30.3,10.8,46.2,12.2c0,0,0.1,0,0.1,0c4.2,0,8.3-0.2,12.3-0.5c-8.8-13.1-17.5-35.6-9.9-55.9
			c-12.4,0.2-24.2-2-35.6-6.1C502.4,417.3,498.2,437.8,496.9,453.7"/>
		<path d="M599.4,287.6c5.5,13.5,8.9,25.6,10.6,36.3c0.5,0.1,1.1,0.2,1.7,0.4c15.1,4.7,41.4-3.3,51.5-12.2
			c-3.1-17.6-8.8-34.8-16.9-50.7c-1.3-2.5-2.7-4.9-4.1-7.2c-15.2,17.5-34.5,24.6-46.7,27.7C596.7,283.8,598,285.7,599.4,287.6"/>
		<path d="M611.5,339.2c0.4,16.4-3.5,29.1-9.3,38.7c3.8,19.3,29.9,27,49.4,27.9c10.2-20.1,14.7-43.4,14.2-67.2
			C644.3,346.6,624.2,343,611.5,339.2"/>
		<path d="M476.2,443.4c3.9-13.8,11.8-33.2,20.7-44.2c0.3-0.3,0.2-0.8,0.6-0.9c0.1,0,0.2,0,0.3,0c-11.5-5.6-22.5-13-33.3-21.7
			c-12.5,7.9-25.1,22.2-33.9,34.8C445.4,423.5,460.6,434.5,476.2,443.4"/>
		<path d="M637.5,427.1c-13.7-2.9-37.9-14.4-46.2-35.6c-13.9,13-29.9,16.4-29.9,16.4c-0.3,0.1-0.7,0.1-1,0.2
			c-6.6,16.8,9.7,42,19.5,53.6C604.6,455.5,623.7,443.3,637.5,427.1"/>
		<path d="M499.3,228.2c15.5,2.8,28.2,5.9,39.1,9.7c5.6-11.2,10.6-24,10.2-36.4c-15.2-2.1-31.2-2.7-47.3-1.7
			c-17,1-37.7-1.4-41.4,9.5C454.1,226.9,476.6,225.1,499.3,228.2"/>
		<path d="M185.4,266.2c15.2-7.6,34-10.4,49.2-7.8c11.8-21.1,22.8-46.3,14.2-70.5c-35.8-10.5-70.6-6.3-98.9,7.9
			C168.8,210.8,180.4,242.3,185.4,266.2"/>
		<path d="M153.1,310.6c1.8-7.9,4.9-15.8,9.3-23.8c1.3-2.3,2.8-4.5,4.6-6.6c-9-23.9-21.5-52.8-47.7-62.8
			c-23.2,22.1-37.3,52.9-36.8,87.1C101.3,296.9,138.3,301.3,153.1,310.6"/>
		<path d="M335.7,239.8c-18-17-36.8-31.2-56.8-39.6c-0.2-0.1-0.4-0.2-0.7-0.3c-0.5,21.5-10.4,46.8-22.1,65
			c15.7,6.6,31.3,17,47.2,29.6C319.5,280,334.7,262.2,335.7,239.8"/>
		<path d="M413.7,397c9.3-9.9,20.4-27.4,34.1-33.6c-14.1-12.7-22-23.5-35.5-38.8c-8.1,13-24.9,27.6-37.7,35.8
			C387.5,372.8,400.5,385.2,413.7,397"/>
		<path d="M359.3,345.5c12.2-4.3,34.1-24.6,40.3-35.5c-12.8-14.9-25.5-29.9-38.5-44.1c-9.2,16.3-25,32.1-40.2,43.6
			C333.5,320.6,346.3,332.9,359.3,345.5"/>
		<path d="M681.8,681c4-4,3.9-13.1-20.9-28.8c-8.8-5.6-31-29.5-34-34c-2.9-4.5-5.1-8.4-6.7-12.1c-1.5,1-3.2,1.9-5.1,2.7
			c-8.6,3.4-22.6,2.7-31.1,0c-10.3-3.2-14.2-6.6-13.3-17.8c1.1-13.5,8.6-36.7,14.8-43c1.8-1.8,3.7-3.5,5.6-4.9
			c-0.8-0.3-1.7-0.5-2.5-0.8c-26.6-7.2-52-0.9-75.4,12.8c8.7,2,17.5,7.9,23.2,12.9c8.8,7.6,20.2,18.5,23.8,29.9
			c0.6,2.6,3.2,6-1.3,12.1c-4.6,6.2-12,11.1-19.1,14c-15.8,6.4-30.7,10.7-47.2,4.1c-13.5-5.3-18.1-22.2-15.7-35.5
			c0.7-4,2.2-8.9,4.3-13.8c-7.6,6.8-14.8,14.1-21.8,21.6c-3.4,16.6,0,39.7,0.4,41.3C397.8,665.4,343,482.5,326.2,451.2
			c-16.8-31.3-37.8-60.6-64.5-83.6c-14.6-12.5-33-20.4-52-22.2c-19-1.8-55.5,11.8-55.5,11.8c-1.9-8.6-3-16.6-3.3-24.3
			c-16.4-10.2-51.2-15.3-64.6,0.9c3.8,14.8,10.4,29.9,20.1,45c-166,157.8,131.6,390.5-40.1,594.7c-2.7,3.2-5.5,5.2-5.9,9.6
			c-0.3,3.7,1.4,6.7,3.3,10.4c11.7,22.9,26.1,69.6,48.1,78.3c4.5,1.7,22.2,0,31.4,0h9.1c3.9,0,9.6-1.4,6.5-9.2
			c-2.6-6.5-31.4-2.6-41.8-9.1c-8-5-13.1-23.5-13.1-23.5s8.9,10.2,17,17c7.8,6.5,43.1,3.9,45.7,14.4c1.3,5.2,2.7,10.5,9.1,10.5
			c6.5,0,7.3-8.2,6.5-13.1c-1.6-10.4-24.5-14-48.3-23.5c-6.5-2.6-10.5-17-10.5-17s8.1,9.5,19.6,13.1c17,5.2,35.3,10.5,43.1,18.3
			c3.4,3.4,4.3,8.8,3.9,14.4c-0.2,2.9-1.3,9.2,7.8,7.8c5.3-0.8,6.5-9.4,6.5-13.1c0-13.1-16.2-26.8-28.8-31.4
			c-14.4-5.2-30.7-10.2-30.7-10.2s3.6-0.3,8.4-0.3c9.2,0,32.7,4,32.7-5.2c0-10.5-61.2-2.4-66.3-10.3c-1.2-1.9-7.6-11.8-8.9-15.7
			c30.4-20.1,96.5-86.5,111.5-122.6c19.6-47.2,5.9-83.6,2.1-130.4c19.5,38.5,39.3,72.2,36,98.7c-11.3,90.5-26.4,145.5-34.2,169.9
			c-6.7,21-13,41.6-5.1,49.7c7.6,7.8,29.1,19.4,45.9,19.4c13.9,0,38.5,3.3,39.2-1.3c1.3-9.1-26.1-10.5-26.1-10.5s11.8-3.9,30.6,3.1
			c8.7,3.2,7.3,10,15.2,10c6.5,0,1.3-15.7-10.5-19.6c-15.9-5.3-34.5-6.2-34.5-6.2s22.1-4.5,41,2.3c11.1,3.9,11.8,23.5,19.6,23.5
			c6.5,0-2.6-28.8-18.3-34c-16-5.3-35.3-5.2-35.3-5.2s33.7-3.3,41.8,0c22.2,9.2,17,39.2,26.1,39.2c5.8,0,3.5-39.4-19.6-48.4
			c-22.2-8.6-83.1,1.8-82.2-6.3c1.2-2.9,2.5-5.8,3.8-8.6c27.2-59.2,79.2-99.8,92.6-176.4c2.9-16.8-17.8-90.9-22.1-102.1
			c34.6,17.9,59.2,26.7,97.8,28.2c-9.3,41.1-74.6,139.3-75.6,158.5c-0.8,16.1,4.8,40,11.3,54.7c16.9,38.3,57,78.6,59.6,81.1
			c0,0,14.6,19.1,23.2,19.1c21,0,5.2-27.2,28.9-27.2c1.3,0,1.3,13.1,0,18.3c-0.5,1.8-6.5,1.3-7.8,3.9c-1.8,3.7,1.9,5.2,3.9,5.2
			c7.8,0,11.1-1.2,13.1-9.2c9.1-37.9-9.1-32.7-9.1-32.7c0-1.4,5.9-7.8,11.8-7.8c2.6,0,6.5,1.3,6.5,8.4c0,0.8,0.8,19,0,30.8
			c-0.3,3.9-4.7,5-5.2,9.2c-0.3,2.4,13.1,3.9,13.1-9.2c0-7.3,1-26.6,1-31.8c0-25.7-13.3-17.1-13.3-17.7c0.3-3.4,10.8-11.8,16.2-6.7
			c3.3,3,2.7,17.4,2.8,22.4c0.1,4.8-0.2,27.2-0.2,32.5c0,5.2-5.2,6.5-5.2,10.5c0,3.9,14.4,1.3,14.4-10.5c0-31.4,11.8-149-70-21.8
			c-1.2-2.1-15-72.1-44.5-107.3c21.8-20.4,81.8-117.5,81.8-117.5c18.9,40.9,41.6,62.8,61.8,103c12.2,24.2,26.6,60.1,27.9,64.1
			c1.3,4.1,4.4,49.7-4.7,77c-1.3,3.9-11.9,12.3-8.1,13.3c6.7,1.1,14.9,0.5,18.5-4.1c9.1-11.8,10.7-60,10.7-60s7.6,50.8,12.8,58.7
			c5.4,8.2,23.7,7.6,23.7,6.3c0-14.4-8.2-8.9-13.2-18c-9.4-16.9-10.6-56.1-10.6-56.1s10.7,35.1,22.1,58.2
			c6.3,12.8,24.5,18.3,28.7,14.8c0.2-13-13-9.1-18.3-20.2c-10.3-21.7-20.7-58.2-20.7-58.2s21.7,43.4,36.3,63.5
			c7.8,10.8,21.2,17.6,28.8,14.8c1.6-12.9-5.9-7.1-14.4-17.5c-27.2-33.3-55.7-94.1-56.3-97.2c-3.8-20.9-78.6-226.1-76.1-226.1
			c25.4,0,75.1,14.3,96-27.6c-40.5,0-68.3-18.3-78.4-40.5C562.5,673.2,656.9,705.8,681.8,681"/>
		<path d="M522.8,589.7c3.4-2.7,7.8-3.5,11.7-2.5c-2.2-3.9-4.9-7.2-7.7-8.4c-15.2-6.7-27.3,8.1-31.3,12.6c-0.1,1,6,13.5,10.3,17.3
			c5.1,4.6,13.6,6.1,21.5,4.7c-2.6-0.8-5-2.3-6.8-4.6C515.9,602.9,516.9,594.3,522.8,589.7"/>
		<path d="M621.3,569.5c0.1-0.6,0.1-1.1,0-1.4c-5-4-15.8-11.5-22.5-8.1c-11.9,5.9-14.6,22.7-13.3,32.6c0.3,0.8,20.6,9.7,29.8,2.7
			c-0.6-0.1-1.3-0.3-1.9-0.5c-6.9-2.3-10.7-9.8-8.3-16.7C607.3,571.2,614.5,567.5,621.3,569.5"/>
	</g>
	<polygon class="st12" points="888.9,41.5 766.4,195 845,195.2 728.5,375 981.7,195.4 913.7,195.2 1034.7,41.5 	"/>
	<polygon class="st12" points="888.9,348.5 766.4,502 845,502.2 728.5,682 981.7,502.4 913.7,502.2 1034.7,348.5 	"/>
</g>
</svg>
