<?xml version="1.0" encoding="utf-8"?>
<!-- Generator: Adobe Illustrator 26.0.1, SVG Export Plug-In . SVG Version: 6.00 Build 0)  -->
<svg version="1.1" xmlns="http://www.w3.org/2000/svg" xmlns:xlink="http://www.w3.org/1999/xlink" x="0px" y="0px"
	 viewBox="0 0 1152 1127" style="enable-background:new 0 0 1152 1127;" xml:space="preserve">
<style type="text/css">
	.st0{display:none;}
	.st1{display:inline;}
	.st2{fill:#FFFFFF;}
	.st3{display:inline;fill:#FFFFFF;}
	.st4{fill:none;stroke:#000000;stroke-width:50;}
	.st5{stroke:#000000;stroke-width:50;}
	.st6{stroke:#FFFFFF;stroke-width:50;}
	.st7{display:inline;stroke:#1C1B1A;stroke-width:60;stroke-miterlimit:10;}
	.st8{fill:#FFFFFF;stroke:#1C1B1A;stroke-width:60;stroke-miterlimit:10;}
	.st9{fill:none;stroke:#1C1B1A;stroke-width:60;stroke-miterlimit:10;}
	.st10{stroke:#FFFFFF;stroke-width:0.998;stroke-miterlimit:10;}
	.st11{stroke:#FFFFFF;stroke-width:60;stroke-miterlimit:10;}
	.st12{stroke:#FFFFFF;stroke-miterlimit:10;}
	.st13{fill:none;}
	.st14{fill:#1C1B1A;}
</style>
<g id="Ebene_1" class="st0">
</g>
<g id="Ebene_2">
	<g>
		<path d="M479.5,975.4c20.6,8,68.2-10.8,117.3-59.2c2.6-2.5,5.2-5.2,7.7-7.9c0,0,2.4,4.3,6.7,10.7c12.3,18.1,40.2,52.6,74.1,50.8
			c42.9-2.2,145.2-14.2,121.2-158.2c-11.4-68.3-40.4-179.2-144-237.2c-8.2-4.6-96-14.2-99.7,32.3c-2.8,34.9-10.2,67.9-41.8,132.3
			C499.2,783.8,393.6,941.8,479.5,975.4 M547.4,336.9l-87.7,68.8c0,0,65.2,16.9,88.4-9.2c-9.7,1.1-19-5.3-21.4-15.3
			c-2.6-10.8,3.9-21.7,14.5-24.3c4.6-1.1,9.2-0.5,13.2,1.4C553.1,352,550.8,344.8,547.4,336.9 M437.8,596c0,0.2-6-27.6-8.9-35.9
			c-2.5,52.9-101.9,66.4-122.5,50.3c-0.5-0.4-25.7-41.2-26.5-41.3c23.1,15,90.7,30.4,119.4-23.2c-33.8-1.3-80.3-18.4-105.8-79.8
			c-0.1-0.3-2.3-51.7-2.3-51.7c51.6,82.6,91.1,97.4,116.7,95.6c-2.5-4.7-6.6-12.1-6.8-12.5c-17.7-27.7-56.8-83.1-23.8-146
			c-21.5,17.7-69.7-17.1-69.7-45.4c0-27.8,11.4-49,39.2-54.2c27.2-5,46.7,15.6,66.9,34.8c50.5-40,108.9-32.7,154-4.2l-30.2,28.1
			c40.4,35.4,155.3-7.2,185.6-23.9c-0.6,33.7-22.7,86.4-42.9,112.2c-8.7,10.8-23.4,27.5-37.9,36.1c-26.6,15.9-51.8,7.7-51.8,7.7
			c18.9,61.9,66.7,51.2,93.9,34.2c11.6-7.3,19.8-22.6,19.8-22.6c5.1,45.1-7.6,63.2-17.7,77.4c88.8-8.4,128.9-52.2,131.7-118
			c2.5-58-7.1-109.7-26.9-148.9c-20.2-40,37.5-1.6,61.9,81.2c29.5,99.9,16.4,234.7-106.1,248.8c56.8,69.6,106.1,175.4,87.1,290.1
			c0,0-16.1,91.7-80.8,116c-24,9-44.2,15.5-61.9,10.3c0,0-6.6,27-7.6,32.2c-2.5,14.2-2.5,19.3,7.6,16.8
			c30.8-3.9,121.6-83.2,182.3-22.6c-37.9-14.2-68.2-2.6-68.2-2.6s58.1,0,70.3,27.7c-43.8-17.4-71.6-3.2-71.6-3.2
			c7.6,1.3,64.8,7.1,70.7,25.8c0,0-34.5-4.4-68.6-4.5c-59.8-0.2-175.7,8-178.1,3.9c1.3-11.6,5.1-29.7,32.8-42.5
			c0.4-0.2,3.1-11.2,5.4-21c1.9-7.9,3.5-15.1,3.5-15.1s-65-2.1-71-55.8c-0.6-5.7-0.2-1.7-0.1,0c2,33.2-94.4,79-153.8,54.5l-1.2-0.4
			c-7.1,10-27.5,38.6-27.9,39.1c-7.7,12.1-2.5,19.3,7.6,16.8c30.8-3.9,121.6-83.2,182.3-22.6c-37.9-14.2-68.2-2.6-68.2-2.6
			s58.1,0,70.3,27.7c-43.8-17.4-71.6-3.2-71.6-3.2c7.6,1.3,64.8,7.1,70.7,25.8c0,0-34.5-4.4-68.6-4.5c-59.8-0.2-175.7,8-178.1,3.9
			c1.3-11.6,5.1-29.7,32.8-42.5c0.4-0.2,26.7-39.7,30.3-45.1c-20.2-34.8-2.5-59.3-2.5-59.3c-34.1,46.4-79.6,47.7-135.1,38.7
			c58.6-18.3,133.3-157.3,161.5-278.5c-64.7,47-115.2,167.8-127.4,230.8c-29,16.8-3.8-121.5,10.1-165C348,709,395.9,630.8,459,601.1
			c-0.2-4.8-0.5-9.4-1-13.9C458,587.2,437.9,595.8,437.8,596"/>
	</g>
	<polygon class="st14" points="255,186 250.8,172 217.6,181.9 187.4,164.5 217.8,146.9 250.9,156.4 254.9,142.3 235.5,136.7 
		254.7,125.6 247.4,112.9 227.9,124.1 232.8,103.9 218.5,100.5 210.5,134.2 179.8,151.9 179.8,116.4 205,92.6 194.9,81.9 
		179.8,96.3 179.8,73.9 165.1,73.9 165.1,96.1 150.5,82 140.4,92.5 165.1,116.4 165.1,151.7 134.9,134.2 126.8,100.4 112.6,103.8 
		117.4,124.1 98,112.9 90.7,125.6 109.9,136.7 90.4,142.3 94.5,156.4 127.5,146.8 158.1,164.5 127.8,181.9 94.6,172 90.4,186.1 
		110.4,192 91,203.2 98.3,215.9 117.5,204.8 112.6,224.5 126.8,228 135.1,194.7 165.1,177.3 165.1,211.9 140.4,235.8 150.5,246.3 
		165.1,232.3 165.1,254.5 179.8,254.5 179.8,232 194.9,246.4 205,235.7 179.8,211.9 179.8,177 210.3,194.6 218.5,228 232.8,224.5 
		227.9,204.8 247.1,215.9 254.5,203.2 235,192 	"/>
	<polygon class="st14" points="196,451 191.8,437 158.6,446.9 128.4,429.5 158.8,411.9 191.9,421.4 195.9,407.3 176.5,401.7 
		195.7,390.6 188.4,377.9 168.9,389.1 173.8,368.9 159.5,365.5 151.5,399.2 120.8,416.9 120.8,381.4 146,357.6 135.9,346.9 
		120.8,361.3 120.8,338.9 106.1,338.9 106.1,361.1 91.5,347 81.4,357.5 106.1,381.4 106.1,416.7 75.9,399.2 67.8,365.4 53.6,368.8 
		58.4,389.1 39,377.9 31.7,390.6 50.9,401.7 31.4,407.3 35.5,421.4 68.5,411.8 99.1,429.5 68.8,446.9 35.6,437 31.4,451.1 51.4,457 
		32,468.2 39.3,480.9 58.5,469.8 53.6,489.5 67.8,493 76.1,459.7 106.1,442.3 106.1,476.9 81.4,500.8 91.5,511.3 106.1,497.3 
		106.1,519.5 120.8,519.5 120.8,497 135.9,511.4 146,500.7 120.8,476.9 120.8,442 151.3,459.6 159.5,493 173.8,489.5 168.9,469.8 
		188.1,480.9 195.5,468.2 176,457 	"/>
	<polygon class="st14" points="255,821 250.8,807 217.6,816.9 187.4,799.5 217.8,781.9 250.9,791.4 254.9,777.3 235.5,771.7 
		254.7,760.6 247.4,747.9 227.9,759.1 232.8,738.9 218.5,735.5 210.5,769.2 179.8,786.9 179.8,751.4 205,727.6 194.9,716.9 
		179.8,731.3 179.8,708.9 165.1,708.9 165.1,731.1 150.5,717 140.4,727.5 165.1,751.4 165.1,786.7 134.9,769.2 126.8,735.4 
		112.6,738.8 117.4,759.1 98,747.9 90.7,760.6 109.9,771.7 90.4,777.3 94.5,791.4 127.5,781.8 158.1,799.5 127.8,816.9 94.6,807 
		90.4,821.1 110.4,827 91,838.2 98.3,850.9 117.5,839.8 112.6,859.5 126.8,863 135.1,829.7 165.1,812.3 165.1,846.9 140.4,870.8 
		150.5,881.3 165.1,867.3 165.1,889.5 179.8,889.5 179.8,867 194.9,881.4 205,870.7 179.8,846.9 179.8,812 210.3,829.6 218.5,863 
		232.8,859.5 227.9,839.8 247.1,850.9 254.5,838.2 235,827 	"/>
	<polygon class="st14" points="1105,911 1100.8,897 1067.6,906.9 1037.4,889.5 1067.8,871.9 1100.9,881.4 1104.9,867.3 
		1085.5,861.7 1104.7,850.6 1097.4,837.9 1077.9,849.1 1082.8,828.9 1068.5,825.5 1060.5,859.2 1029.8,876.9 1029.8,841.4 
		1055,817.6 1044.9,806.9 1029.8,821.3 1029.8,798.9 1015.1,798.9 1015.1,821.1 1000.5,807 990.4,817.5 1015.1,841.4 1015.1,876.7 
		984.9,859.2 976.8,825.4 962.6,828.8 967.4,849.1 948,837.9 940.7,850.6 959.9,861.7 940.4,867.3 944.5,881.4 977.5,871.8 
		1008.1,889.5 977.8,906.9 944.6,897 940.4,911.1 960.4,917 941,928.2 948.3,940.9 967.5,929.8 962.6,949.5 976.8,953 985.1,919.7 
		1015.1,902.3 1015.1,936.9 990.4,960.8 1000.5,971.3 1015.1,957.3 1015.1,979.5 1029.8,979.5 1029.8,957 1044.9,971.4 1055,960.7 
		1029.8,936.9 1029.8,902 1060.3,919.6 1068.5,953 1082.8,949.5 1077.9,929.8 1097.1,940.9 1104.5,928.2 1085,917 	"/>
	<polygon class="st14" points="673.2,94.3 661.4,85.7 641,113.9 606.5,118.5 619.9,85.9 651.9,73.3 646.5,59.7 627.6,67.1 
		636.1,46.6 622.6,41 614,61.7 605.5,42.7 592.1,48.7 606.3,80.4 592.8,113.2 571.2,85 576.6,50.7 562.1,48.4 558.9,69 545.2,51.3 
		533.6,60.2 547.1,77.8 527,75.6 525.4,90.1 559.5,93.9 581.1,121.9 546.4,126.5 519.5,104.6 510.2,116 526.4,129.1 504.3,132.1 
		506.2,146.6 528.2,143.7 516.2,160 528,168.7 548.3,141 583.3,136.3 570,168.6 537.6,181.1 542.8,194.8 562.3,187.3 553.8,208 
		567.3,213.6 575.7,193.1 583.9,211.6 597.3,205.8 583.5,174.3 596.7,142.2 617.8,169.6 612.8,203.6 627.3,205.8 630.2,185.7 
		643.8,203.3 655.4,194.4 641.7,176.6 662.5,178.7 663.9,164.2 629.4,160.6 608.1,133 643,128.4 669.9,149.8 679.1,138.3 
		663.2,125.7 685.2,122.7 683.3,108.2 661,111.2 	"/>
	<polygon class="st14" points="1015.3,604.1 1005.4,593.3 979.8,616.6 945,614.1 964.8,585 998.7,579.2 996.3,564.7 976.3,568.2 
		988.8,549.8 976.7,541.5 964,560.1 959.6,539.7 945.3,542.9 952.7,576.8 932.8,606.1 917.3,574.1 929.7,541.7 916,536.4 
		908.6,555.9 898.8,535.8 885.6,542.1 895.3,562.1 876,555.8 871.4,569.7 904.1,580.4 919.4,612.2 884.6,609.6 862.7,582.7 
		851.3,591.9 864.5,608.1 842.2,606.5 841.1,621.1 863.2,622.7 848.1,636.2 857.9,647.1 883.5,624.2 918.6,626.8 899,655.7 
		864.7,661.2 867.1,675.7 887.7,672.4 875.1,690.9 887.2,699.1 899.6,680.8 903.8,700.6 918.1,697.6 911.1,664 930.6,635.3 
		945.6,666.5 933.7,698.7 947.4,703.8 954.5,684.8 964.2,704.8 977.3,698.4 967.6,678.2 987.5,684.5 991.9,670.6 958.8,660.1 
		943.7,628.7 978.8,631.3 1000.7,657.7 1012,648.4 999,632.8 1021.2,634.4 1022.3,619.8 999.9,618.1 	"/>
	<polygon class="st14" points="1003.7,286.1 1010.5,273.1 979.7,257.1 970,223.6 1004.2,232.1 1021.4,261.9 1034.1,254.6 
		1023.9,237 1045.5,242.4 1049.1,228.2 1027.3,222.7 1044.8,211.5 1036.9,199.2 1007.7,217.9 973.3,209.3 998,183.8 1032.7,184.1 
		1032.8,169.5 1012,169.3 1027.5,153.1 1017,143 1001.6,158.9 1000.8,138.7 986.2,139.2 987.5,173.6 963,198.9 953.3,165.4 
		971,135.5 958.4,128 947.8,146 941.6,124.5 927.5,128.5 933.6,149.8 915.7,140.3 908.9,153.3 939.2,169.4 949,203.3 915.1,194.8 
		898,164.6 885.3,171.8 895.5,189.9 873.8,184.5 870.2,198.7 891.8,204.1 874.6,214.9 882.4,227.3 911.5,209 945.2,217.4 
		921.1,242.3 886.7,242.3 886.7,256.9 907,256.9 891.5,272.9 902.1,283.1 917.7,267 918.6,287.8 933.3,287.1 931.7,252.4 
		955.9,227.4 965.6,261.2 948.4,290.9 961.1,298.3 971.2,280.7 977.3,302.1 991.4,298.1 985.2,276.5 	"/>
</g>
</svg>
