<?xml version="1.0" encoding="utf-8"?>
<!-- Generator: Adobe Illustrator 26.0.1, SVG Export Plug-In . SVG Version: 6.00 Build 0)  -->
<svg version="1.1" xmlns="http://www.w3.org/2000/svg" xmlns:xlink="http://www.w3.org/1999/xlink" x="0px" y="0px"
	 viewBox="0 0 1152 1127" style="enable-background:new 0 0 1152 1127;" xml:space="preserve">
<style type="text/css">
	.st0{display:none;}
	.st1{display:inline;}
	.st2{fill:#FFFFFF;}
	.st3{display:inline;fill:#FFFFFF;}
	.st4{fill:none;stroke:#000000;stroke-width:50;}
	.st5{stroke:#000000;stroke-width:50;}
	.st6{stroke:#FFFFFF;stroke-width:50;}
	.st7{display:inline;stroke:#1C1B1A;stroke-width:60;stroke-miterlimit:10;}
	.st8{fill:#FFFFFF;stroke:#1C1B1A;stroke-width:60;stroke-miterlimit:10;}
	.st9{fill:none;stroke:#1C1B1A;stroke-width:60;stroke-miterlimit:10;}
	.st10{stroke:#FFFFFF;stroke-width:0.998;stroke-miterlimit:10;}
	.st11{stroke:#FFFFFF;stroke-width:60;stroke-miterlimit:10;}
	.st12{stroke:#FFFFFF;stroke-miterlimit:10;}
	.st13{fill:none;}
	.st14{fill:#1C1B1A;}
</style>
<g id="Ebene_1" class="st0">
</g>
<g id="Ebene_2">
	<path id="Pfad_465_00000010300639174538941500000006913725370051867824_" d="M894.6,204.6L894.6,204.6l-0.1,0l0,0
		c-9.2,6-14.8,16.2-14.8,27.2c0,17.9,14.5,32.4,32.4,32.4c12.4,0,23.6-7,29.1-18.1l0,0l0-0.1c1-1.9,1.7-4,2.2-6.1l24.4-66.3
		l-63.5,26.9C900.8,201.3,897.5,202.7,894.6,204.6"/>
	<path id="Pfad_465_00000179620208827845914950000004037474144992591788_" d="M982.6,874.6L982.6,874.6l-0.1,0l0,0
		c-9.2,6-14.8,16.2-14.8,27.2c0,17.9,14.5,32.4,32.4,32.4c12.4,0,23.6-7,29.1-18.1l0,0l0-0.1c1-1.9,1.7-4,2.2-6.1l24.4-66.3
		l-63.5,26.9C988.8,871.3,985.5,872.7,982.6,874.6"/>
	<path id="Pfad_469_00000059991646587818434350000016574727611929127053_" d="M231,116.9L231,116.9l-0.1,0l0,0
		c-9.2,6-14.8,16.2-14.8,27.2c0,17.9,14.5,32.4,32.4,32.4c12.4,0,23.6-7,29.1-18.1l0,0l0-0.1c1-1.9,1.7-4,2.2-6.1l24.4-66.3
		l-63.5,26.9C237.2,113.7,233.9,115.1,231,116.9"/>
	<path id="Pfad_469_00000095316671229703037700000010464731353394207922_" d="M164,430.9L164,430.9l-0.1,0l0,0
		c-9.2,6-14.8,16.2-14.8,27.2c0,17.9,14.5,32.4,32.4,32.4c12.4,0,23.6-7,29.1-18.1l0,0l0-0.1c1-1.9,1.7-4,2.2-6.1l24.4-66.3
		l-63.5,26.9C170.2,427.7,166.9,429.1,164,430.9"/>
	<path id="Pfad_469_00000103961557823264057390000009430849691967708339_" d="M66,660.9L66,660.9l-0.1,0l0,0
		c-9.2,6-14.8,16.2-14.8,27.2c0,17.9,14.5,32.4,32.4,32.4c12.4,0,23.6-7,29.1-18.1l0,0l0-0.1c1-1.9,1.7-4,2.2-6.1l24.4-66.3
		l-63.5,26.9C72.2,657.7,68.9,659.1,66,660.9"/>
	<path id="Pfad_469_00000027601238093269972360000017542723219023373712_" d="M208,751.9L208,751.9l-0.1,0l0,0
		c-9.2,6-14.8,16.2-14.8,27.2c0,17.9,14.5,32.4,32.4,32.4c12.4,0,23.6-7,29.1-18.1l0,0l0-0.1c1-1.9,1.7-4,2.2-6.1l24.4-66.3
		l-63.5,26.9C214.2,748.7,210.9,750.1,208,751.9"/>
	<path id="Pfad_469_00000127038012592746225950000005575998903501011094_" d="M110,948.9L110,948.9l-0.1,0l0,0
		c-9.2,6-14.8,16.2-14.8,27.2c0,17.9,14.5,32.4,32.4,32.4c12.4,0,23.6-7,29.1-18.1l0,0l0-0.1c1-1.9,1.7-4,2.2-6.1l24.4-66.3
		l-63.5,26.9C116.2,945.7,112.9,947.1,110,948.9"/>
	<path id="Pfad_470_00000171685874172686629080000016062722260742363531_" d="M66,78L66,78l-0.1,0l0,0c-9.2,6-14.8,16.2-14.8,27.2
		c0,17.9,14.5,32.4,32.4,32.4c12.4,0,23.6-7,29.1-18.1l0,0l0-0.1c1-1.9,1.7-4,2.2-6.1l24.4-66.3L75.7,73.9C72.3,74.7,69,76.1,66,78"
		/>
	<path id="Pfad_474_00000084512119017515362870000015674018299017976492_" d="M995.5,340.3L995.5,340.3l-0.1,0l0,0
		c-9.2,6-14.8,16.2-14.8,27.2c0,17.9,14.5,32.4,32.4,32.4c12.4,0,23.6-7,29.1-18.1l0,0l0-0.1c1-1.9,1.7-4,2.2-6.1l24.4-66.3
		l-63.5,26.9C1001.8,337,998.5,338.4,995.5,340.3"/>
	<path id="Pfad_474_00000008138667294287840220000009292456426986338985_" d="M742.5,274.3L742.5,274.3l-0.1,0l0,0
		c-9.2,6-14.8,16.2-14.8,27.2c0,17.9,14.5,32.4,32.4,32.4c12.4,0,23.6-7,29.1-18.1l0,0l0-0.1c1-1.9,1.7-4,2.2-6.1l24.4-66.3
		l-63.5,26.9C748.8,271,745.5,272.4,742.5,274.3"/>
	<path id="Pfad_474_00000099628341456215956810000005692909122260069304_" d="M1001.5,521.3L1001.5,521.3l-0.1,0l0,0
		c-9.2,6-14.8,16.2-14.8,27.2c0,17.9,14.5,32.4,32.4,32.4c12.4,0,23.6-7,29.1-18.1l0,0l0-0.1c1-1.9,1.7-4,2.2-6.1l24.4-66.3
		l-63.5,26.9C1007.8,518,1004.5,519.4,1001.5,521.3"/>
	<path id="Pfad_477_00000020377434388624044880000000715552918234841740_" d="M1045.5,90.3L1045.5,90.3l-0.1,0l0,0
		c-9.2,6-14.8,16.2-14.8,27.2c0,17.9,14.5,32.4,32.4,32.4c12.4,0,23.6-7,29.1-18.1l0,0l0-0.1c1-1.9,1.7-4,2.2-6.1l24.4-66.3
		l-63.5,26.9C1051.7,87.1,1048.5,88.5,1045.5,90.3"/>
	<path id="Pfad_478_00000093868767102953800600000008823421747559942532_" d="M728.7,78.9L728.7,78.9l-0.1,0l0,0
		c-9.2,6-14.8,16.2-14.8,27.2c0,17.9,14.5,32.4,32.4,32.4c12.4,0,23.6-7,29.1-18.1l0,0l0-0.1c1-1.9,1.7-4,2.2-6.1l24.4-66.3
		l-63.5,26.9C734.9,75.7,731.7,77,728.7,78.9"/>
	<path id="Pfad_480_00000062902410275448330820000011708923949479905441_" d="M76,282.3L76,282.3l-0.1,0l0,0
		c-9.2,6-14.8,16.2-14.8,27.2c0,17.9,14.5,32.4,32.4,32.4c12.4,0,23.6-7,29.1-18.1l0,0l0-0.1c1-1.9,1.7-4,2.2-6.1l24.4-66.3
		l-63.5,26.9C82.2,279.1,78.9,280.4,76,282.3"/>
	<path id="Pfad_482_00000004508327724727332000000017965837259185914784_" d="M497.4,96.6L497.4,96.6l-0.1,0l0,0
		c-9.2,6-14.8,16.2-14.8,27.2c0,17.9,14.5,32.4,32.4,32.4c12.4,0,23.6-7,29.1-18.1l0,0l0-0.1c1-1.9,1.7-4,2.2-6.1l24.4-66.3
		l-63.5,26.9C503.7,93.3,500.4,94.7,497.4,96.6"/>
	<g>
		<path d="M827.3,843.6l-32.5-29.2l38.6-20L827.3,843.6z M753.2,724l-23-50.2L831,651.2L753.2,724z M704.2,695l-43-34.6l100.2-70.2
			L704.2,695z M657.1,500.8l30.9,95.6l-46.9,6.3L657.1,500.8z M600.5,651.1l-41.9-15.4l68.7-62.5L600.5,651.1z M626,470.6
			l-11.5,88.3l-28-11L626,470.6z M675.4,443.4L648.2,461l-34.2-69.5L675.4,443.4z M671.9,388.8c-5.2,4.4-10.2,11.9-15.6,16.2
			c0.2,0.8-32.8-43.4-34.3-43.1C623.4,359.6,670.9,391.1,671.9,388.8 M760,480l-23.6,106.5l-40.7-15L760,480z M688.9,417.5l42,77.1
			l-42.3,9L688.9,417.5z M797.3,542l16.5,78.6l-34.5-5.9L797.3,542z M615.2,850.4c-0.9,2.4-1.9,4.7-3.1,7c-0.8-15-12.9-27.2-28-27.6
			c-15.9-0.5-29.2,12.2-29.6,28.2c-0.4,13.9,9.1,25.8,22,29.1c-5,1-10.1,1-15.3-0.1c-22.7-4.8-40.1-33.2-32.7-58.9
			c8.4-29.4,45-40.4,66.4-31.5C611.7,803.5,624.7,825.3,615.2,850.4 M453.4,1025.1c-11.7,6.5-26.7,6.7-37.9-0.7
			c-35.8-23.7-39.2-81.2-41.9-94.2c28.4,17.4,45.2,46.7,143.9-1.7C499.2,983.2,468.4,1016.7,453.4,1025.1 M347.5,823.8
			c-6.5-25.3,5.7-50.3,27.2-55.9c21.5-5.6,44.3,10.5,50.8,35.8c1.8,7.1,2.2,14.1,1.3,20.7c-3.8-10.4-13.5-17.9-25.1-18.3
			c-15.2-0.4-27.8,11.6-28.2,26.9c-0.3,13,8.3,24.1,20.1,27.4C373.5,862.7,353.5,847.2,347.5,823.8 M345.3,908.8
			c-2.7-2-5.4-4.2-7.9-6.6c-27.9-27.2-28.7-70.1-2.6-97.9c-1.1,21.3,10.1,42.8,16.6,56.9C348,879.8,345.6,894.4,345.3,908.8
			 M958.9,754.3c-35.8-26.8-36-87.1-9.6-154.3c-56.6,17-49.3-45-44.1-164.2C877.9,506.9,855,568.1,834,617.7
			c-26.8-98.7-90.4-214.1-204.6-268.6c7.6-79.7-137.8-188.7-298.6-197.1c34.9,14,127.2,92.3-7,127.2c51.7,23.8,76.9,60.1,8.4,142.6
			c64.3-54.5,203.3-72.7,257.3-36.4c19.6,61.3,11.2,192.1-91.9,248.2c13.6-31.3,18.3-68.2,30.4-126.6
			c-43.3,61.5-55.9,50.3-83.9-54.5c-5.6,107.7-69.9,90.9-132.8,19.6c55,132.9,75.2,189.7,68.1,276.9c17.4-16.9,40.6-37.9,41.8-39.1
			c55.7-52.5,172.9-75.5,262.2-2.4c46.1,37.7,68.9,77,79.5,112.8c-35.7,0.9-67.7,37.5-68.7,73.6c-0.7,28.8,16.6,53.8,41.7,64.1
			c-47.2-3.9-61.8-34.6-60.9-71.4c0.7-26.3,15.7-48.8,37.3-60c-16-43.3-45.9-77.6-71.9-97.9c-124.3-97-229.2-0.1-261.2,20.7
			c-0.1,1.4-0.2,2.8-0.4,4.2c-9.1,0.7-20.8,6.2-34,23.1c-0.3,0.3-0.5,0.7-0.7,1c-1.4,0.3-2.8,0.7-4.3,1c-39.5,11-62,50.6-50.4,88.5
			c8,26,30,44.4,55.8,49.9c0.3,9.1,1.6,18.6,3.9,29.2c6.7,30.3,12.8,50.4,41.5,82.8c59.4,67,213.1,53.6,276.8,24.4
			c52.2-23.9,89-58,115.2-94.8c28.1-8.4,52.3-31.7,53.1-60.5c0.3-10.9-2.6-22.2-7.7-32.6c8.9-28.4,13.6-54.8,16.1-75.7
			C867.7,776.6,897.2,769.8,958.9,754.3"/>
	</g>
</g>
</svg>
