<?xml version="1.0" encoding="utf-8"?>
<!-- Generator: Adobe Illustrator 26.0.1, SVG Export Plug-In . SVG Version: 6.00 Build 0)  -->
<svg version="1.1" xmlns="http://www.w3.org/2000/svg" xmlns:xlink="http://www.w3.org/1999/xlink" x="0px" y="0px"
	 viewBox="0 0 1152 1127" style="enable-background:new 0 0 1152 1127;" xml:space="preserve">
<style type="text/css">
	.st0{display:none;}
	.st1{display:inline;}
	.st2{fill:#FFFFFF;}
	.st3{display:inline;fill:#FFFFFF;}
	.st4{fill:none;stroke:#000000;stroke-width:50;}
	.st5{stroke:#000000;stroke-width:50;}
	.st6{stroke:#FFFFFF;stroke-width:50;}
	.st7{display:inline;stroke:#1C1B1A;stroke-width:60;stroke-miterlimit:10;}
	.st8{fill:#FFFFFF;stroke:#1C1B1A;stroke-width:60;stroke-miterlimit:10;}
	.st9{fill:none;stroke:#1C1B1A;stroke-width:60;stroke-miterlimit:10;}
	.st10{stroke:#FFFFFF;stroke-width:0.998;stroke-miterlimit:10;}
	.st11{stroke:#FFFFFF;stroke-width:60;stroke-miterlimit:10;}
	.st12{stroke:#FFFFFF;stroke-miterlimit:10;}
	.st13{fill:none;}
	.st14{fill:#1C1B1A;}
</style>
<g id="Ebene_1" class="st0">
</g>
<g id="Ebene_2">
	<g>
		<g>
			<path class="st12" d="M1050.2,186.9c1,5.3,1.5,10.7,1.5,16.2c0,6.8-0.8,13.4-2.2,19.8h62.9v-36H1050.2z"/>
			<path class="st12" d="M869.4,203.1c0-5.6,0.6-11,1.5-16.2h-67.2v36h67.9C870.2,216.5,869.4,209.9,869.4,203.1z"/>
		</g>
		<g>
			<path class="st12" d="M1035.7,254.6c-6.9,10-15.7,18.5-25.8,25.1l45.5,45.5l25.5-25.5L1035.7,254.6z"/>
			<path class="st12" d="M909.1,128l-46.9-46.9l-25.5,25.5l47.3,47.3C890.6,143.6,899.1,134.8,909.1,128z"/>
		</g>
		<g>
			<path class="st12" d="M960.5,112c6.2,0,12.2,0.6,18,1.8V48.3h-36v65.5C948.4,112.6,954.4,112,960.5,112z"/>
			<path class="st12" d="M960.5,294.3c-6.2,0-12.2-0.6-18-1.8V357h36v-64.5C972.7,293.7,966.7,294.3,960.5,294.3z"/>
		</g>
		<path class="st12" d="M960.5,137.7c-36.1,0-65.5,29.4-65.5,65.5c0,36.1,29.4,65.5,65.5,65.5c36.1,0,65.5-29.4,65.5-65.5
			C1026,167,996.6,137.7,960.5,137.7z"/>
		<g>
			<path class="st12" d="M1037.1,153.8l46.3-46.3L1057.9,82L1012,128C1022,134.8,1030.5,143.6,1037.1,153.8z"/>
			<path class="st12" d="M885.4,254.6L840,300l25.5,25.5l45.7-45.7C901,273.1,892.2,264.6,885.4,254.6z"/>
		</g>
	</g>
	<path d="M103.9,141.9c0.4-48.5,39.8-87.7,88.4-87.7c48.8,0,88.4,39.6,88.4,88.4c0,0.2,0,0.5,0,0.7c6.4-1.5,13.1-2.2,19.9-2.2
		c48.8,0,88.4,39.6,88.4,88.4s-39.6,88.4-88.4,88.4c-0.1,0-0.3,0.1-0.3,0.1l-178.9-0.2c-1.8,0.1-3.7,0.2-5.6,0.2
		c-48.8,0-88.4-39.6-88.4-88.4C27.5,184.8,60.8,147.8,103.9,141.9z"/>
	<g>
		<path d="M956.9,843.6l-32.5-29.1l38.5-20L956.9,843.6z M883,724.1L860,674l100.6-22.6L883,724.1z M834.1,695.1l-42.9-34.6l100-70
			L834.1,695.1z M787.1,501.3l30.9,95.5l-46.9,6.3L787.1,501.3z M730.6,651.3L688.7,636l68.6-62.4L730.6,651.3z M756,471.1
			l-11.5,88.1l-27.9-10.9L756,471.1z M805.3,444l-27.1,17.6l-34.1-69.4L805.3,444z M801.8,389.5c-5.2,4.4-10.2,11.9-15.6,16.2
			c0.2,0.8-32.8-43.3-34.3-43C753.4,360.2,800.8,391.8,801.8,389.5 M889.8,480.5l-23.6,106.3l-40.6-15L889.8,480.5z M818.8,418.1
			l42,77l-42.2,9L818.8,418.1z M927.1,542.4l16.5,78.5l-34.5-5.9L927.1,542.4z M745.2,850.3c-0.9,2.4-1.9,4.7-3.1,6.9
			c-0.8-15-12.9-27.1-28-27.6c-15.9-0.5-29.1,12.2-29.5,28.2c-0.4,13.9,9.1,25.8,22,29c-5,1-10.1,1-15.3-0.1
			c-22.6-4.8-40-33.1-32.6-58.8c8.4-29.3,44.9-40.3,66.3-31.4C741.7,803.5,754.7,825.3,745.2,850.3 M583.7,1024.8
			c-11.7,6.5-26.6,6.7-37.8-0.7c-35.8-23.7-39.2-81-41.9-94.1c28.4,17.4,45.1,46.7,143.6-1.7C629.4,982.9,598.7,1016.4,583.7,1024.8
			 M477.9,823.7c-6.5-25.3,5.7-50.2,27.2-55.8c21.5-5.5,44.2,10.4,50.7,35.7c1.8,7,2.2,14.1,1.3,20.6c-3.8-10.4-13.5-17.9-25.1-18.2
			c-15.2-0.4-27.8,11.6-28.2,26.8c-0.3,12.9,8.2,24,20.1,27.4C503.9,862.6,483.9,847.1,477.9,823.7 M475.7,908.6
			c-2.7-2-5.4-4.2-7.9-6.6c-27.8-27.1-28.6-70-2.6-97.7c-1.1,21.2,10.1,42.7,16.6,56.8C478.4,879.7,476,894.2,475.7,908.6
			 M1088.4,754.4c-35.7-26.8-35.9-87-9.5-154.1c-56.5,16.9-49.2-45-44-163.9c-27.4,70.9-50.3,132-71.3,181.6
			c-26.8-98.6-90.2-213.8-204.3-268.2c7.6-79.6-137.6-188.5-298.1-196.8c34.9,14,127,92.1-7,127c51.7,23.7,76.8,60,8.4,142.4
			c64.2-54.4,203-72.6,256.9-36.3c19.6,61.2,11.1,191.8-91.7,247.9c13.6-31.2,18.3-68.1,30.3-126.4c-43.3,61.4-55.8,50.3-83.8-54.4
			c-5.6,107.5-69.8,90.7-132.6,19.5c54.9,132.6,75.1,189.4,68,276.5c17.3-16.9,40.5-37.9,41.8-39c55.6-52.5,172.7-75.4,261.8-2.4
			c46,37.6,68.8,76.8,79.4,112.6c-35.6,0.9-67.6,37.5-68.5,73.5c-0.7,28.7,16.6,53.8,41.6,64c-47.1-3.9-61.7-34.5-60.8-71.3
			c0.7-26.3,15.7-48.7,37.3-60c-16-43.3-45.9-77.5-71.8-97.7c-124.1-96.8-228.8-0.1-260.7,20.7c-0.1,1.4-0.2,2.8-0.4,4.2
			c-9.1,0.7-20.8,6.2-33.9,23.1c-0.3,0.3-0.5,0.7-0.7,1c-1.4,0.3-2.8,0.7-4.3,1c-39.4,10.9-62,50.5-50.3,88.4
			c8,26,30,44.3,55.7,49.8c0.3,9.1,1.6,18.5,3.9,29.2c6.7,30.3,12.8,50.3,41.5,82.7c59.3,66.9,212.8,53.5,276.4,24.4
			c52.1-23.8,88.9-57.9,115-94.7c28-8.4,52.2-31.6,53-60.4c0.3-10.9-2.6-22.1-7.7-32.6c8.9-28.4,13.5-54.7,16.1-75.6
			C997.3,776.6,1026.8,769.9,1088.4,754.4"/>
	</g>
	<path id="Pfad_470_00000103267268530810096410000011066636503654597041_" d="M275.9,420.2L275.9,420.2l-0.1,0.1l0,0
		c-3.2,10.5-0.9,21.9,6.2,30.4c11.5,13.7,31.9,15.5,45.6,4c9.5-7.9,13.6-20.6,10.6-32.6l0,0l0-0.1c-0.5-2.1-1.3-4.1-2.2-6.1
		l-24-66.5l-31.3,61.4C278.6,413.7,277,416.9,275.9,420.2"/>
	<path id="Pfad_470_00000089570780774290880870000013146177082017997489_" d="M176.9,566.2L176.9,566.2l-0.1,0.1l0,0
		c-3.2,10.5-0.9,21.9,6.2,30.4c11.5,13.7,31.9,15.5,45.6,4c9.5-7.9,13.6-20.6,10.6-32.6l0,0l0-0.1c-0.5-2.1-1.3-4.1-2.2-6.1
		l-24-66.5l-31.3,61.4C179.6,559.7,178,562.9,176.9,566.2"/>
	<path id="Pfad_470_00000021111589223560241030000010586223177632948132_" d="M86.9,441.2L86.9,441.2l-0.1,0.1l0,0
		c-3.2,10.5-0.9,21.9,6.2,30.4c11.5,13.7,31.9,15.5,45.6,4c9.5-7.9,13.6-20.6,10.6-32.6l0,0l0-0.1c-0.5-2.1-1.3-4.1-2.2-6.1
		l-24-66.5l-31.3,61.4C89.6,434.7,88,437.9,86.9,441.2"/>
	<path id="Pfad_470_00000090991230789460620940000012265090351963346575_" d="M283.9,657.2L283.9,657.2l-0.1,0.1l0,0
		c-3.2,10.5-0.9,21.9,6.2,30.4c11.5,13.7,31.9,15.5,45.6,4c9.5-7.9,13.6-20.6,10.6-32.6l0,0l0-0.1c-0.5-2.1-1.3-4.1-2.2-6.1
		l-24-66.5l-31.3,61.4C286.6,650.7,285,653.9,283.9,657.2"/>
	<path id="Pfad_470_00000031173913448308908000000009897699675394387075_" d="M103.9,770.2L103.9,770.2l-0.1,0.1l0,0
		c-3.2,10.5-0.9,21.9,6.2,30.4c11.5,13.7,31.9,15.5,45.6,4c9.5-7.9,13.6-20.6,10.6-32.6l0,0l0-0.1c-0.5-2.1-1.3-4.1-2.2-6.1
		l-24-66.5l-31.3,61.4C106.6,763.7,105,766.9,103.9,770.2"/>
</g>
</svg>
