<?xml version="1.0" encoding="utf-8"?>
<!-- Generator: Adobe Illustrator 26.0.1, SVG Export Plug-In . SVG Version: 6.00 Build 0)  -->
<svg version="1.1" xmlns="http://www.w3.org/2000/svg" xmlns:xlink="http://www.w3.org/1999/xlink" x="0px" y="0px"
	 viewBox="0 0 1047 750" style="enable-background:new 0 0 1047 750;" xml:space="preserve">
<style type="text/css">
	.st0{display:none;}
	.st1{display:inline;}
	.st2{fill:#FFFFFF;}
	.st3{display:inline;fill:#FFFFFF;}
	.st4{fill:none;stroke:#000000;stroke-width:50;}
	.st5{stroke:#000000;stroke-width:50;}
	.st6{stroke:#FFFFFF;stroke-width:50;}
	.st7{display:inline;stroke:#1C1B1A;stroke-width:60;stroke-miterlimit:10;}
	.st8{fill:#FFFFFF;stroke:#1C1B1A;stroke-width:60;stroke-miterlimit:10;}
	.st9{fill:none;stroke:#1C1B1A;stroke-width:60;stroke-miterlimit:10;}
	.st10{stroke:#FFFFFF;stroke-width:0.998;stroke-miterlimit:10;}
	.st11{stroke:#FFFFFF;stroke-width:60;stroke-miterlimit:10;}
	.st12{stroke:#FFFFFF;stroke-miterlimit:10;}
	.st13{fill:none;}
	.st14{fill:#1C1B1A;}
</style>
<g id="Ebene_1" class="st0">
	<g class="st1">
		<g>
			<path class="st10" d="M896.2,336.1c2.3,12.8,3.7,25.9,3.7,39.4c0,16.5-2,32.5-5.4,47.9H1047v-87.3H896.2z"/>
			<path class="st10" d="M457.8,375.5c0-13.5,1.4-26.6,3.7-39.4h-163v87.3h164.7C459.7,408,457.8,392,457.8,375.5z"/>
		</g>
		<g>
			<path class="st10" d="M861.1,500.3c-16.6,24.2-38,44.9-62.7,60.8l110.3,110.3l61.7-61.7L861.1,500.3z"/>
			<path class="st10" d="M554,193.2L440.3,79.5l-61.7,61.7l114.6,114.6C509.2,231.2,529.8,209.8,554,193.2z"/>
		</g>
		<g>
			<path class="st10" d="M678.8,154.4c14.9,0,29.5,1.5,43.7,4.4V0h-87.3v158.8C649.3,155.9,663.9,154.4,678.8,154.4z"/>
			<path class="st10" d="M678.8,596.6c-14.9,0-29.5-1.5-43.7-4.4v156.3h87.3V592.2C708.4,595,693.8,596.6,678.8,596.6z"/>
		</g>
		<path class="st10" d="M678.8,216.8c-87.5,0-158.7,71.2-158.7,158.7c0,87.5,71.2,158.7,158.7,158.7c87.5,0,158.7-71.2,158.7-158.7
			C837.5,288,766.3,216.8,678.8,216.8z"/>
		<g>
			<path class="st10" d="M864.5,255.9l112.2-112.2L915,81.9L803.7,193.2C827.9,209.8,848.5,231.2,864.5,255.9z"/>
			<path class="st10" d="M496.5,500.3l-110,110l61.7,61.7l110.9-110.9C534.5,545.2,513.2,524.5,496.5,500.3z"/>
		</g>
	</g>
	<g class="st1">
		<path d="M139.9,462.8c-94-2.8-169.6-80.1-169.6-174.8c0-96.4,78.4-174.8,174.8-174.8c1.9,0,3.7,0,5.6,0.1
			c15.2-81,86.5-142.4,171.8-142.4c46.5,0,90.2,18,123.2,50.8c27.1,26.9,44.3,61.1,49.8,98.2c32.1,9.1,61.2,27.3,83.5,52.7
			c28.1,31.9,43.6,72.9,43.6,115.5c0,96.4-78.4,174.9-174.8,174.9c-3.2,0-6.6-0.1-10-0.3L140.4,463L139.9,462.8z"/>
		<path class="st2" d="M322.5,0.8c79.6,0,144.2,64.2,144.8,143.7c70.7,9.6,125.2,70.2,125.2,143.5c0,80-64.9,144.8-144.9,144.8
			c-3.1,0-6.1-0.1-9.1-0.3L145.5,433c0,0-0.3-0.1-0.4-0.1C65.1,432.9,0.2,368,0.2,288c0-80,64.9-144.8,144.9-144.8
			c11.2,0,22.1,1.3,32.6,3.7c0-0.4,0-0.8,0-1.2C177.7,65.7,242.5,0.8,322.5,0.8 M322.5-59.2c-27.6,0-54.5,5.4-79.8,16.1
			C218.3-32.7,196.4-18,177.6,0.8c-18.8,18.8-33.6,40.7-43.9,65.1c-2.5,5.9-4.7,11.9-6.7,18c-21.3,1.8-42,7-61.8,15.4
			C40.9,109.6,19,124.4,0.2,143.2c-18.8,18.8-33.6,40.7-43.9,65.1c-10.7,25.3-16.1,52.1-16.1,79.8c0,27.6,5.4,54.5,16.1,79.8
			c10.3,24.4,25.1,46.3,43.9,65.1c18.8,18.8,40.7,33.6,65.1,43.9c21.9,9.3,45,14.6,68.7,15.8l1.2,0.4l10.4,0l291.3-0.4
			c3.7,0.2,7.3,0.3,10.8,0.3c27.6,0,54.5-5.4,79.8-16.1c24.4-10.3,46.3-25.1,65.1-43.9c18.8-18.8,33.6-40.7,43.9-65.1
			c10.7-25.3,16.1-52.1,16.1-79.8c0-49.9-18.1-97.9-51.1-135.3c-22-25-49.5-44-80-55.8c-2.7-10.9-6.3-21.6-10.7-32.1
			c-10.4-24.2-25.2-45.9-44-64.6C448-18.3,426.2-33,401.9-43.2C376.7-53.8,350-59.2,322.5-59.2L322.5-59.2z"/>
	</g>
	<g class="st1">
		<path class="st11" d="M248.5,564.4c0,0,0,0.1,0,0.1l-0.1,0.6c-15.2,52-4.7,110.5,33.3,154.7c59.6,69.4,164.1,77.4,233.4,17.9
			c49.4-42.5,67.4-107.8,52-167.1l-0.1-0.5c-2.8-10.6-6.7-21-11.6-31.1L430,302.1L272.3,516.3C261.7,531.2,253.6,547.4,248.5,564.4"
			/>
	</g>
</g>
<g id="Ebene_2">
	<g>
		<g>
			<path class="st10" d="M896.2,336.1c2.3,12.8,3.7,25.9,3.7,39.4c0,16.5-2,32.5-5.4,47.9H1047v-87.3H896.2z"/>
		</g>
		<g>
			<path class="st10" d="M861.1,500.3c-16.6,24.2-38,44.9-62.7,60.8l110.3,110.3l61.7-61.7L861.1,500.3z"/>
		</g>
		<g>
			<path class="st10" d="M678.8,154.4c14.9,0,29.5,1.5,43.7,4.4V0h-87.3v158.8C649.3,155.9,663.9,154.4,678.8,154.4z"/>
			<path class="st10" d="M678.8,596.6c-14.9,0-29.5-1.5-43.7-4.4v156.3h87.3V592.2C708.4,595,693.8,596.6,678.8,596.6z"/>
		</g>
		<g>
			<path class="st10" d="M864.5,255.9l112.2-112.2L915,81.9L803.7,193.2C827.9,209.8,848.5,231.2,864.5,255.9z"/>
		</g>
		<path class="st10" d="M678.8,216.8c-12.9,0-25.5,1.6-37.5,4.5c7.3,21.3,11.2,43.8,11.2,66.8c0,27.6-5.4,54.5-16.1,79.8
			c-10.3,24.4-25.1,46.3-43.9,65.1c-13.1,13.1-27.8,24.3-43.8,33.4c28.7,41,76.3,67.9,130.1,67.9c87.5,0,158.7-71.2,158.7-158.7
			C837.5,288,766.3,216.8,678.8,216.8z"/>
		<path d="M277,573.8c-12.9,44.3-2.6,91.5,27.4,126.5c48.7,56.7,134.5,63.4,191.1,14.7c19.5-16.8,33.8-38.6,41.1-63.1
			c7.2-23.9,7.7-49.3,1.4-73.5l-0.1-0.5c-2.2-8.6-5.4-17-9.3-25L425.8,358.4L296.6,533.9c-8.6,12.1-14.9,24.8-18.9,37.6l-0.2,1.2
			L277,573.8z"/>
		<path d="M433.6,245.1L521.3,411c41.6-25.3,69.4-71,69.4-123.2c0-73-54.2-133.3-124.6-142.8C465.5,65.9,401.2,2,322,2
			c-79.6,0-144.1,64.5-144.1,144.1c0,0.4,0,0.8,0,1.2c-10.4-2.4-21.3-3.7-32.4-3.7c-79.6,0-144.1,64.5-144.1,144.1
			c0,79.6,64.5,144.1,144.1,144.1c0.1,0,0.4,0.1,0.4,0.1l150.3-0.2L433.6,245.1z"/>
	</g>
</g>
</svg>
