<?xml version="1.0" encoding="utf-8"?>
<!-- Generator: Adobe Illustrator 26.0.1, SVG Export Plug-In . SVG Version: 6.00 Build 0)  -->
<svg version="1.1" xmlns="http://www.w3.org/2000/svg" xmlns:xlink="http://www.w3.org/1999/xlink" x="0px" y="0px"
	 viewBox="0 0 1152 1127" style="enable-background:new 0 0 1152 1127;" xml:space="preserve">
<style type="text/css">
	.st0{display:none;}
	.st1{display:inline;}
	.st2{fill:#FFFFFF;}
	.st3{display:inline;fill:#FFFFFF;}
	.st4{fill:none;stroke:#000000;stroke-width:50;}
	.st5{stroke:#000000;stroke-width:50;}
	.st6{stroke:#FFFFFF;stroke-width:50;}
	.st7{display:inline;stroke:#1C1B1A;stroke-width:60;stroke-miterlimit:10;}
	.st8{fill:#FFFFFF;stroke:#1C1B1A;stroke-width:60;stroke-miterlimit:10;}
	.st9{fill:none;stroke:#1C1B1A;stroke-width:60;stroke-miterlimit:10;}
	.st10{stroke:#FFFFFF;stroke-width:0.998;stroke-miterlimit:10;}
	.st11{stroke:#FFFFFF;stroke-width:60;stroke-miterlimit:10;}
	.st12{stroke:#FFFFFF;stroke-miterlimit:10;}
	.st13{fill:none;}
	.st14{fill:#1C1B1A;}
</style>
<g id="Ebene_1" class="st0">
</g>
<g id="Ebene_2">
	<g>
		<path d="M902.1,795.5c2-9.3,2.4-30.7-18.3-67.6c0,0,0,0,0,0l78.2,32.8c15.2,0,56.2-66.6,80.4-98.3c2.9-3.8,5.5-7,7.7-9.7
			c7.2-8.5,32.4-40.9,21.6-49.5c-5.1-4-19.6,2.7-33,22.7c-1.6,2.4,5.1-24.1,0-24.1c-4.3,0-12,35.2-12.7,36.1
			c-2.2,2.7-4.4,5.4-6.6,8.1c-29.9,37.1-61.1,78.8-65.4,77c-6.7-2.7-24.7-25.7-39.9-46.9c0.9-5.5-0.6-11.5-7.2-18.5
			c-3.2-3.4-6.8-5.9-10.8-7.8c-2.1-3.3-3.8-6-4.8-7.9c12.7-5.3,27.9,18.7,50.8-12c-33,5.3-20.6-25.1-8.9-42.8
			c-0.8,21.6,17.8,30.8,17.8,30.8l8.9-9.4c0,0,48.7,1.8,47,0c-8.9-9.4-17.1-39.8-9.8-50.9c5.7-8.6,7.5-22,6.6-35.5
			c0.7-2,1.4-4.2,1.8-6.3c7.4-35.1-26.9-73-76.5-84.6c-37.6-8.8-73.3,0.1-91.5,20.2c-23.2-9.9-45.2-16.7-78.6-16.7
			c-32.4,0-64.3,8.9-84.6,16c-17-7.5-31.8-13-55.8-13c-29.7,0-58.7,11.6-66.7,15c-4.5,1.9-4.5,7.9-0.3,10.3
			c8.5,4.8,37.3,21.3,59,23.2c22.9,2,41.7-1.3,55.5-6.1c19.2,10.4,53.3,27.4,80.5,29.9c33.1,2.9,60.7-1.3,81.7-8
			c7.7,20.5,21.9,37,48.5,47.9c-7,4.9-37.5,45.6-40.1,49.3c0,0-69.6-70.7-91.5-74.9c0,0-76.5,38.9-109.7,64
			c-33.8,25.5-17.2,37.6,20.8,12.2c3.9-5.1-5.5,12.3-0.2,13.5c8,1.8,10-19.3,11.6-20.1c10.1-5.5,77.5-33.4,77.5-33.4l56.4,85.6
			c-1.5,1.3-3.3,3.3-5.3,5.8c-17.4,0.2-35.5-1.7-53.9-8.6l-15.9-25l-6.2,6.5L702,608.4c0,0-23.1-4.9-44.6,27.5
			c-18.9,28.4-12.3,51.8-12.3,51.8l27.2,8.4l0.5,10.3l12.2,1.7c5.6,5.3,22.8,20.8,49.2,34.8c1.5,0.8,3,1.6,4.6,2.4
			c-23.5,41.9-43.9,80.7-43.7,80.3c0,0-46.6-61.3-64-100.3c0,0-11.6,8.2-12,7.1c0,0-5.6-17.9-7.9-25.3c-7.3-24,10.1-48.9,10.1-48.9
			c-4.1-7.3-39.2-11.4-92,14.2c-21.5,10.4-46.2,29.5-59.1,46.4c-0.3,0.5-0.5,2.3-0.6,4.3c0,0,0,0.1,0,0.1c-0.2,3.2,2.4,7,5.2,5.8
			c53.2-23.7,88.8-15.7,97.8-5.8c5.1,5.6,20.4,29,20.4,29s-15.9,10.3-17,12.9c-0.2,0.4,95.8,201.6,95.8,201.6
			c5,21.4,23.8,13.4,40.9-3.5c17.8-17.6,96.6-97.9,96.5-97.9l176.6,33.4c-30.5,30.8-52.1,54.8-64.8,68.2c0,0,15.5,12.9,15.2,13.4
			c-0.8,1.7-25.4,18.7-54.6,12c-8.1,9.1,28.1,67,63.5,84.2c16.5,8,59.2,16.6,70.5,13.8c1.5-0.3,6.1-7.3,7-8.4
			c5.1-6.7-22.9-0.1-52.1-30.8c-4.7-4.9-14-17.4-15.2-37.4c-0.1-1.9,3.3-14.1,4.7-15.6c0.4-0.5,6.8,7.6,6.8,7.6
			c27.9-29.4,80-93.6,101.6-121.7C1084.2,862.9,956.7,819.6,902.1,795.5z M972.8,518.5c5.7,4.7,8.1,12.7,8,20.3
			c-0.1,7.6-2.3,14.9-4.6,22.2c-2.5-1.7-6.7-5.4-11.5-9.8c5-1.3,8.7-6.1,8.7-11.8c0-6.7-5.2-12.1-11.5-12.1
			c-5.8,0-10.6,4.6-11.4,10.5c-7-6.8-12.6-12.3-12.6-12.3S963.4,510.6,972.8,518.5z M744,735.9c-18-9-32.1-19-41.4-26.4l37.9-55.6
			c16.3,5.8,32.5,8.1,47.9,8.6C776.3,680.1,759.7,708.1,744,735.9z M878.5,782.2c-0.1-0.1,1.8,1.4,4.4,3.7
			C880.7,784.5,879.2,783.2,878.5,782.2z"/>
		<path d="M508.8,1011.2c-6.4-0.2-17.8,8.8-17.8,8.8c0.3,0.1,48.5-84,68.1-130.9c7-16.7-16.5-32-30.3-41c0,0,25.4-18.3,22.8-22.1
			c-29.3-43.7-152.2-70.8-127.1-73.5c0.6-0.1,30.4-19.4,30.4-19.4c-3.8-2.2-30.2,2.7-49.1-8.2c-17.6-10.2-45.2-28.4-59.3-37.8
			c22-11.3,43.2-24.2,63.3-38.6c2.7-1.9,5.4-3.9,7.2-6.4c5-6.8,2.2-14.4-0.7-20.7c-11.6-24.8-21.6-50.5-29.9-76.8
			c-0.5-1.7-1.2-3.6-2.8-4.5c-1.6-0.9-4.7-0.4-5.7,1.4c-2.5-9.1-5-18.1-7.5-27.2c-2.2-7.9-4.4-15.9-8.9-22.7
			c-1.5-2.3-3.8-4.6-7.2-3.9c-3,0.6-5.3,3.3-6.5,5.9c-3.5,7.1-2.3,14.4-0.1,20.8c2.3,6.4,6.5,19.5,6.4,19.2c-2.4-3-5.6-5.4-9.2-7.3
			c-1-0.5-2.2-1-3.4-0.4c-2.3,1-1.8,3.8-0.8,5.5c4.7,7.8,9.9,15.3,15.5,22.5c-2.2,0.9-4.4,1.7-6.6,2.6
			c13.6,23.2,35.6,67.5,22.8,73.5c-7.3,3.5-31.2,15.6-35.9,17.9c-11.2,5.5-22.4,10.9-33.8,15.5c-8.1-1.5-12.6,0.5-14,2.3
			c-1.8,2.3,13.9-20.6,11.3-39.8c-2.2-16.7,1.4-9.3-26.9-5.8c-8,1-13.3-4.5-8.1-3.9c8.4,0.9,35.7-18.9,29.5-17.4
			c-14.4,3.3-24.2-17.8-24.2-17.8s24.3-22.6,29.7-27.9c-0.4-0.6-12.8-6.6-35.9-40.4c-3.5-5.2-5.5-16.2-14.1-25.3
			c-1.4-1.5,55.2-72.3,40.8-81.4c-10.7-6.8-43,18.1-79.5,54.3c-8.8-2.9-66.6-18.1-115.6,9.1c-13.4,58.7,21,108.5,27.5,117.6
			c-27.9,43-41.1,85.7-32.2,95c8.6,9,54.2-44.5,64.5-58.8c8.6,18.1,30.1,40.7,50,55.6c12.8,9.5,30,31.2,30,31.2
			c0.4,0.1-49.2,53.1-49.2,53.1s-18.5,31.6,6.7,40c15.7,5.2,62.4,1.1,97.2-3c2.1,19.3-3.6,45.9-19.1,48c-27.9,3.9-36,9.7-46.4,46.7
			l30.8,31.6c-5.7,6.9-22,26.5-22.6,26.1l-68.9-110c0,0,6.3,0.5,6.5-3.6c0.6-9.6-42.6-65.4-50.6-38.3
			c-0.2,0.7-34.5,177.3-34.5,177.3c19.2-24.5,46.5-61.7,62.9-89.8c2.4-4.4,0.1-21.2,1.2-19.2c8.3,14.5,60.1,124.7,69.7,137.6
			c19.8,26.9,42.9,16.7,62.5-10.4c7.3-10.1,11.2-15.6,17.6-24.4c0,0,25.1,28.1,31.5,26.1c39.2-12.3,38.7-107.9,57.4-151.9
			c35.7,29.3,18.2,65.7,52.4,84.8c7.2,4,44-38.3,44-38.3c4.7,3.7,10.5,10.8,13.8,12.8c-21.5,59.7-38.2,124.5-38.2,124.5
			s-12.8-7.2-14.1-0.9c-8.5,42-9.3,73.3,10.8,62.7l151.4-70.5C608.6,1021,534.2,1012.1,508.8,1011.2z M210.5,562.3
			C210.5,562.3,210.5,562.2,210.5,562.3c-1.4-0.1-2.4-0.1-2.7,0c-0.1,0,2.4-12.4,6.7-22.2c0.9,3.4,2.8,6.4,5.8,8.4
			c6.3,4.3,14.5,2.2,18.4-4.6c3.9-6.8,2-15.8-4.2-20.1c0,0-0.1-0.1-0.1-0.1c6.5-1,12.7,1.3,20.8,5.7c-2.5,8.1-5.2,14.3-11.1,20
			c-2.1,2.3-4.6,4.4-7.9,6.5C224.9,563.2,211.6,562,210.5,562.3z M223.1,770.6l37.6-33.3c0,0,8.7,16,16.2,30.1
			C252,770.3,227.1,772.4,223.1,770.6z"/>
	</g>
	<polygon class="st14" points="255,160 250.8,146 217.6,155.9 187.4,138.5 217.8,120.9 250.9,130.4 254.9,116.3 235.5,110.7 
		254.7,99.6 247.4,86.9 227.9,98.1 232.8,77.9 218.5,74.5 210.5,108.2 179.8,125.9 179.8,90.4 205,66.6 194.9,55.9 179.8,70.3 
		179.8,47.9 165.1,47.9 165.1,70.1 150.5,56 140.4,66.5 165.1,90.4 165.1,125.7 134.9,108.2 126.8,74.4 112.6,77.8 117.4,98.1 
		98,86.9 90.7,99.6 109.9,110.7 90.4,116.3 94.5,130.4 127.5,120.8 158.1,138.5 127.8,155.9 94.6,146 90.4,160.1 110.4,166 
		91,177.2 98.3,189.9 117.5,178.8 112.6,198.5 126.8,202 135.1,168.7 165.1,151.3 165.1,185.9 140.4,209.8 150.5,220.3 165.1,206.3 
		165.1,228.5 179.8,228.5 179.8,206 194.9,220.4 205,209.7 179.8,185.9 179.8,151 210.3,168.6 218.5,202 232.8,198.5 227.9,178.8 
		247.1,189.9 254.5,177.2 235,166 	"/>
	<polygon class="st14" points="477.2,276.3 465.4,267.7 445,295.9 410.5,300.5 423.9,267.9 455.9,255.3 450.5,241.7 431.6,249.1 
		440.1,228.6 426.6,223 418,243.7 409.5,224.7 396.1,230.7 410.3,262.4 396.8,295.2 375.2,267 380.6,232.7 366.1,230.4 362.9,251 
		349.2,233.3 337.6,242.2 351.1,259.8 331,257.6 329.4,272.1 363.5,275.9 385.1,303.9 350.4,308.5 323.5,286.6 314.2,298 
		330.4,311.1 308.3,314.1 310.2,328.6 332.2,325.7 320.2,342 332,350.7 352.3,323 387.3,318.3 374,350.6 341.6,363.1 346.8,376.8 
		366.3,369.3 357.8,390 371.3,395.6 379.7,375.1 387.9,393.6 401.3,387.8 387.5,356.3 400.7,324.2 421.8,351.6 416.8,385.6 
		431.3,387.8 434.2,367.7 447.8,385.3 459.4,376.4 445.7,358.6 466.5,360.7 467.9,346.2 433.4,342.6 412.1,315 447,310.4 
		473.9,331.8 483.1,320.3 467.2,307.7 489.2,304.7 487.3,290.2 465,293.2 	"/>
	<polygon class="st14" points="617.8,224.2 624.8,211.4 594.5,194.6 585.8,160.9 619.7,170.3 636,200.5 648.9,193.6 639.3,175.7 
		660.7,181.7 664.6,167.6 643,161.6 660.8,150.8 653.3,138.3 623.6,156.2 589.4,146.7 614.7,121.8 649.4,123.1 650,108.5 
		629.1,107.7 645.1,92 634.9,81.5 619,97.1 618.8,76.8 604.2,76.9 604.5,111.3 579.4,136 570.6,102.2 589.1,72.8 576.7,65 
		565.6,82.7 560,61 545.8,64.7 551.4,86.1 533.7,76.2 526.5,88.9 556.4,105.8 565.2,140 531.6,130.6 515.4,99.9 502.4,106.8 
		512.2,125.2 490.6,119.2 486.7,133.3 508,139.3 490.6,149.6 498,162.2 527.6,144.7 561,154 536.3,178.3 502,177.3 501.6,191.9 
		521.8,192.5 506,208.1 516.2,218.5 532.2,202.8 532.6,223.6 547.3,223.4 546.6,188.7 571.5,164.3 580.3,198.3 562.3,227.6 
		574.8,235.3 585.4,218 590.9,239.6 605.1,235.9 599.5,214.2 	"/>
	<polygon class="st14" points="884.3,274.1 874.4,263.3 848.8,286.6 814,284.1 833.8,255 867.7,249.2 865.3,234.7 845.3,238.2 
		857.8,219.8 845.7,211.5 833,230.1 828.6,209.7 814.3,212.9 821.7,246.8 801.8,276.1 786.3,244.1 798.7,211.7 785,206.4 
		777.6,225.9 767.8,205.8 754.6,212.1 764.3,232.1 745,225.8 740.4,239.7 773.1,250.4 788.4,282.2 753.6,279.6 731.7,252.7 
		720.3,261.9 733.5,278.1 711.2,276.5 710.1,291.1 732.2,292.7 717.1,306.2 726.9,317.1 752.5,294.2 787.6,296.8 768,325.7 
		733.7,331.2 736.1,345.7 756.7,342.4 744.1,360.9 756.2,369.1 768.6,350.8 772.8,370.6 787.1,367.6 780.1,334 799.6,305.3 
		814.6,336.5 802.7,368.7 816.4,373.8 823.5,354.8 833.2,374.8 846.3,368.4 836.6,348.2 856.5,354.5 860.9,340.6 827.8,330.1 
		812.7,298.7 847.8,301.3 869.7,327.7 881,318.4 868,302.8 890.2,304.4 891.3,289.8 868.9,288.1 	"/>
	<polygon class="st14" points="1064.7,211.1 1071.5,198.1 1040.7,182.1 1031,148.6 1065.2,157.1 1082.4,186.9 1095.1,179.6 
		1084.9,162 1106.5,167.4 1110.1,153.2 1088.3,147.7 1105.8,136.5 1097.9,124.2 1068.7,142.9 1034.3,134.3 1059,108.8 1093.7,109.1 
		1093.8,94.5 1073,94.3 1088.5,78.1 1078,68 1062.6,83.9 1061.8,63.7 1047.2,64.2 1048.5,98.6 1024,123.9 1014.3,90.4 1032,60.5 
		1019.4,53 1008.8,71 1002.6,49.5 988.5,53.5 994.6,74.8 976.7,65.3 969.9,78.3 1000.2,94.4 1010,128.3 976.1,119.8 959,89.6 
		946.3,96.8 956.5,114.9 934.8,109.5 931.2,123.7 952.8,129.1 935.6,139.9 943.4,152.3 972.5,134 1006.2,142.4 982.1,167.3 
		947.7,167.3 947.7,181.9 968,181.9 952.5,197.9 963.1,208.1 978.7,192 979.6,212.8 994.3,212.1 992.7,177.4 1016.9,152.4 
		1026.6,186.2 1009.4,215.9 1022.1,223.3 1032.2,205.7 1038.3,227.1 1052.4,223.1 1046.2,201.5 	"/>
</g>
</svg>
