<?xml version="1.0" encoding="utf-8"?>
<!-- Generator: Adobe Illustrator 26.0.1, SVG Export Plug-In . SVG Version: 6.00 Build 0)  -->
<svg version="1.1" xmlns="http://www.w3.org/2000/svg" xmlns:xlink="http://www.w3.org/1999/xlink" x="0px" y="0px"
	 viewBox="0 0 1152 1127" style="enable-background:new 0 0 1152 1127;" xml:space="preserve">
<style type="text/css">
	.st0{display:none;}
	.st1{display:inline;}
	.st2{fill:#FFFFFF;}
	.st3{display:inline;fill:#FFFFFF;}
	.st4{fill:none;stroke:#000000;stroke-width:50;}
	.st5{stroke:#000000;stroke-width:50;}
	.st6{stroke:#FFFFFF;stroke-width:50;}
	.st7{display:inline;stroke:#1C1B1A;stroke-width:60;stroke-miterlimit:10;}
	.st8{fill:#FFFFFF;stroke:#1C1B1A;stroke-width:60;stroke-miterlimit:10;}
	.st9{fill:none;stroke:#1C1B1A;stroke-width:60;stroke-miterlimit:10;}
	.st10{stroke:#FFFFFF;stroke-width:0.998;stroke-miterlimit:10;}
	.st11{stroke:#FFFFFF;stroke-width:60;stroke-miterlimit:10;}
	.st12{stroke:#FFFFFF;stroke-miterlimit:10;}
	.st13{fill:none;}
	.st14{fill:#1C1B1A;}
</style>
<g id="Ebene_1" class="st0">
</g>
<g id="Ebene_2">
	<g>
		<path d="M958.7,228.6c-11.8-0.7-21.8,8.4-22.5,20.1c-0.3,5.6,1.6,10.7,4.8,14.7l-45.4,21.2l5.9-48.9c11.6,0.5,21.5-8.5,22.2-20.1
			c0.7-11.8-8.4-21.8-20.1-22.5c-11.8-0.7-21.8,8.4-22.5,20.1c-0.4,7.9,3.5,15,9.7,19.1L841,266l-12.8-55.9
			c9.1-2,16.1-9.9,16.6-19.6c0.7-11.8-8.4-21.8-20.1-22.5c-11.8-0.7-21.8,8.4-22.5,20.1c-0.6,11.2,7.5,20.8,18.3,22.3l-28.1,73.2
			l122.4,54.5l31.4-70.2c2.9,1.8,6.4,3,10.1,3.2c11.8,0.6,21.8-8.4,22.5-20.1C979.5,239.3,970.4,229.2,958.7,228.6"/>
		<path d="M1020.6,901.1c-26.2,18.2-59,47.3-85.2,92.4c2.5-19-25.6-131.2-55.9-123.3c-6,16.1-11,23.6-11,23.6s-8.3-0.5-11.8-1.1
			c-53-8.7-105-23.4-150.9-46.6c-43.2-21.8-72.8-48.9-101.1-82.4c0,0.1,0,0.1,0,0.2c0,0.7-2.6,31.5-2.6,31.5
			c-10.5-74.8-61.7-122-84-119.4c-85.3,18.4-5.2,259.8-5.3,259.8l-52.5-51.2l63,110.2c0,0,9.9-5.9,11.8-21c1.3-10.5-4.1-18-3.9-18.4
			c19.8-57.3,6.4-105.5,5.2-138.2c5.3,16.1,26,106.3,84,115.9c-3.9-22.3-7.2-48.2-7.9-49.9c54.3,46.4,133.7,79.2,221.8,71.5
			c-2.2,4-4.9,8.3-7.8,12.6c2.1,3.6,61.7,102.9,101,90.4c82.7-26.2,107.6-139,107.6-139l45.9,72l-33-123.3
			C1033.3,867.1,1020.6,901.1,1020.6,901.1"/>
		<path d="M627.5,960.2c8.4,30.2,24.7,78.4,51.8,106.4c36.5-18.6,58.7-25,78.2-35.6C712.2,1020.9,637.8,977,627.5,960.2"/>
		<path d="M809.7,519.8c-18.8,0-34.1-15.3-34.1-34.1s15.3-34.1,34.1-34.1c18.8,0,34.1,15.3,34.1,34.1S828.5,519.8,809.7,519.8
			 M753.3,409.6c-10.1-8.2-24.9-42-24.9-42s41.1-6.9,51.2,1.3c10.1,8.2,26.2,38.1,26.2,42c0,0-7.7,1.2-17.2,2.1
			c2.4-2.9,3.9-6.5,3.9-10.6c0-9.1-7.3-16.4-16.4-16.4c-9.1,0-16.4,7.3-16.4,16.4c0,4.1,1.5,7.8,3.9,10.6
			C759.1,412.4,755.4,411.3,753.3,409.6 M764.9,320.9c-0.1,0-0.3,0.1-0.4,0.1C764.6,320.9,764.7,320.8,764.9,320.9 M1085,305.9
			c-10.5-69.6-30.2-108.9-45.9-112.9c-19.1-4.8-10.5,63-15.7,94.5c-2.2,13.2-22.3,17.1-31.5,18.4c-22,3.1-41.7,11.8-41.7,59
			c0,44.1,11.8,118.1,28.9,177.2c48.5,167.9-31.5,30.2-106.3,66.9c-2.6-10.5-6.6-22.3-7.9-31.5c36-13.7,60.4-48.6,69.6-111.5
			c6.3-43-12.1-106.3-94.7-140.4c-22.8-9.4-44.1-10.8-63.5-7.3c-8.9-49.5-28.1-84.5-75.6-117.4c-17.1-11.8-59-31.5-63.9-20.6
			c-0.4,8.8,40.3,12.7,77,45.5c27.2,24.3,40.7,48.6,49.7,92.5c0.1,0.7,0.3,1.2,0.4,1.6c-18-26-84.2-71.5-165.4-93
			c-8.3-2.2-26.4-10.3-27.9-0.5c-1.6,11.1,51.3,15.1,105.5,44.6c45.1,24.5,67.1,43.1,77.3,53.8c-37.7,14.9-66.8,46.3-84.3,66.3
			c4.5,12.7,11.4,25.7,19.8,37.8c19.3,27.8,51.5,38.6,72.4,39.7c-12.2,38.1-89.9,24.5-103.7-13.1c-5.5,22.4,6.4,80.3,35.4,108.9
			c21.6,21.3,76.1,22.3,86.6,24.9l-9.2,9.2c-11.4,1.8-32.8,0-56.4,0c-43.3-3.9-105-56.4-132.5-108.9c-9.9-18.9,43-89.6,48.6-112.9
			c7.9-32.8-13.4-38-34.4-35.4c-5.2,0.6-25.7-3.6-31.5-15.7c-19.4-40.4-55.6-137.5-74.6-136.5c-36,1.9-7.9,134.6-7.9,170.6
			c0,36.7-10.5,135.1-10.5,147c0,78.7,68.5,130,105,145.7c36.5,15.6,86.4-10,126-6.6c-48.6,14.6-74.4,29.6-86.9,53.7
			c4.4,4.7,12.6,14.6,15.3,17.1c18.1,17.1,33.1,31.9,56.7,43.7c22.6,11.3,47.3,19.4,72.3,26.8c48.1,14.2,84.1,17.1,134.3,11.2
			c0.7-21.1-1.5-46-9.7-74c0.1,1.4,0.1,2.8,0.1,4.2c-57.7-4.6-126.9-38.3-163.9-82.9c11.9-7.7,40.8-24.8,50-35.3
			c0,0,38.1,16.3,56,17.6c9.6,0.7,33,0.9,33-3.2c4.4,30.9,18.9,58.7,23.5,87.4c37.7,59,186.5,270,202.4-41.5
			C1087.1,633.9,1094.1,365.9,1085,305.9"/>
	</g>
	<g>
		<g>
			<path class="st12" d="M291.2,178.9c1,5.3,1.5,10.7,1.5,16.2c0,6.8-0.8,13.4-2.2,19.8h62.9v-36H291.2z"/>
			<path class="st12" d="M110.4,195.1c0-5.6,0.6-11,1.5-16.2H44.7v36h67.9C111.2,208.5,110.4,201.9,110.4,195.1z"/>
		</g>
		<g>
			<path class="st12" d="M276.8,246.6c-6.9,10-15.7,18.5-25.8,25.1l45.5,45.5l25.5-25.5L276.8,246.6z"/>
			<path class="st12" d="M150.1,119.9L103.2,73L77.8,98.5l47.3,47.3C131.6,135.6,140.1,126.8,150.1,119.9z"/>
		</g>
		<g>
			<path class="st12" d="M201.6,103.9c6.2,0,12.2,0.6,18,1.8V40.3h-36v65.5C189.4,104.6,195.4,103.9,201.6,103.9z"/>
			<path class="st12" d="M201.6,286.3c-6.2,0-12.2-0.6-18-1.8V349h36v-64.5C213.8,285.7,207.8,286.3,201.6,286.3z"/>
		</g>
		<path class="st12" d="M201.6,129.7c-36.1,0-65.5,29.4-65.5,65.5c0,36.1,29.4,65.5,65.5,65.5c36.1,0,65.5-29.4,65.5-65.5
			C267.1,159,237.7,129.7,201.6,129.7z"/>
		<g>
			<path class="st12" d="M278.2,145.8l46.3-46.3L299,74l-45.9,45.9C263.1,126.8,271.6,135.6,278.2,145.8z"/>
			<path class="st12" d="M126.4,246.6L81.1,292l25.5,25.5l45.7-45.7C142.1,265.1,133.3,256.6,126.4,246.6z"/>
		</g>
	</g>
	<path d="M115,481.9c0.4-48.5,39.8-87.7,88.4-87.7c48.8,0,88.4,39.6,88.4,88.4c0,0.2,0,0.5,0,0.7c6.4-1.5,13.1-2.2,19.9-2.2
		c48.8,0,88.4,39.6,88.4,88.4s-39.6,88.4-88.4,88.4c-0.1,0-0.3,0.1-0.3,0.1l-178.9-0.2c-1.8,0.1-3.7,0.2-5.6,0.2
		c-48.8,0-88.4-39.6-88.4-88.4C38.6,524.8,71.8,487.8,115,481.9z"/>
	<path id="Pfad_470_00000008849672982641541760000018304704205997237637_" d="M272.1,762.9L272.1,762.9L272,763l0,0
		c-3.2,10.5-0.9,21.9,6.2,30.4c11.5,13.7,31.9,15.5,45.6,4c9.5-7.9,13.6-20.6,10.6-32.6l0,0l0-0.1c-0.5-2.1-1.3-4.1-2.2-6.1
		l-24-66.5l-31.3,61.4C274.8,756.4,273.2,759.5,272.1,762.9"/>
	<path id="Pfad_470_00000018955724806192593440000005245533141135395236_" d="M171.1,916.9L171.1,916.9L171,917l0,0
		c-3.2,10.5-0.9,21.9,6.2,30.4c11.5,13.7,31.9,15.5,45.6,4c9.5-7.9,13.6-20.6,10.6-32.6l0,0l0-0.1c-0.5-2.1-1.3-4.1-2.2-6.1
		l-24-66.5l-31.3,61.4C173.8,910.4,172.2,913.5,171.1,916.9"/>
	<path id="Pfad_470_00000147924409098094478760000001116010600982655378_" d="M91.1,773.9L91.1,773.9L91,774l0,0
		c-3.2,10.5-0.9,21.9,6.2,30.4c11.5,13.7,31.9,15.5,45.6,4c9.5-7.9,13.6-20.6,10.6-32.6l0,0l0-0.1c-0.5-2.1-1.3-4.1-2.2-6.1
		l-24-66.5l-31.3,61.4C93.8,767.4,92.2,770.5,91.1,773.9"/>
	<path id="Pfad_470_00000132795175599912892540000010293484488489105282_" d="M280.1,999.9L280.1,999.9l-0.1,0.1l0,0
		c-3.2,10.5-0.9,21.9,6.2,30.4c11.5,13.7,31.9,15.5,45.6,4c9.5-7.9,13.6-20.6,10.6-32.6l0,0l0-0.1c-0.5-2.1-1.3-4.1-2.2-6.1
		l-24-66.5l-31.3,61.4C282.8,993.4,281.2,996.5,280.1,999.9"/>
</g>
</svg>
