<?xml version="1.0" encoding="utf-8"?>
<!-- Generator: Adobe Illustrator 26.0.1, SVG Export Plug-In . SVG Version: 6.00 Build 0)  -->
<svg version="1.1" xmlns="http://www.w3.org/2000/svg" xmlns:xlink="http://www.w3.org/1999/xlink" x="0px" y="0px"
	 viewBox="0 0 1152 1127" style="enable-background:new 0 0 1152 1127;" xml:space="preserve">
<style type="text/css">
	.st0{display:none;}
	.st1{display:inline;}
	.st2{fill:#FFFFFF;}
	.st3{display:inline;fill:#FFFFFF;}
	.st4{fill:none;stroke:#000000;stroke-width:50;}
	.st5{stroke:#000000;stroke-width:50;}
	.st6{stroke:#FFFFFF;stroke-width:50;}
	.st7{display:inline;stroke:#1C1B1A;stroke-width:60;stroke-miterlimit:10;}
	.st8{fill:#FFFFFF;stroke:#1C1B1A;stroke-width:60;stroke-miterlimit:10;}
	.st9{fill:none;stroke:#1C1B1A;stroke-width:60;stroke-miterlimit:10;}
	.st10{stroke:#FFFFFF;stroke-width:0.998;stroke-miterlimit:10;}
	.st11{stroke:#FFFFFF;stroke-width:60;stroke-miterlimit:10;}
	.st12{stroke:#FFFFFF;stroke-miterlimit:10;}
	.st13{fill:none;}
	.st14{fill:#1C1B1A;}
</style>
<g id="Ebene_1" class="st0">
</g>
<g id="Ebene_2">
	<g>
		<g>
			<path class="st12" d="M990.2,178.9c1,5.3,1.5,10.7,1.5,16.2c0,6.8-0.8,13.4-2.2,19.8h62.9v-36H990.2z"/>
			<path class="st12" d="M809.4,195.1c0-5.6,0.6-11,1.5-16.2h-67.2v36h67.9C810.2,208.5,809.4,201.9,809.4,195.1z"/>
		</g>
		<g>
			<path class="st12" d="M975.8,246.6c-6.9,10-15.7,18.5-25.8,25.1l45.5,45.5l25.5-25.5L975.8,246.6z"/>
			<path class="st12" d="M849.1,119.9L802.2,73l-25.5,25.5l47.3,47.3C830.6,135.6,839.1,126.8,849.1,119.9z"/>
		</g>
		<g>
			<path class="st12" d="M900.6,103.9c6.2,0,12.2,0.6,18,1.8V40.3h-36v65.5C888.4,104.6,894.4,103.9,900.6,103.9z"/>
			<path class="st12" d="M900.6,286.3c-6.2,0-12.2-0.6-18-1.8V349h36v-64.5C912.8,285.7,906.8,286.3,900.6,286.3z"/>
		</g>
		<path class="st12" d="M900.6,129.7c-36.1,0-65.5,29.4-65.5,65.5c0,36.1,29.4,65.5,65.5,65.5c36.1,0,65.5-29.4,65.5-65.5
			C966.1,159,936.7,129.7,900.6,129.7z"/>
		<g>
			<path class="st12" d="M977.2,145.8l46.3-46.3L998,74l-45.9,45.9C962.1,126.8,970.6,135.6,977.2,145.8z"/>
			<path class="st12" d="M825.4,246.6L780.1,292l25.5,25.5l45.7-45.7C841.1,265.1,832.3,256.6,825.4,246.6z"/>
		</g>
	</g>
	<path d="M814,481.9c0.4-48.5,39.8-87.7,88.4-87.7c48.8,0,88.4,39.6,88.4,88.4c0,0.2,0,0.5,0,0.7c6.4-1.5,13.1-2.2,19.9-2.2
		c48.8,0,88.4,39.6,88.4,88.4s-39.6,88.4-88.4,88.4c-0.1,0-0.3,0.1-0.3,0.1l-178.9-0.2c-1.8,0.1-3.7,0.2-5.6,0.2
		c-48.8,0-88.4-39.6-88.4-88.4C737.6,524.8,770.8,487.8,814,481.9z"/>
	<g>
		<path d="M638.6,511c18.2-29.7,10.1-74.5-2.6-79.1c-5.2-1.9-37.9,46.4-39,49.6c-50.5-23-101.7,5.7-101.7,5.7
			c-8.4-10.1-40-68.7-49.1-43.2c-11.7,32.8-7.8,79,5.6,99.3c8.9-10.4,23.8-22.9,40.8-35.9c26.9-20.5,101.3-38.3,139.9,15.7
			C637.1,518.9,638.1,511.7,638.6,511"/>
		<path d="M587.6,231.7c0.6-0.4,0.4-0.7,0.5-0.2c0.1,0.3,0.1,0.6,0.2,0.9c0.8,0.9,1.5,1.8,2.3,2.7c0.6-0.8,1.6-1.7,4-2.3
			c14.3-3.3,31.3-20.5,37.6-33.4c-15.5-15-35.8-25.2-58.6-31.1c-3,11.3-8.8,27.8-16.2,39.9C569.3,214.3,578.8,221.9,587.6,231.7"/>
		<path d="M498.5,422.6c15.3,6.6,31.1,11,47.3,12.5c0,0,0.1,0,0.1,0c4.3,0,8.5-0.2,12.6-0.5c-9-13.4-18-36.5-10.2-57.4
			c-12.7,0.2-24.8-2-36.5-6.2C504,385.2,499.8,406.3,498.5,422.6"/>
		<path d="M603.5,252.3c5.6,13.9,9.1,26.2,10.9,37.2c0.5,0.1,1.1,0.2,1.8,0.4c15.5,4.8,42.4-3.3,52.8-12.5c-3.2-18-9-35.7-17.3-51.9
			c-1.3-2.5-2.7-5-4.2-7.4c-15.6,17.9-35.4,25.2-47.9,28.4C600.8,248.4,602.1,250.3,603.5,252.3"/>
		<path d="M615.9,305.2c0.4,16.8-3.6,29.8-9.5,39.7c3.9,19.8,30.7,27.7,50.7,28.6c10.5-20.6,15.1-44.5,14.5-68.9
			C649.6,312.8,629,309.1,615.9,305.2"/>
		<path d="M477.2,412c4-14.1,12.1-34.1,21.2-45.3c0.3-0.3,0.2-0.9,0.6-0.9c0.1,0,0.2,0,0.3,0c-11.8-5.7-23.1-13.3-34.1-22.2
			c-12.8,8.1-25.7,22.8-34.8,35.6C445.7,391.6,461.2,402.9,477.2,412"/>
		<path d="M642.6,395.3c-14-3-38.8-14.7-47.4-36.5c-14.3,13.3-30.6,16.8-30.7,16.8c-0.4,0.1-0.7,0.1-1.1,0.2
			c-6.8,17.3,10,43.1,19.9,54.9C608.9,424.5,628.4,411.9,642.6,395.3"/>
		<path d="M500.9,191.4c15.9,2.8,28.9,6,40.1,9.9c5.7-11.5,10.9-24.6,10.5-37.4c-15.6-2.2-32-2.7-48.5-1.8
			c-17.4,1-38.7-1.5-42.5,9.7C454.5,190.1,477.6,188.1,500.9,191.4"/>
		<path d="M179.1,230.3c15.6-7.8,34.9-10.6,50.5-8c12.1-21.6,23.3-47.5,14.5-72.3c-36.7-10.8-72.3-6.5-101.4,8.1
			C162,173.5,173.9,205.8,179.1,230.3"/>
		<path d="M146,275.8c1.9-8.1,5-16.2,9.5-24.4c1.3-2.4,2.9-4.6,4.7-6.8c-9.3-24.5-22-54.1-48.9-64.4c-23.7,22.7-38.3,54.2-37.8,89.3
			C92.8,261.8,130.7,266.4,146,275.8"/>
		<path d="M333.2,203.2c-18.5-17.5-37.7-32-58.3-40.6c-0.2-0.1-0.5-0.2-0.7-0.4c-0.5,22-10.7,48-22.6,66.7
			c16.1,6.8,32.1,17.4,48.4,30.4C316.6,244.5,332.2,226.2,333.2,203.2"/>
		<path d="M413.2,364.4c9.6-10.1,20.9-28.1,35-34.4c-14.4-13-22.5-24.1-36.4-39.8c-8.3,13.3-25.5,28.3-38.7,36.7
			C386.2,339.6,399.6,352.4,413.2,364.4"/>
		<path d="M357.4,311.6c12.5-4.4,34.9-25.2,41.3-36.4c-13.1-15.2-26.2-30.7-39.5-45.2c-9.5,16.8-25.6,32.9-41.2,44.7
			C331,286.1,344.1,298.7,357.4,311.6"/>
		<path d="M688,655.6c4.1-4.1,4-13.4-21.4-29.5c-9.1-5.7-31.8-30.2-34.8-34.8c-3-4.6-5.2-8.7-6.8-12.4c-1.5,1.1-3.2,2-5.2,2.7
			c-8.9,3.5-23.1,2.8-31.9,0c-10.6-3.3-14.6-6.8-13.7-18.2c1.1-13.8,8.8-37.6,15.2-44c1.9-1.9,3.8-3.6,5.7-5.1
			c-0.8-0.3-1.7-0.5-2.6-0.8c-27.3-7.4-53.3-0.9-77.3,13.1c8.9,2.1,18,8.1,23.8,13.2c9,7.8,20.8,18.9,24.4,30.6
			c0.6,2.6,3.3,6.2-1.3,12.4c-4.7,6.4-12.3,11.4-19.6,14.3c-16.2,6.6-31.5,10.9-48.4,4.3c-13.9-5.5-18.6-22.7-16.1-36.4
			c0.8-4.1,2.3-9.1,4.4-14.1c-7.8,6.9-15.2,14.4-22.3,22.2c-3.5,17.1,0,40.7,0.4,42.4C396.8,639.6,340.7,452.1,323.5,420
			c-17.2-32.1-38.8-62.1-66.1-85.8c-14.9-12.9-33.8-20.9-53.3-22.8c-19.5-1.9-56.9,12.1-56.9,12.1c-2-8.8-3.1-17-3.4-24.9
			c-16.9-10.4-52.5-15.6-66.3,1c3.9,15.1,10.6,30.6,20.7,46.1C-72,507.6,233.2,746.1,57.1,955.5c-2.8,3.3-5.6,5.3-6,9.8
			c-0.3,3.8,1.4,6.8,3.4,10.7c12,23.5,26.8,71.4,49.3,80.2c4.6,1.8,22.8,0,32.2,0h9.4c4,0,9.9-1.4,6.7-9.4
			c-2.7-6.7-32.2-2.7-42.9-9.4c-8.2-5.1-13.4-24.1-13.4-24.1s9.1,10.5,17.4,17.4c8,6.7,44.2,4,46.9,14.7c1.3,5.3,2.8,10.7,9.4,10.7
			c6.7,0,7.5-8.4,6.7-13.4c-1.7-10.7-25.1-14.3-49.6-24.1c-6.7-2.7-10.7-17.4-10.7-17.4s8.3,9.8,20.1,13.4
			c17.4,5.4,36.2,10.7,44.2,18.8c3.5,3.5,4.4,9,4,14.7c-0.2,3-1.3,9.4,8,8c5.5-0.8,6.7-9.7,6.7-13.4c0-13.4-16.6-27.5-29.5-32.2
			c-14.7-5.4-31.4-10.5-31.4-10.5s3.7-0.3,8.7-0.3c9.4,0,33.5,4.1,33.5-5.4c0-10.7-62.8-2.5-68-10.5c-1.3-2-7.8-12.1-9.1-16.1
			c31.2-20.6,98.9-88.6,114.3-125.7c20.1-48.4,6-85.8,2.2-133.7c20,39.4,40.3,74,36.9,101.2c-11.6,92.8-27,149.2-35.1,174.2
			c-6.9,21.5-13.3,42.6-5.2,51c7.8,8,29.8,19.9,47.1,19.9c14.3,0,39.5,3.4,40.2-1.3c1.3-9.4-26.8-10.7-26.8-10.7s12.1-4,31.4,3.2
			c8.9,3.3,7.5,10.2,15.5,10.2c6.7,0,1.3-16.1-10.7-20.1c-16.3-5.4-35.4-6.3-35.4-6.3s22.7-4.6,42.1,2.3c11.4,4,12.1,24.1,20.1,24.1
			c6.7,0-2.7-29.5-18.8-34.8c-16.4-5.5-36.2-5.4-36.2-5.4s34.6-3.4,42.9,0c22.8,9.4,17.4,40.2,26.8,40.2c6,0,3.6-40.4-20.1-49.6
			c-22.7-8.8-85.2,1.8-84.3-6.5c1.3-3,2.6-5.9,3.9-8.8c27.8-60.7,81.2-102.4,94.9-180.8c3-17.3-18.2-93.2-22.7-104.7
			c35.5,18.3,60.7,27.4,100.3,28.9c-9.5,42.1-76.5,142.8-77.5,162.5c-0.9,16.5,4.9,41,11.6,56c17.3,39.2,58.4,80.6,61.1,83.1
			c0,0,14.9,19.6,23.8,19.6c21.6,0,5.3-27.9,29.6-27.9c1.3,0,1.3,13.4,0,18.8c-0.5,1.9-6.7,1.3-8,4c-1.9,3.8,1.9,5.4,4,5.4
			c8,0,11.4-1.2,13.4-9.4c9.4-38.9-9.4-33.5-9.4-33.5c0-1.4,6.1-8,12.1-8c2.7,0,6.7,1.3,6.7,8.6c0,0.8,0.8,19.5,0,31.6
			c-0.3,4-4.8,5.2-5.4,9.4c-0.3,2.5,13.4,4,13.4-9.4c0-7.5,1-27.2,1-32.6c0-26.4-13.7-17.6-13.6-18.1c0.4-3.5,11.1-12.1,16.7-6.9
			c3.4,3.1,2.8,17.9,2.9,23c0.1,4.9-0.2,27.9-0.2,33.3c0,5.4-5.4,6.7-5.4,10.7c0,4,14.7,1.3,14.7-10.7c0-32.2,12.1-152.8-71.8-22.4
			c-1.2-2.2-15.4-74-45.7-110c22.4-20.9,83.9-120.5,83.9-120.5c19.4,41.9,42.6,64.4,63.4,105.6c12.5,24.8,27.3,61.7,28.6,65.7
			c1.4,4.2,4.5,51-4.8,78.9c-1.3,4-12.2,12.6-8.3,13.6c6.9,1.1,15.3,0.5,19-4.2c9.4-12.1,11-61.5,11-61.5s7.8,52.1,13.1,60.2
			c5.6,8.4,24.3,7.8,24.3,6.4c0-14.8-8.4-9.1-13.6-18.5c-9.6-17.3-10.9-57.5-10.9-57.5s11,36,22.7,59.6
			c6.5,13.1,25.1,18.8,29.5,15.2c0.3-13.3-13.3-9.3-18.8-20.7c-10.6-22.2-21.2-59.7-21.2-59.7s22.3,44.5,37.3,65.1
			c8,11.1,21.7,18,29.5,15.2c1.6-13.2-6.1-7.3-14.7-18c-27.9-34.1-57.1-96.4-57.7-99.7c-3.9-21.4-80.6-231.9-78-231.9
			c26,0,77,14.6,98.4-28.2c-41.5,0-70-18.8-80.4-41.5C565.7,647.6,662.5,681.1,688,655.6"/>
		<path d="M525,562c3.5-2.8,8-3.6,12-2.6c-2.3-4-5-7.4-7.8-8.6c-15.6-6.9-28,8.3-32.1,12.9c-0.1,1,6.1,13.8,10.5,17.7
			c5.3,4.7,13.9,6.3,22.1,4.8c-2.7-0.8-5.1-2.4-7-4.7C517.9,575.6,519,566.8,525,562"/>
		<path d="M626,541.3c0.1-0.6,0.1-1.1,0-1.5c-5.1-4.1-16.2-11.8-23.1-8.3c-12.2,6.1-15,23.2-13.7,33.4c0.3,0.8,21.2,9.9,30.5,2.7
			c-0.7-0.1-1.3-0.3-2-0.5c-7.1-2.4-10.9-10.1-8.5-17.2C611.6,543.1,619.1,539.3,626,541.3"/>
	</g>
</g>
</svg>
