<?xml version="1.0" encoding="utf-8"?>
<!-- Generator: Adobe Illustrator 26.0.1, SVG Export Plug-In . SVG Version: 6.00 Build 0)  -->
<svg version="1.1" xmlns="http://www.w3.org/2000/svg" xmlns:xlink="http://www.w3.org/1999/xlink" x="0px" y="0px"
	 viewBox="0 0 1152 1127" style="enable-background:new 0 0 1152 1127;" xml:space="preserve">
<style type="text/css">
	.st0{display:none;}
	.st1{display:inline;}
	.st2{fill:#FFFFFF;}
	.st3{display:inline;fill:#FFFFFF;}
	.st4{fill:none;stroke:#000000;stroke-width:50;}
	.st5{stroke:#000000;stroke-width:50;}
	.st6{stroke:#FFFFFF;stroke-width:50;}
	.st7{display:inline;stroke:#1C1B1A;stroke-width:60;stroke-miterlimit:10;}
	.st8{fill:#FFFFFF;stroke:#1C1B1A;stroke-width:60;stroke-miterlimit:10;}
	.st9{fill:none;stroke:#1C1B1A;stroke-width:60;stroke-miterlimit:10;}
	.st10{stroke:#FFFFFF;stroke-width:0.998;stroke-miterlimit:10;}
	.st11{stroke:#FFFFFF;stroke-width:60;stroke-miterlimit:10;}
	.st12{stroke:#FFFFFF;stroke-miterlimit:10;}
	.st13{fill:none;}
	.st14{fill:#1C1B1A;}
</style>
<g id="Ebene_1" class="st0">
</g>
<g id="Ebene_2">
	<g>
		<path d="M903.5,852.8l-76,22.6c-24.7-49.2-48-96.3-56.2-114.7l32.5,0.9c0,0,0.7-0.1,2.1-0.4C838.3,787.6,903.5,852.8,903.5,852.8
			 M782.1,297.1c-12.9,0-23.9,8.1-28.2,19.5c-12.6-8.9-21.6-15.3-21.6-15.3s52.9-64.7,98.2-25.3c32.3,28.1,3.8,93.7,2.3,94.4
			c-0.7,0.3-14.2-8.7-31.1-20.3c6.4-5.5,10.5-13.7,10.5-22.9C812.3,310.6,798.8,297.1,782.1,297.1 M1063.4,553.9
			c-13.1-20.6-42.5-42.6-66.4-47.7c-13-2.8-26.5-1-39.4,1.7c-39.8,8.4-162.2,72.7-208.5,92.3c153.5-106.9,175.4-243.3,172.6-268
			C910.5,234,795.4,166.6,729.5,186.3l-93.1-43.3c-5.2-1.9-10.8-2.2-16.2-0.8c-36.8,9.7-183.6,62.9-195.4,69.1
			c-2.7,1.4-1.6,5.6,1.5,5.4c30.6-2.3,171.7-7.1,193.7,7.6c67.4,44.9,91.2,37.9,91.2,37.9s-36.5,35.1-102.4,25.3
			c-4.6-0.7-178.2-46.3-178.2-46.3C424.2,274.3,531,335.9,558.3,356c112.3,82.8,169.6-21.5,189.4,2.8
			c37.9,46.3,96.1,182.9-71.6,186.6c0,0-38.7-85.7-54.7-105.2c-16-19.5-39.6-33.1-64.8-34.2c-26.9-1.1-51.2,18.6-63.3,42.6
			c-12.1,24-59.8,423.7-59.8,423.7C569.5,800.8,606,673.2,606,673.2s23.1,81.6,96.8,85.6l43.4,1.2c11,22,36.2,71.3,61.7,121.2
			l-96,28.6c-30.4,7.9-95.9,53.6-108.8,106.6c23-13,57.9-15.6,60.1,13.8c29.6-17.7,68.3-27.6,80.6,5.2
			c0.2-5.8-17.7-105.6-17.7-105.6l93.9-25.1c31.2,60.9,59.6,116.4,59.6,116.4c-61.7,1.4-110.8,56.1-110.8,65.9
			c19.6-19.6,103.8-16.8,124.9,0c21-18.2,73-18.2,120.7,0c-18.2-22.5-67.3-58.9-112.2-64.5c0,0-30.5-59.7-62.4-123l117.2-31.3
			c0,0-90.9-84.3-125.9-113.8c20.5-6.7,49.5-18.7,75.4-39.1c32.3,49.1,120.7,262.4,148.7,269.4c29.5-92.6,36.5-155.7,37.9-227.3
			C1094,699.7,1099.9,611.4,1063.4,553.9"/>
		<path d="M1005.9,386.9c14,16.8,23.9-1.4,18.2-11.2c-1.6-2.7-36.5-60.3-36.5-60.3c23.8-10.8,59.5-29.8,77.2-49.1
			c17.6-19.3,32.2-53.3,16.8-82.8c-16.8-32.3-59.1-69.3-98.2-46.3c-27,15.9-45.5,52.1-68.8,73c-0.8,0.7-30.2-39.4-48.2-62.3
			c-5.1-6.4-11.6-15.6-20.5-9.3c-9.8,7,1.4,21,1.4,21L1005.9,386.9z"/>
	</g>
	<g>
		<g>
			<path class="st12" d="M289.2,178.9c1,5.3,1.5,10.7,1.5,16.2c0,6.8-0.8,13.4-2.2,19.8h62.9v-36H289.2z"/>
			<path class="st12" d="M108.4,195.1c0-5.6,0.6-11,1.5-16.2H42.7v36h67.9C109.2,208.5,108.4,201.9,108.4,195.1z"/>
		</g>
		<g>
			<path class="st12" d="M274.8,246.6c-6.9,10-15.7,18.5-25.8,25.1l45.5,45.5l25.5-25.5L274.8,246.6z"/>
			<path class="st12" d="M148.1,119.9L101.2,73L75.8,98.5l47.3,47.3C129.6,135.6,138.1,126.8,148.1,119.9z"/>
		</g>
		<g>
			<path class="st12" d="M199.6,103.9c6.2,0,12.2,0.6,18,1.8V40.3h-36v65.5C187.4,104.6,193.4,103.9,199.6,103.9z"/>
			<path class="st12" d="M199.6,286.3c-6.2,0-12.2-0.6-18-1.8V349h36v-64.5C211.8,285.7,205.8,286.3,199.6,286.3z"/>
		</g>
		<path class="st12" d="M199.6,129.7c-36.1,0-65.5,29.4-65.5,65.5c0,36.1,29.4,65.5,65.5,65.5c36.1,0,65.5-29.4,65.5-65.5
			C265.1,159,235.7,129.7,199.6,129.7z"/>
		<g>
			<path class="st12" d="M276.2,145.8l46.3-46.3L297,74l-45.9,45.9C261.1,126.8,269.6,135.6,276.2,145.8z"/>
			<path class="st12" d="M124.4,246.6L79.1,292l25.5,25.5l45.7-45.7C140.1,265.1,131.3,256.6,124.4,246.6z"/>
		</g>
	</g>
	<path d="M113,481.9c0.4-48.5,39.8-87.7,88.4-87.7c48.8,0,88.4,39.6,88.4,88.4c0,0.2,0,0.5,0,0.7c6.4-1.5,13.1-2.2,19.9-2.2
		c48.8,0,88.4,39.6,88.4,88.4s-39.6,88.4-88.4,88.4c-0.1,0-0.3,0.1-0.3,0.1l-178.9-0.2c-1.8,0.1-3.7,0.2-5.6,0.2
		c-48.8,0-88.4-39.6-88.4-88.4C36.6,524.8,69.8,487.8,113,481.9z"/>
</g>
</svg>
