<?xml version="1.0" encoding="utf-8"?>
<!-- Generator: Adobe Illustrator 26.0.1, SVG Export Plug-In . SVG Version: 6.00 Build 0)  -->
<svg version="1.1" xmlns="http://www.w3.org/2000/svg" xmlns:xlink="http://www.w3.org/1999/xlink" x="0px" y="0px"
	 viewBox="0 0 1152 1127" style="enable-background:new 0 0 1152 1127;" xml:space="preserve">
<style type="text/css">
	.st0{display:none;}
	.st1{display:inline;}
	.st2{fill:#FFFFFF;}
	.st3{display:inline;fill:#FFFFFF;}
	.st4{fill:none;stroke:#000000;stroke-width:50;}
	.st5{stroke:#000000;stroke-width:50;}
	.st6{stroke:#FFFFFF;stroke-width:50;}
	.st7{display:inline;stroke:#1C1B1A;stroke-width:60;stroke-miterlimit:10;}
	.st8{fill:#FFFFFF;stroke:#1C1B1A;stroke-width:60;stroke-miterlimit:10;}
	.st9{fill:none;stroke:#1C1B1A;stroke-width:60;stroke-miterlimit:10;}
	.st10{stroke:#FFFFFF;stroke-width:0.998;stroke-miterlimit:10;}
	.st11{stroke:#FFFFFF;stroke-width:60;stroke-miterlimit:10;}
	.st12{stroke:#FFFFFF;stroke-miterlimit:10;}
	.st13{fill:none;}
	.st14{fill:#1C1B1A;}
</style>
<g id="Ebene_1" class="st0">
</g>
<g id="Ebene_2">
	<path d="M139.4,148.7C139.9,89.2,188.3,41,248,41c60,0,108.6,48.6,108.6,108.6c0,0.3,0,0.6,0,0.9c7.9-1.8,16-2.8,24.4-2.8
		c60,0,108.6,48.6,108.6,108.6S441,364.9,381,364.9c-0.1,0-0.3,0.1-0.3,0.1L161,364.7c-2.3,0.1-4.5,0.2-6.8,0.2
		c-60,0-108.6-48.6-108.6-108.6C45.6,201.3,86.4,155.9,139.4,148.7z"/>
	<g>
		<path d="M926.7,892l-64.5,19.2c-21-41.8-40.8-81.8-47.7-97.5l27.6,0.8c0,0,0.6-0.1,1.8-0.4C871.3,836.7,926.7,892,926.7,892
			 M823.6,420c-11,0-20.3,6.9-24,16.6c-10.7-7.6-18.4-13-18.4-13s44.9-54.9,83.4-21.5c27.4,23.8,3.2,79.6,2,80.2
			c-0.6,0.3-12.1-7.4-26.4-17.3c5.5-4.7,8.9-11.7,8.9-19.4C849.2,431.4,837.7,420,823.6,420 M1062.6,638.1
			c-11.1-17.5-36.1-36.2-56.4-40.5c-11-2.4-22.5-0.9-33.5,1.4c-33.8,7.2-137.8,61.7-177.1,78.4c130.4-90.8,149-206.7,146.6-227.7
			c-9.5-83.4-107.3-140.7-163.3-124L699.8,289c-4.4-1.6-9.2-1.9-13.8-0.7c-31.3,8.2-156,53.5-166,58.7c-2.3,1.2-1.3,4.7,1.3,4.6
			c26-2,145.9-6,164.6,6.4c57.2,38.1,77.5,32.2,77.5,32.2s-31,29.8-87,21.5C672.5,411,525,372.3,525,372.3
			c-5.5,28.3,85.3,80.6,108.5,97.8c95.4,70.3,144.1-18.2,160.9,2.4c32.2,39.3,81.6,155.4-60.8,158.5c0,0-32.9-72.8-46.5-89.4
			c-13.6-16.6-33.7-28.2-55.1-29c-22.8-0.9-43.5,15.8-53.8,36.2c-10.3,20.4-50.8,360-50.8,360C643,847.9,674,739.4,674,739.4
			s19.6,69.3,82.3,72.7l36.9,1c9.4,18.7,30.7,60.6,52.4,103L764,940.5c-25.8,6.7-81.5,45.5-92.5,90.6c19.5-11,49.2-13.2,51.1,11.7
			c25.2-15,58-23.5,68.5,4.5c0.1-4.9-15.1-89.7-15.1-89.7l79.7-21.3c26.5,51.8,50.6,98.9,50.6,98.9c-52.4,1.2-94.2,47.7-94.2,56
			c16.7-16.7,88.2-14.3,106.1,0c17.9-15.5,62-15.5,102.5,0c-15.5-19.1-57.2-50.1-95.4-54.8c0,0-25.9-50.8-53-104.5l99.5-26.6
			c0,0-77.2-71.6-107-96.7c17.4-5.7,42-15.9,64-33.3c27.4,41.7,102.5,222.9,126.4,228.9c25-78.7,31-132.3,32.2-193.1
			C1088.6,762,1093.6,687,1062.6,638.1"/>
		<path d="M1013.7,496.3c11.9,14.3,20.3-1.2,15.5-9.5c-1.3-2.3-31-51.3-31-51.3c20.2-9.2,50.6-25.3,65.6-41.7
			c15-16.4,27.4-45.3,14.3-70.3c-14.3-27.4-50.2-58.9-83.4-39.3c-22.9,13.5-38.6,44.2-58.4,62c-0.7,0.6-25.7-33.5-41-52.9
			c-4.3-5.5-9.9-13.3-17.4-7.9c-8.3,6,1.2,17.9,1.2,17.9L1013.7,496.3z"/>
	</g>
</g>
</svg>
