<?xml version="1.0" encoding="utf-8"?>
<!-- Generator: Adobe Illustrator 26.0.1, SVG Export Plug-In . SVG Version: 6.00 Build 0)  -->
<svg version="1.1" xmlns="http://www.w3.org/2000/svg" xmlns:xlink="http://www.w3.org/1999/xlink" x="0px" y="0px"
	 viewBox="0 0 750 750" style="enable-background:new 0 0 750 750;" xml:space="preserve">
<style type="text/css">
	.st0{display:none;}
	.st1{display:inline;}
	.st2{fill:#FFFFFF;}
	.st3{display:inline;fill:#FFFFFF;}
	.st4{fill:none;stroke:#000000;stroke-width:50;}
	.st5{stroke:#000000;stroke-width:50;}
	.st6{stroke:#FFFFFF;stroke-width:50;}
	.st7{display:inline;stroke:#1C1B1A;stroke-width:60;stroke-miterlimit:10;}
	.st8{fill:#FFFFFF;stroke:#1C1B1A;stroke-width:60;stroke-miterlimit:10;}
	.st9{fill:none;stroke:#1C1B1A;stroke-width:60;stroke-miterlimit:10;}
	.st10{stroke:#FFFFFF;stroke-width:0.998;stroke-miterlimit:10;}
	.st11{stroke:#FFFFFF;stroke-width:60;stroke-miterlimit:10;}
	.st12{stroke:#FFFFFF;stroke-miterlimit:10;}
	.st13{fill:none;}
	.st14{fill:#1C1B1A;}
</style>
<g id="Ebene_1" class="st0">
	<g class="st1">
		<line class="st8" x1="374" y1="5" x2="374" y2="745"/>
		<polyline class="st9" points="486.7,59.8 374,166.4 263.4,59.8 		"/>
		<polyline class="st9" points="486.7,689.9 374,583.3 263.4,689.9 		"/>
	</g>
	<g class="st1">
		<line class="st8" x1="54.1" y1="190.9" x2="694.9" y2="560.9"/>
		<polyline class="st9" points="157.9,120.7 193.9,271.6 46.2,314.1 		"/>
		<polyline class="st9" points="703.6,435.7 554.9,480 591.9,629.1 		"/>
	</g>
	<g class="st1">
		<line class="st8" x1="55.1" y1="560.9" x2="696" y2="190.9"/>
		<polyline class="st9" points="46.2,435.9 194.9,480.2 157.9,629.3 		"/>
		<polyline class="st9" points="591.9,120.9 555.9,271.7 703.6,314.3 		"/>
	</g>
</g>
<g id="Ebene_2">
	<polygon class="st14" points="712.1,464.5 695,407 558.7,447.6 435,376.2 559.9,304.1 695.2,343.1 711.9,285.4 632,262.4 
		711,216.9 681,164.9 601.3,210.9 621.1,127.8 562.7,113.9 529.7,252.2 404,324.8 404,179.3 507.3,81.6 466.1,38 404,96.7 404,5 
		344,5 344,95.8 284.2,38.2 242.5,81.4 344,179.2 344,323.6 220,252.1 187.1,113.8 128.7,127.7 148.5,210.8 69.1,164.9 39.1,216.9 
		117.8,262.3 37.9,285.3 54.5,342.9 189.9,303.9 315,376.2 191.1,447.7 54.8,407.1 37.7,464.6 119.5,489 40.1,534.9 70.1,586.9 
		148.8,541.4 128.8,622.1 187,636.5 220.9,499.8 344,428.7 344,570.6 242.5,668.3 284.2,711.5 344,653.9 344,745 404,745 404,653 
		466.1,711.7 507.3,668.1 404,570.4 404,427.5 528.9,499.6 562.8,636.4 621,621.9 601,541.3 679.9,586.9 709.9,534.9 630.3,488.9 	
		"/>
</g>
</svg>
