<?xml version="1.0" encoding="utf-8"?>
<!-- Generator: Adobe Illustrator 26.0.1, SVG Export Plug-In . SVG Version: 6.00 Build 0)  -->
<svg version="1.1" xmlns="http://www.w3.org/2000/svg" xmlns:xlink="http://www.w3.org/1999/xlink" x="0px" y="0px"
	 viewBox="0 0 1152 1127" style="enable-background:new 0 0 1152 1127;" xml:space="preserve">
<style type="text/css">
	.st0{display:none;}
	.st1{display:inline;}
	.st2{fill:#FFFFFF;}
	.st3{display:inline;fill:#FFFFFF;}
	.st4{fill:none;stroke:#000000;stroke-width:50;}
	.st5{stroke:#000000;stroke-width:50;}
	.st6{stroke:#FFFFFF;stroke-width:50;}
	.st7{display:inline;stroke:#1C1B1A;stroke-width:60;stroke-miterlimit:10;}
	.st8{fill:#FFFFFF;stroke:#1C1B1A;stroke-width:60;stroke-miterlimit:10;}
	.st9{fill:none;stroke:#1C1B1A;stroke-width:60;stroke-miterlimit:10;}
	.st10{stroke:#FFFFFF;stroke-width:0.998;stroke-miterlimit:10;}
	.st11{stroke:#FFFFFF;stroke-width:60;stroke-miterlimit:10;}
	.st12{stroke:#FFFFFF;stroke-miterlimit:10;}
	.st13{fill:none;}
	.st14{fill:#1C1B1A;}
</style>
<g id="Ebene_1" class="st0">
</g>
<g id="Ebene_2">
	<g>
		<g>
			<path class="st12" d="M1031.9,203.3c1,5.5,1.6,11.2,1.6,17c0,7.1-0.8,14-2.3,20.7h65.8v-37.7H1031.9z"/>
			<path class="st12" d="M842.7,220.3c0-5.8,0.6-11.5,1.6-17H774V241h71.1C843.6,234.3,842.7,227.4,842.7,220.3z"/>
		</g>
		<g>
			<path class="st12" d="M1016.8,274.2c-7.2,10.4-16.4,19.4-27,26.2l47.6,47.6l26.6-26.6L1016.8,274.2z"/>
			<path class="st12" d="M884.3,141.6l-49.1-49.1l-26.6,26.6l49.5,49.5C864.9,158,873.8,148.8,884.3,141.6z"/>
		</g>
		<g>
			<path class="st12" d="M938.1,124.9c6.5,0,12.7,0.7,18.8,1.9V58.3h-37.7v68.5C925.4,125.6,931.7,124.9,938.1,124.9z"/>
			<path class="st12" d="M938.1,315.7c-6.5,0-12.7-0.7-18.8-1.9v67.5H957v-67.5C950.9,315,944.6,315.7,938.1,315.7z"/>
		</g>
		<path class="st12" d="M938.1,151.8c-37.8,0-68.5,30.7-68.5,68.5c0,37.8,30.7,68.5,68.5,68.5c37.8,0,68.5-30.7,68.5-68.5
			C1006.6,182.5,975.9,151.8,938.1,151.8z"/>
		<g>
			<path class="st12" d="M1018.2,168.7l48.4-48.4L1040,93.6l-48,48C1002.4,148.8,1011.3,158,1018.2,168.7z"/>
			<path class="st12" d="M859.5,274.2L812,321.6l26.6,26.6l47.8-47.8C875.9,293.5,866.6,284.6,859.5,274.2z"/>
		</g>
	</g>
	<g>
		<path d="M171.4,340.8c-0.5-0.2-0.9-0.4-1.4-0.6"/>
		<path d="M568.9,206.5c4.8,11.2,3.6,28.7-2.5,46.1c-0.1-0.2-0.1-0.3-0.2-0.5c-6.9-14.3-24.1-20.3-38.4-13.4
			c-14.3,6.9-20.3,24.1-13.4,38.4c4.9,10.2,15.1,16.2,25.7,16.2c-16.4,14.4-38.4,20.5-64.1,7.1C475.6,300.2,509,218.9,568.9,206.5
			 M313.2,177.4c35.3-2.7,115.1,44.1,127.1,51.9c-5.3-2.1-126.6-51.2-215.3,28.8c-51.4,46.4-72.8,85.4-80.4,102.9
			c-38.2,87.2-35.4,173.4-32.8,180.6c28.4-142.6,108.4-233.1,170-263.2c44.5-21.8,99-3.5,145.1,27.1c-12.3,5.9-23.2,17-31.9,24.2
			c-4.9,4.1-5.6,7.2-4.3,10.2c0.7,1.7,3.8,2.6,8.6,2.5c7.5-0.2,30.3-9.2,51.5-19.4c12.7,10.2,18.5,15.8,28.7,26.6
			c12.9,17.1,5.7,38.6,1.4,47.2c-1.4,7.1,4.3,15.7,10,21.4c60,10,96-34.8,97.2-41.5c4-27.5,12.6-42.7,38.7-73.4
			c9.6-11.2,102.9-114.1,95.3-134.9c-4.9-13.4-7.8-17.6-12.3-21.1c-0.9-0.7-8.8,32.1-51.7,59.3c-13,8.2-39.4,13.5-38.6,12.9
			c62.9-47.2,77.2-64.3,77.5-71.9c0.7-15.6-19.8-32.2-32-35.1c-14.1-3.4-23.7,10-43.1,21.5c-41.4,24.3-89.5,26.2-127.7,49.2
			c-2.8-14.9-6-27.3-8.7-31.6c-2.6-4.1-5.1-6.1-6.9-5.8c-3.2,0.6-5.3,2.9-6.1,9.2c-1.2,10.4-3.9,24.1-2.9,36.8
			c-1.1,0.2-1.8,0.4-1.8,0.4c7.9-9-71.3-79.9-168-72c-24.7,2-109.1,7.8-178.5,111.2C85,285.8,88,391.5,91.8,408.2
			C117.7,281.6,167.8,188.6,313.2,177.4"/>
		<path d="M679.8,541.9l55.8,0.9c12.3-49.1-26.9-57.6-26.9-57.6s33.9-159.9,8.1-196.7c-12.3-21.9-105.9,76.8-124.5,95.4
			c7.2,15.7,0.7,74.3-31.4,125.8c-21.4,34.3-78.6,85.8-114.3,97.2c20-27.2,78.6-138.6,52.9-174.4c-2.3,0.4-5,0-8-0.9
			c0.3,1.5,0.2,3-0.5,4.2c-1,1.8-2.8,2.9-4.9,3.3c0.7,4.2,0.8,9.6-1.5,15c-6.3,15-13,24.6-13,24.6s-4.4-13.5-3.9-23.7
			c0.4-8.2,7.9-16.1,7.9-16.1s-6.1,6.4-13.2,10.7c-11.9,7.1-18.6,10-18.6,10s10.9-18,15.7-22.9c5.7-5.7,9.9-8.7,13.3-8.2
			c0.1-0.8,0.3-1.5,0.7-2.2c0.8-1.6,2.4-2.6,4.2-3.1c-3.5-3-6.8-6.7-9.6-10.8c-11.4,12.9-45.7,71.5-138.5,69.6
			c-84.2-1.7-327.4,69.1-225.8,307c7.8,18.2-30.7,43.2-30,63.3c20-10.1,64.4,2.8,69.4-18.1c3,30.6-22.7,83.1-15.1,112.5
			c3.5,13.5,101.3,106.4,95.1,138.6l62.9,2.2c2-15.1-7.2-40.8-7.2-40.8c-42.7-5.3-103.4-110.3-95.7-115.6
			c57.9-39.9,90.7-128.5,90.7-128.5c17.9,17.6,11.6,15.7,4.7,97.3c2.9,11,49.2,53.8,77.8,96.2c0,0,0.6,40.5-0.2,43.3l58.4,4.8
			c6.1-17.2,2.1-48.2,2.1-48.2c-34.9,4-85-44.5-77.6-101.4c0,0,81-79.8,74.8-160.6c99.9-38.3,117.3-103.4,134.5-153.4
			c0,0,65.3,52.9,84.3,42.9c0,0-51.9,84.9-51.9,85.8c0,1-27.5,39.8-27.5,41l22.8,46.2c19.1-6.8,46.5-24,28-55.4
			c-0.3-0.4,89.1-133.3,78.6-150.6c-11.8-19.5-98.6-88.5-98.6-88.5L682.6,386c12.9,5.1-10.8,105.6-10.8,105.6L679.8,541.9z"/>
	</g>
</g>
</svg>
