<?xml version="1.0" encoding="utf-8"?>
<!-- Generator: Adobe Illustrator 26.0.1, SVG Export Plug-In . SVG Version: 6.00 Build 0)  -->
<svg version="1.1" xmlns="http://www.w3.org/2000/svg" xmlns:xlink="http://www.w3.org/1999/xlink" x="0px" y="0px"
	 viewBox="0 0 1152 1127" style="enable-background:new 0 0 1152 1127;" xml:space="preserve">
<style type="text/css">
	.st0{display:none;}
	.st1{display:inline;}
	.st2{fill:#FFFFFF;}
	.st3{display:inline;fill:#FFFFFF;}
	.st4{fill:none;stroke:#000000;stroke-width:50;}
	.st5{stroke:#000000;stroke-width:50;}
	.st6{stroke:#FFFFFF;stroke-width:50;}
	.st7{display:inline;stroke:#1C1B1A;stroke-width:60;stroke-miterlimit:10;}
	.st8{fill:#FFFFFF;stroke:#1C1B1A;stroke-width:60;stroke-miterlimit:10;}
	.st9{fill:none;stroke:#1C1B1A;stroke-width:60;stroke-miterlimit:10;}
	.st10{stroke:#FFFFFF;stroke-width:0.998;stroke-miterlimit:10;}
	.st11{stroke:#FFFFFF;stroke-width:60;stroke-miterlimit:10;}
	.st12{stroke:#FFFFFF;stroke-miterlimit:10;}
	.st13{fill:none;}
	.st14{fill:#1C1B1A;}
</style>
<g id="Ebene_1" class="st0">
</g>
<g id="Ebene_2">
	<path d="M760.4,176.7C760.9,117.2,809.3,69,869,69c60,0,108.6,48.6,108.6,108.6c0,0.3,0,0.6,0,0.9c7.9-1.8,16-2.8,24.4-2.8
		c60,0,108.6,48.6,108.6,108.6S1062,392.9,1002,392.9c-0.1,0-0.3,0.1-0.3,0.1L782,392.7c-2.3,0.1-4.5,0.2-6.8,0.2
		c-60,0-108.6-48.6-108.6-108.6C666.6,229.3,707.4,183.9,760.4,176.7z"/>
	<g>
		<path d="M225.4,962c21.4,8.4,71-11.3,122.2-61.7c2.7-2.6,5.4-5.4,8.1-8.2c0,0,2.5,4.5,7,11.1c12.8,18.8,41.9,54.8,77.2,52.9
			c44.7-2.3,151.3-14.8,126.3-164.8c-11.8-71.2-42.1-186.7-150-247.2c-8.6-4.8-100-14.8-103.9,33.7c-2.9,36.4-10.6,70.8-43.5,137.8
			C245.9,762.5,135.9,927.1,225.4,962 M296.1,296.9l-91.4,71.7c0,0,67.9,17.6,92.1-9.6c-10.1,1.2-19.8-5.5-22.3-15.9
			c-2.7-11.3,4.1-22.6,15.1-25.4c4.8-1.2,9.6-0.5,13.8,1.5C302,312.5,299.6,305.1,296.1,296.9 M182,566.8c0,0.3-6.2-28.8-9.2-37.4
			c-2.6,55.1-106.1,69.2-127.6,52.4c-0.5-0.4-26.8-42.9-27.6-43c24.1,15.6,94.5,31.7,124.4-24.2c-35.2-1.3-83.7-19.2-110.2-83.2
			c-0.1-0.3-2.4-53.9-2.4-53.9c53.7,86.1,94.9,101.5,121.6,99.6c-2.6-4.9-6.9-12.6-7.1-13c-18.4-28.8-59.2-86.6-24.8-152.1
			c-22.4,18.5-72.6-17.8-72.6-47.3c0-29,11.8-51,40.8-56.4c28.3-5.3,48.7,16.3,69.7,36.3c52.6-41.6,113.5-34.1,160.4-4.4l-31.4,29.3
			c42.1,36.9,161.8-7.5,193.4-24.9c-0.6,35.1-23.7,90-44.7,116.9c-9,11.3-24.4,28.6-39.5,37.6c-27.7,16.6-53.9,8.1-53.9,8.1
			c19.7,64.5,69.5,53.3,97.8,35.6c12.1-7.6,20.6-23.5,20.6-23.5c5.3,47-7.9,65.8-18.4,80.6c92.5-8.7,134.3-54.4,137.3-122.9
			c2.6-60.4-7.4-114.3-28.1-155.2c-21.1-41.6,39-1.6,64.5,84.6c30.7,104.1,17.1,244.5-110.5,259.2c59.2,72.5,110.5,182.7,90.8,302.2
			c0,0-16.8,95.5-84.2,120.9c-25,9.4-46,16.1-64.5,10.7c0,0-6.9,28.1-7.9,33.6c-2.6,14.8-2.6,20.2,7.9,17.5
			c32.1-4.1,126.7-86.6,189.9-23.5c-39.5-14.8-71-2.7-71-2.7s60.5,0,73.3,28.9c-45.6-18.1-74.6-3.3-74.6-3.3
			c7.9,1.3,67.5,7.4,73.7,26.9c0,0-35.9-4.6-71.5-4.7c-62.3-0.2-183,8.3-185.5,4c1.3-12.1,5.3-30.9,34.2-44.3
			c0.4-0.2,3.2-11.7,5.6-21.9c1.9-8.3,3.6-15.7,3.6-15.7s-67.7-2.2-73.9-58.1c-0.7-6-0.2-1.8-0.1,0c2.1,34.6-98.4,82.3-160.2,56.8
			l-1.2-0.4c-7.4,10.4-28.7,40.2-29,40.7c-8.1,12.6-2.6,20.2,7.9,17.5c32.1-4.1,126.7-86.6,189.9-23.5c-39.5-14.8-71-2.7-71-2.7
			s60.5,0,73.3,28.9c-45.6-18.1-74.6-3.3-74.6-3.3c7.9,1.3,67.5,7.4,73.7,26.9c0,0-35.9-4.6-71.5-4.7c-62.3-0.2-183,8.3-185.5,4
			c1.3-12.1,5.3-30.9,34.2-44.3c0.4-0.2,27.8-41.4,31.6-47c-21-36.3-2.6-61.8-2.6-61.8c-35.5,48.4-82.9,49.7-140.8,40.3
			c61.1-19.1,138.9-163.9,168.2-290.2C124.9,722.1,72.2,848,59.6,913.6c-30.3,17.5-4-126.6,10.5-171.9
			c18.3-57.2,68.1-138.6,133.9-169.5c-0.2-5-0.5-9.8-1-14.5C203,557.7,182,566.6,182,566.8"/>
	</g>
</g>
</svg>
