<?xml version="1.0" encoding="utf-8"?>
<!-- Generator: Adobe Illustrator 26.0.1, SVG Export Plug-In . SVG Version: 6.00 Build 0)  -->
<svg version="1.1" xmlns="http://www.w3.org/2000/svg" xmlns:xlink="http://www.w3.org/1999/xlink" x="0px" y="0px"
	 viewBox="0 0 917 750" style="enable-background:new 0 0 917 750;" xml:space="preserve">
<style type="text/css">
	.st0{display:none;}
	.st1{display:inline;}
	.st2{fill:#FFFFFF;}
	.st3{display:inline;fill:#FFFFFF;}
	.st4{fill:none;stroke:#000000;stroke-width:50;}
	.st5{stroke:#000000;stroke-width:50;}
	.st6{stroke:#FFFFFF;stroke-width:50;}
	.st7{display:inline;stroke:#1C1B1A;stroke-width:60;stroke-miterlimit:10;}
	.st8{fill:#FFFFFF;stroke:#1C1B1A;stroke-width:60;stroke-miterlimit:10;}
	.st9{fill:none;stroke:#1C1B1A;stroke-width:60;stroke-miterlimit:10;}
	.st10{stroke:#FFFFFF;stroke-width:0.998;stroke-miterlimit:10;}
	.st11{stroke:#FFFFFF;stroke-width:60;stroke-miterlimit:10;}
	.st12{stroke:#FFFFFF;stroke-miterlimit:10;}
	.st13{fill:none;}
	.st14{fill:#1C1B1A;}
</style>
<g id="Ebene_1" class="st0">
	<g class="st1">
		<g>
			<path class="st10" d="M766.2,335.1c2.3,12.8,3.7,25.9,3.7,39.4c0,16.5-2,32.5-5.4,47.9H917v-87.3H766.2z"/>
			<path class="st10" d="M327.8,374.5c0-13.5,1.4-26.6,3.7-39.4h-163v87.3h164.7C329.7,407,327.8,391,327.8,374.5z"/>
		</g>
		<g>
			<path class="st10" d="M731.1,499.3c-16.6,24.2-38,44.9-62.7,60.8l110.3,110.3l61.7-61.7L731.1,499.3z"/>
			<path class="st10" d="M424,192.2L310.3,78.5l-61.7,61.7l114.6,114.6C379.2,230.2,399.8,208.8,424,192.2z"/>
		</g>
		<g>
			<path class="st10" d="M548.8,153.4c14.9,0,29.5,1.5,43.7,4.4V-1h-87.3v158.8C519.3,154.9,533.9,153.4,548.8,153.4z"/>
			<path class="st10" d="M548.8,595.6c-14.9,0-29.5-1.5-43.7-4.4v156.3h87.3V591.2C578.4,594,563.8,595.6,548.8,595.6z"/>
		</g>
		<path class="st10" d="M548.8,215.8c-87.5,0-158.7,71.2-158.7,158.7c0,87.5,71.2,158.7,158.7,158.7c87.5,0,158.7-71.2,158.7-158.7
			C707.5,287,636.3,215.8,548.8,215.8z"/>
		<g>
			<path class="st10" d="M734.5,254.9l112.2-112.2L785,80.9L673.7,192.2C697.9,208.8,718.5,230.2,734.5,254.9z"/>
			<path class="st10" d="M366.5,499.3l-110,110l61.7,61.7l110.9-110.9C404.5,544.2,383.2,523.5,366.5,499.3z"/>
		</g>
	</g>
	<g class="st1">
		<path d="M139.9,779.8c-94-2.8-169.6-80.1-169.6-174.8c0-96.4,78.4-174.8,174.8-174.8c1.9,0,3.7,0,5.6,0.1
			c15.2-81,86.5-142.4,171.8-142.4c46.5,0,90.2,18,123.2,50.8c27.1,26.9,44.3,61.1,49.8,98.2c32.1,9.1,61.2,27.3,83.5,52.7
			c28.1,31.9,43.6,72.9,43.6,115.5c0,96.4-78.4,174.9-174.8,174.9c-3.2,0-6.6-0.1-10-0.3L140.4,780L139.9,779.8z"/>
		<path class="st2" d="M322.5,317.8c79.6,0,144.2,64.2,144.8,143.7c70.7,9.6,125.2,70.2,125.2,143.5c0,80-64.9,144.8-144.9,144.8
			c-3.1,0-6.1-0.1-9.1-0.3L145.5,750c0,0-0.3-0.1-0.4-0.1C65.1,749.9,0.2,685,0.2,605c0-80,64.9-144.8,144.9-144.8
			c11.2,0,22.1,1.3,32.6,3.7c0-0.4,0-0.8,0-1.2C177.7,382.7,242.5,317.8,322.5,317.8 M322.5,257.8c-27.6,0-54.5,5.4-79.8,16.1
			c-24.4,10.3-46.3,25.1-65.1,43.9c-18.8,18.8-33.6,40.7-43.9,65.1c-2.5,5.9-4.7,11.9-6.7,18c-21.3,1.8-42,7-61.8,15.4
			C40.9,426.6,19,441.4,0.2,460.2c-18.8,18.8-33.6,40.7-43.9,65.1c-10.7,25.3-16.1,52.1-16.1,79.8s5.4,54.5,16.1,79.8
			c10.3,24.4,25.1,46.3,43.9,65.1c18.8,18.8,40.7,33.6,65.1,43.9c21.9,9.3,45,14.6,68.8,15.8l1.2,0.4l10.4,0l291.3-0.4
			c3.7,0.2,7.3,0.3,10.8,0.3c27.6,0,54.5-5.4,79.8-16.1c24.4-10.3,46.3-25.1,65.1-43.9c18.8-18.8,33.6-40.7,43.9-65.1
			c10.7-25.3,16.1-52.1,16.1-79.8c0-49.9-18.1-97.9-51.1-135.3c-22-25-49.5-44-80-55.8c-2.7-10.9-6.3-21.6-10.7-32.1
			c-10.4-24.2-25.2-45.9-44-64.6c-18.8-18.6-40.6-33.3-64.9-43.5C376.7,263.2,350,257.8,322.5,257.8L322.5,257.8z"/>
	</g>
</g>
<g id="Ebene_2">
	<g>
		<path class="st10" d="M766.2,335.1c2.3,12.8,3.7,25.9,3.7,39.4c0,16.5-2,32.5-5.4,47.9H917v-87.3H766.2z"/>
	</g>
	<g>
		<path class="st10" d="M731.1,499.3c-16.6,24.2-38,44.9-62.7,60.8l110.3,110.3l61.7-61.7L731.1,499.3z"/>
		<path class="st10" d="M424,192.2L310.3,78.5l-61.7,61.7l114.6,114.6C379.2,230.2,399.8,208.8,424,192.2z"/>
	</g>
	<g>
		<path class="st10" d="M548.8,153.4c14.9,0,29.5,1.5,43.7,4.4V-1h-87.3v158.8C519.3,154.9,533.9,153.4,548.8,153.4z"/>
	</g>
	<g>
		<path class="st10" d="M734.5,254.9l112.2-112.2L785,80.9L673.7,192.2C697.9,208.8,718.5,230.2,734.5,254.9z"/>
	</g>
	<g>
		<path d="M467.3,461.5c-0.6-79.5-65.2-143.7-144.8-143.7c-80,0-144.8,64.9-144.8,144.8c0,0.4,0,0.8,0,1.2
			c-10.5-2.4-21.4-3.7-32.6-3.7C65.1,460.2,0.2,525,0.2,605s64.9,144.8,144.8,144.8c0.1,0,0.4,0.1,0.4,0.1l293-0.4
			c3,0.2,6.1,0.3,9.1,0.3c80,0,144.9-64.9,144.9-144.8C592.5,531.7,538,471.1,467.3,461.5z"/>
	</g>
	<g>
		<path class="st10" d="M548.8,215.8c-53.2,0-100.3,26.3-129.1,66.5c17.2,9.3,33,21,47.1,35c18.8,18.6,33.6,40.3,44,64.6
			c4.5,10.4,8.1,21.1,10.7,32.1c30.5,11.8,58,30.8,80,55.8c11.1,12.7,20.6,26.5,28.2,41.3c46.6-27.7,77.9-78.5,77.9-136.5
			C707.5,287,636.3,215.8,548.8,215.8z"/>
	</g>
</g>
</svg>
