<?xml version="1.0" encoding="utf-8"?>
<!-- Generator: Adobe Illustrator 26.0.1, SVG Export Plug-In . SVG Version: 6.00 Build 0)  -->
<svg version="1.1" xmlns="http://www.w3.org/2000/svg" xmlns:xlink="http://www.w3.org/1999/xlink" x="0px" y="0px"
	 viewBox="0 0 1152 1127" style="enable-background:new 0 0 1152 1127;" xml:space="preserve">
<style type="text/css">
	.st0{display:none;}
	.st1{display:inline;}
	.st2{fill:#FFFFFF;}
	.st3{display:inline;fill:#FFFFFF;}
	.st4{fill:none;stroke:#000000;stroke-width:50;}
	.st5{stroke:#000000;stroke-width:50;}
	.st6{stroke:#FFFFFF;stroke-width:50;}
	.st7{display:inline;stroke:#1C1B1A;stroke-width:60;stroke-miterlimit:10;}
	.st8{fill:#FFFFFF;stroke:#1C1B1A;stroke-width:60;stroke-miterlimit:10;}
	.st9{fill:none;stroke:#1C1B1A;stroke-width:60;stroke-miterlimit:10;}
	.st10{stroke:#FFFFFF;stroke-width:0.998;stroke-miterlimit:10;}
	.st11{stroke:#FFFFFF;stroke-width:60;stroke-miterlimit:10;}
	.st12{stroke:#FFFFFF;stroke-miterlimit:10;}
	.st13{fill:none;}
	.st14{fill:#1C1B1A;}
</style>
<g id="Ebene_1" class="st0">
</g>
<g id="Ebene_2">
	<g>
		<g>
			<path class="st12" d="M1029.2,207.9c1,5.3,1.5,10.7,1.5,16.2c0,6.8-0.8,13.4-2.2,19.8h62.9v-36H1029.2z"/>
			<path class="st12" d="M848.4,224.1c0-5.6,0.6-11,1.5-16.2h-67.2v36h67.9C849.2,237.5,848.4,230.9,848.4,224.1z"/>
		</g>
		<g>
			<path class="st12" d="M1014.7,275.6c-6.9,10-15.7,18.5-25.8,25.1l45.5,45.5l25.5-25.5L1014.7,275.6z"/>
			<path class="st12" d="M888.1,149l-46.9-46.9l-25.5,25.5l47.3,47.3C869.6,164.6,878.1,155.8,888.1,149z"/>
		</g>
		<g>
			<path class="st12" d="M939.5,133c6.2,0,12.2,0.6,18,1.8V69.3h-36v65.5C927.4,133.6,933.4,133,939.5,133z"/>
			<path class="st12" d="M939.5,315.3c-6.2,0-12.2-0.6-18-1.8V378h36v-64.5C951.7,314.7,945.7,315.3,939.5,315.3z"/>
		</g>
		<path class="st12" d="M939.5,158.7c-36.1,0-65.5,29.4-65.5,65.5c0,36.1,29.4,65.5,65.5,65.5c36.1,0,65.5-29.4,65.5-65.5
			C1005,188,975.6,158.7,939.5,158.7z"/>
		<g>
			<path class="st12" d="M1016.1,174.8l46.3-46.3l-25.5-25.5L991,149C1001,155.8,1009.5,164.6,1016.1,174.8z"/>
			<path class="st12" d="M864.4,275.6L819,321l25.5,25.5l45.7-45.7C880,294.1,871.2,285.6,864.4,275.6z"/>
		</g>
	</g>
	<path d="M362.4,130c0.3-44.1,36.2-79.7,80.4-79.7c44.4,0,80.4,36,80.4,80.4c0,0.2,0,0.4,0,0.7c5.8-1.3,11.9-2,18.1-2
		c44.4,0,80.4,36,80.4,80.4s-36,80.4-80.4,80.4c-0.1,0-0.2,0.1-0.2,0.1l-162.6-0.2c-1.7,0.1-3.4,0.2-5.1,0.2
		c-44.4,0-80.4-36-80.4-80.4C293,168.9,323.2,135.3,362.4,130z"/>
	<g>
		<path d="M892.3,804.7c1.9-9,2.3-29.7-17.7-65.5c0,0,0,0,0,0l75.8,31.8c14.7,0,54.5-64.6,77.9-95.3c2.8-3.6,5.3-6.8,7.5-9.4
			c7-8.2,31.4-39.7,20.9-48c-4.9-3.9-19,2.7-32,22c-1.6,2.3,4.9-23.3,0-23.3c-4.2,0-11.6,34.1-12.3,35c-2.1,2.6-4.2,5.2-6.4,7.8
			c-29,35.9-59.3,76.3-63.4,74.7c-6.5-2.6-23.9-24.9-38.7-45.4c0.9-5.3-0.5-11.1-7-18c-3.1-3.3-6.6-5.7-10.5-7.5
			c-2.1-3.2-3.7-5.9-4.6-7.7c12.3-5.2,27.1,18.1,49.2-11.7c-32,5.2-20-24.4-8.6-41.5c-0.8,20.9,17.2,29.8,17.2,29.8l8.6-9.1
			c0,0,47.2,1.7,45.6,0c-8.6-9.1-16.6-38.6-9.5-49.4c5.5-8.3,7.2-21.3,6.4-34.4c0.7-2,1.3-4,1.8-6.1c7.2-34.1-26-70.8-74.1-82
			c-36.5-8.5-71,0.1-88.7,19.6c-22.5-9.6-43.8-16.2-76.2-16.2c-31.4,0-62.3,8.6-82,15.5c-16.5-7.3-30.8-12.6-54.1-12.6
			c-28.8,0-56.9,11.2-64.7,14.6c-4.3,1.9-4.4,7.6-0.3,9.9c8.3,4.6,36.1,20.6,57.2,22.5c22.2,2,40.4-1.2,53.8-5.9
			c18.6,10.1,51.7,26.6,78,28.9c32.1,2.9,58.8-1.3,79.2-7.7c7.4,19.9,21.2,35.8,47,46.4c-6.8,4.7-36.3,44.2-38.8,47.8
			c0,0-67.4-68.5-88.6-72.6c0,0-74.1,37.7-106.3,62.1c-32.7,24.8-16.7,36.4,20.1,11.8c3.8-4.9-5.4,11.9-0.2,13.1
			c7.8,1.7,9.7-18.7,11.2-19.5c9.8-5.3,75.1-32.4,75.1-32.4l54.6,83c-1.5,1.3-3.2,3.2-5.2,5.6c-16.9,0.2-34.4-1.7-52.3-8.3
			l-15.4-24.3l-6,6.3l-17.9-15.7c0,0-22.4-4.7-43.3,26.7c-18.3,27.5-11.9,50.3-11.9,50.3l26.3,8.1l0.5,10l11.9,1.6
			c5.4,5.2,22.1,20.2,47.7,33.8c1.4,0.8,2.9,1.5,4.4,2.3c-22.8,40.6-42.6,78.2-42.4,77.8c0,0-45.1-59.5-62.1-97.3
			c0,0-11.2,7.9-11.6,6.8c0,0-5.5-17.3-7.7-24.6c-7.1-23.3,9.8-47.4,9.8-47.4c-4-7.1-38-11-89.2,13.8
			c-20.8,10.1-44.8,28.6-57.3,44.9c-0.3,0.5-0.5,2.3-0.6,4.1c0,0,0,0.1,0,0.1c-0.2,3.1,2.4,6.8,5,5.6c51.5-23,86-15.2,94.8-5.6
			c4.9,5.4,19.8,28.1,19.8,28.1s-15.5,10-16.5,12.5c-0.2,0.4,92.8,195.4,92.8,195.4c4.9,20.7,23.1,13,39.6-3.4
			c17.3-17.1,93.6-94.9,93.5-94.9L973,904.6c-29.5,29.8-50.5,53.1-62.8,66.1c0,0,15,12.5,14.8,13c-0.8,1.6-24.6,18.1-52.9,11.7
			c-7.8,8.8,27.3,65,61.6,81.6c16,7.8,57.4,16.1,68.3,13.3c1.4-0.3,5.9-7.1,6.8-8.2c4.9-6.5-22.2-0.1-50.5-29.8
			c-4.6-4.8-13.5-16.8-14.8-36.3c-0.1-1.8,3.2-13.7,4.5-15.1c0.4-0.4,6.6,7.3,6.6,7.3c27.1-28.5,77.6-90.7,98.5-117.9
			C1068.7,870,945.1,828,892.3,804.7z M960.8,536.1c5.5,4.6,7.8,12.3,7.8,19.7c-0.1,7.4-2.3,14.5-4.4,21.5
			c-2.4-1.7-6.5-5.2-11.1-9.5c4.9-1.3,8.5-5.9,8.5-11.4c0-6.5-5-11.8-11.2-11.8c-5.6,0-10.3,4.4-11.1,10.1
			c-6.8-6.6-12.2-11.9-12.2-11.9S951.7,528.5,960.8,536.1z M739,746.9c-17.5-8.7-31.1-18.4-40.1-25.6l36.7-53.9
			c15.8,5.7,31.5,7.9,46.5,8.3C770.2,692.8,754.2,719.9,739,746.9z M869.4,791.7c-0.1-0.1,1.7,1.4,4.2,3.6
			C871.4,794,870,792.8,869.4,791.7z"/>
		<path d="M510.9,1013.7c-6.2-0.2-17.3,8.5-17.3,8.5c0.3,0.1,47-81.4,66-126.9c6.8-16.2-16-31-29.4-39.8c0,0,24.6-17.7,22.1-21.4
			c-28.4-42.3-147.6-68.7-123.2-71.2c0.6-0.1,29.4-18.8,29.4-18.8c-3.7-2.1-29.3,2.7-47.6-8c-17-9.9-43.8-27.5-57.5-36.7
			c21.3-10.9,41.9-23.4,61.3-37.4c2.6-1.8,5.2-3.8,7-6.2c4.9-6.6,2.1-14-0.7-20c-11.2-24.1-20.9-48.9-29-74.4
			c-0.5-1.7-1.1-3.4-2.7-4.4c-1.6-0.9-4.5-0.4-5.5,1.4c-2.4-8.8-4.8-17.6-7.3-26.4c-2.1-7.7-4.3-15.4-8.6-22c-1.5-2.2-3.7-4.5-7-3.8
			c-2.9,0.6-5.1,3.2-6.3,5.7c-3.4,6.9-2.3,14-0.1,20.2c2.2,6.2,6.3,18.9,6.2,18.6c-2.4-2.9-5.4-5.3-8.9-7.1
			c-0.9-0.5-2.1-0.9-3.3-0.4c-2.3,1-1.8,3.7-0.8,5.4c4.6,7.5,9.6,14.8,15,21.8c-2.1,0.8-4.2,1.7-6.4,2.5
			c13.2,22.5,34.5,65.4,22.1,71.3c-7.1,3.4-30.2,15.1-34.8,17.3c-10.8,5.3-21.7,10.6-32.8,15c-7.9-1.4-12.2,0.5-13.5,2.2
			c-1.8,2.3,13.4-20,11-38.6c-2.1-16.2,1.3-9.1-26.1-5.6c-7.8,1-12.9-4.3-7.9-3.8c8.2,0.8,34.6-18.3,28.6-16.9
			c-13.9,3.2-23.4-17.2-23.4-17.2s23.6-21.9,28.8-27c-0.4-0.6-12.4-6.4-34.8-39.2c-3.4-5-5.4-15.7-13.7-24.5
			c-1.4-1.5,53.5-70.1,39.6-78.9c-10.4-6.6-41.7,17.5-77.1,52.6c-8.5-2.8-64.6-17.5-112,8.8c-13,56.9,20.4,105.2,26.6,113.9
			c-27.1,41.7-39.8,83-31.2,92.1c8.3,8.8,52.6-43.1,62.5-57c8.3,17.5,29.2,39.5,48.4,53.9c12.4,9.3,29.1,30.2,29.1,30.2
			c0.4,0.1-47.7,51.4-47.7,51.4s-17.9,30.6,6.5,38.7c15.2,5,60.5,1.1,94.2-2.9c2,18.7-3.5,44.4-18.5,46.6
			c-27.1,3.8-34.9,9.4-45,45.3l29.8,30.7c-5.5,6.7-21.3,25.7-21.9,25.3l-66.8-106.7c0,0,6.1,0.5,6.3-3.5c0.6-9.3-41.3-63.4-49-37.1
			c-0.2,0.7-33.4,171.9-33.4,171.9c18.6-23.8,45.1-59.8,61-87c2.4-4.3,0.1-20.5,1.2-18.6c8,14,58.3,120.9,67.5,133.4
			c19.2,26.1,41.6,16.2,60.6-10.1c7.1-9.8,10.9-15.1,17.1-23.6c0,0,24.3,27.2,30.5,25.3c38-11.9,37.5-104.6,55.7-147.3
			c34.6,28.4,17.7,63.7,50.8,82.2c7,3.9,42.7-37.1,42.7-37.1c4.5,3.6,10.2,10.5,13.4,12.4c-20.8,57.8-37,120.7-37,120.7
			s-12.5-7-13.7-0.9c-8.3,40.7-9,71.1,10.4,60.8l146.8-68.4C607.7,1023.2,535.6,1014.6,510.9,1013.7z M221.9,578.6
			C221.8,578.6,221.9,578.5,221.9,578.6c-1.4-0.1-2.3-0.1-2.6,0c-0.1,0,2.3-12,6.5-21.5c0.8,3.3,2.7,6.2,5.6,8.2
			c6.1,4.1,14,2.1,17.8-4.5c3.8-6.6,2-15.3-4.1-19.4c0,0-0.1-0.1-0.1-0.1c6.3-1,12.3,1.2,20.2,5.5c-2.4,7.9-5.1,13.9-10.8,19.4
			c-2,2.2-4.5,4.3-7.7,6.3C235.8,579.5,222.9,578.3,221.9,578.6z M234.1,780.5l36.5-32.3c0,0,8.5,15.6,15.7,29.2
			C262,780.2,237.9,782.2,234.1,780.5z"/>
	</g>
	<path id="Pfad_470_00000049903452378473119480000006953576245233101758_" d="M458.3,531L458.3,531l-0.1,0.1l0,0
		c-3.2,10.5-0.9,21.9,6.2,30.4c11.5,13.7,31.9,15.5,45.6,4c9.5-7.9,13.6-20.6,10.6-32.6l0,0l0-0.1c-0.5-2.1-1.3-4.1-2.2-6.1
		l-24-66.5l-31.3,61.4C461,524.5,459.4,527.7,458.3,531"/>
	<path id="Pfad_470_00000103230853798598789620000008165139492733544320_" d="M545.3,392L545.3,392l-0.1,0.1l0,0
		c-3.2,10.5-0.9,21.9,6.2,30.4c11.5,13.7,31.9,15.5,45.6,4c9.5-7.9,13.6-20.6,10.6-32.6l0,0l0-0.1c-0.5-2.1-1.3-4.1-2.2-6.1
		l-24-66.5l-31.3,61.4C548,385.5,546.4,388.7,545.3,392"/>
	<path id="Pfad_470_00000013891643101569865840000018188016148142339457_" d="M188.3,304L188.3,304l-0.1,0.1l0,0
		c-3.2,10.5-0.9,21.9,6.2,30.4c11.5,13.7,31.9,15.5,45.6,4c9.5-7.9,13.6-20.6,10.6-32.6l0,0l0-0.1c-0.5-2.1-1.3-4.1-2.2-6.1
		l-24-66.5l-31.3,61.4C191,297.5,189.4,300.7,188.3,304"/>
	<path id="Pfad_470_00000174581085792919208320000003306513752439687340_" d="M346.3,392L346.3,392l-0.1,0.1l0,0
		c-3.2,10.5-0.9,21.9,6.2,30.4c11.5,13.7,31.9,15.5,45.6,4c9.5-7.9,13.6-20.6,10.6-32.6l0,0l0-0.1c-0.5-2.1-1.3-4.1-2.2-6.1
		l-24-66.5l-31.3,61.4C349,385.5,347.4,388.7,346.3,392"/>
	<path id="Pfad_470_00000089572054503381653680000004282474818397219739_" d="M86.3,184L86.3,184l-0.1,0.1l0,0
		c-3.2,10.5-0.9,21.9,6.2,30.4c11.5,13.7,31.9,15.5,45.6,4c9.5-7.9,13.6-20.6,10.6-32.6l0,0l0-0.1c-0.5-2.1-1.3-4.1-2.2-6.1
		l-24-66.5l-31.3,61.4C89,177.5,87.4,180.7,86.3,184"/>
	<path id="Pfad_470_00000114760788768263228910000000677639728288716201_" d="M54.3,361L54.3,361l-0.1,0.1l0,0
		c-3.2,10.5-0.9,21.9,6.2,30.4c11.5,13.7,31.9,15.5,45.6,4c9.5-7.9,13.6-20.6,10.6-32.6l0,0l0-0.1c-0.5-2.1-1.3-4.1-2.2-6.1
		l-24-66.5l-31.3,61.4C57,354.5,55.4,357.7,54.3,361"/>
</g>
</svg>
